<svg width="512" height="512" viewBox="0 0 512 512" fill="none" xmlns="http://www.w3.org/2000/svg">
<g clip-path="url(#clip0_220_649)">
<path d="M283.499 282.197C265.066 282.189 246.956 287.03 230.987 296.235C230.076 296.761 229.278 297.461 228.638 298.295C227.998 299.13 227.529 300.082 227.257 301.098C226.985 302.113 226.916 303.173 227.054 304.215C227.191 305.258 227.533 306.263 228.059 307.173C228.585 308.084 229.285 308.882 230.119 309.522C230.954 310.162 231.906 310.631 232.922 310.903C233.937 311.175 234.997 311.244 236.039 311.106C237.082 310.969 238.087 310.627 238.997 310.101C258.609 298.763 281.799 295.312 303.862 300.449C325.925 305.586 345.206 318.927 357.791 337.762C370.376 356.598 375.322 379.516 371.625 401.866C367.928 424.215 355.864 444.32 337.884 458.098C319.903 471.877 297.353 478.297 274.811 476.056C252.269 473.814 231.425 463.078 216.511 446.028C201.596 428.978 193.729 406.891 194.505 384.251C195.282 361.611 204.645 340.116 220.693 324.128C221.459 323.392 222.07 322.51 222.492 321.535C222.913 320.56 223.136 319.511 223.148 318.449C223.16 317.387 222.96 316.333 222.56 315.349C222.16 314.365 221.568 313.471 220.819 312.718C220.069 311.965 219.178 311.369 218.195 310.964C217.213 310.56 216.161 310.355 215.098 310.362C214.036 310.368 212.986 310.586 212.009 311.003C211.032 311.42 210.148 312.027 209.408 312.789C192.175 329.938 181.424 352.533 178.989 376.722C176.554 400.911 182.585 425.196 196.055 445.435C209.524 465.674 229.597 480.614 252.85 487.707C276.104 494.8 301.098 493.608 323.57 484.332C346.042 475.056 364.601 458.273 376.081 436.843C387.562 415.413 391.253 390.664 386.525 366.817C381.798 342.97 368.944 321.501 350.156 306.072C331.368 290.643 307.81 282.209 283.499 282.208V282.197Z" fill="#EA5050"/>
<path d="M292.191 418.859H272.106C270.553 418.861 269.014 418.558 267.579 417.966C266.143 417.374 264.838 416.505 263.739 415.408C262.639 414.312 261.766 413.009 261.17 411.575C260.574 410.141 260.267 408.604 260.266 407.051C260.266 404.929 259.423 402.894 257.922 401.394C256.422 399.893 254.387 399.051 252.266 399.051C250.144 399.051 248.109 399.893 246.609 401.394C245.108 402.894 244.266 404.929 244.266 407.051C244.274 414.423 247.207 421.491 252.42 426.704C257.633 431.918 264.701 434.85 272.074 434.859H274.132V450.197C274.132 452.319 274.975 454.354 276.475 455.854C277.976 457.354 280.011 458.197 282.132 458.197C284.254 458.197 286.289 457.354 287.789 455.854C289.289 454.354 290.132 452.319 290.132 450.197V434.859H292.17C299.545 434.859 306.618 431.929 311.833 426.714C317.048 421.499 319.978 414.426 319.978 407.051C319.978 399.675 317.048 392.602 311.833 387.387C306.618 382.172 299.545 379.243 292.17 379.243H272.106C269.034 379.15 266.119 377.865 263.979 375.66C261.839 373.454 260.642 370.502 260.642 367.429C260.642 364.356 261.839 361.404 263.979 359.199C266.119 356.993 269.034 355.708 272.106 355.616H292.191C295.322 355.619 298.324 356.864 300.537 359.078C302.751 361.291 303.996 364.293 303.999 367.424C303.999 369.546 304.842 371.581 306.342 373.081C307.842 374.581 309.877 375.424 311.999 375.424C314.121 375.424 316.156 374.581 317.656 373.081C319.156 371.581 319.999 369.546 319.999 367.424C319.99 360.051 317.058 352.983 311.845 347.77C306.632 342.557 299.564 339.624 292.191 339.616H290.132V324.267C290.132 322.145 289.289 320.11 287.789 318.61C286.289 317.109 284.254 316.267 282.132 316.267C280.011 316.267 277.976 317.109 276.475 318.61C274.975 320.11 274.132 322.145 274.132 324.267V339.616H272.106C264.823 339.759 257.888 342.752 252.788 347.952C247.688 353.153 244.832 360.146 244.832 367.429C244.832 374.713 247.688 381.706 252.788 386.907C257.888 392.107 264.823 395.1 272.106 395.243H292.191C295.323 395.243 298.326 396.487 300.54 398.701C302.755 400.916 303.999 403.919 303.999 407.051C303.999 410.182 302.755 413.186 300.54 415.4C298.326 417.615 295.323 418.859 292.191 418.859Z" fill="#EA5050"/>
<path d="M473.78 166.795C471.759 166.299 469.624 166.611 467.829 167.663C466.034 168.715 464.72 170.425 464.165 172.43C463.609 174.436 463.857 176.578 464.856 178.404C465.854 180.229 467.525 181.594 469.513 182.208C491.156 188.224 496.03 195.008 496.03 196.843C496.03 203.52 464.724 219.179 404.03 219.179C343.337 219.179 312.02 203.52 312.02 196.843C312.02 190.165 343.316 174.507 404.03 174.507C418.389 174.455 432.732 175.464 446.942 177.525C449.012 177.772 451.095 177.202 452.751 175.937C454.407 174.672 455.505 172.811 455.812 170.75C456.119 168.689 455.61 166.589 454.394 164.897C453.178 163.204 451.351 162.052 449.3 161.685C434.308 159.516 419.178 158.446 404.03 158.485C352.009 158.485 296.02 170.485 296.02 196.821V259.061C296.02 285.397 352.009 297.397 404.03 297.397C438.996 297.397 475.689 291.947 496.03 280.384V290.176C496.03 296.853 464.724 312.512 404.03 312.512C397.065 312.512 390.281 312.299 383.764 311.872C381.646 311.749 379.565 312.462 377.969 313.859C376.372 315.256 375.389 317.224 375.23 319.339C375.156 320.39 375.291 321.446 375.627 322.445C375.963 323.444 376.493 324.366 377.187 325.16C377.881 325.953 378.725 326.601 379.671 327.066C380.617 327.532 381.645 327.806 382.697 327.872C389.577 328.32 396.713 328.555 404.03 328.555C438.996 328.555 475.689 323.104 496.03 311.488V321.28C496.03 327.957 464.724 343.68 404.03 343.68C404.03 343.68 400.692 343.744 399.209 343.68C397.111 343.694 395.096 344.502 393.568 345.94C392.041 347.378 391.114 349.341 390.974 351.435C390.914 353.557 391.697 355.617 393.153 357.162C394.609 358.708 396.617 359.613 398.74 359.68H404.073C439.038 359.68 475.732 354.219 496.073 342.613V352.405C496.073 359.083 464.766 374.741 404.073 374.741C401.951 374.741 399.916 375.584 398.416 377.085C396.916 378.585 396.073 380.62 396.073 382.741C396.073 384.863 396.916 386.898 398.416 388.398C399.916 389.899 401.951 390.741 404.073 390.741C439.038 390.741 475.732 385.28 496.073 373.728V384.299C496.073 390.976 464.766 406.635 404.073 406.635H401.204C399.117 406.725 397.138 407.583 395.645 409.044C394.153 410.505 393.253 412.465 393.118 414.549C393.098 416.67 393.92 418.713 395.404 420.228C396.888 421.744 398.912 422.609 401.033 422.635H404.073C456.009 422.667 511.998 410.667 511.998 384.331V196.843C511.998 187.989 505.364 175.595 473.78 166.795ZM403.998 235.179C438.964 235.179 475.657 229.728 495.998 218.165V227.957C495.998 234.635 464.692 250.357 403.998 250.357C343.305 250.357 311.988 234.688 311.988 227.957V218.165C332.329 229.728 369.065 235.179 403.998 235.179ZM403.998 281.419C343.284 281.419 311.988 265.76 311.988 259.083V249.291C332.329 260.853 369.012 266.357 403.998 266.357C438.985 266.357 475.657 260.907 495.998 249.291V259.083C495.998 265.76 464.692 281.419 403.998 281.419Z" fill="#AAAAAA"/>
<path d="M168.533 429.653C165.717 429.76 162.88 429.824 160 429.824C75.2 429.824 16 381.173 16 311.52C16 254.72 54.4 170.72 111.669 136.213C112.448 135.733 113.099 135.147 113.803 134.613H179.2C181.322 134.613 183.357 133.77 184.857 132.27C186.357 130.77 187.2 128.735 187.2 126.613C187.2 124.492 186.357 122.457 184.857 120.956C183.357 119.456 181.322 118.613 179.2 118.613H123.893C124.985 112.6 123.741 106.397 120.416 101.269C93.376 59.3812 88.1173 40.5332 89.0987 35.6479C89.2017 35.7082 89.3212 35.7344 89.44 35.7226C101.453 35.8063 113.392 37.6241 124.885 41.1199C136.006 44.4998 147.547 46.2952 159.168 46.4532C172.306 46.131 185.356 44.2038 198.027 40.7146C208.068 37.9495 218.378 36.2759 228.779 35.7226C228.491 41.7492 222.517 59.5519 201.856 94.8159H140.8C138.678 94.8159 136.643 95.6588 135.143 97.1591C133.643 98.6594 132.8 100.694 132.8 102.816C132.8 104.938 133.643 106.972 135.143 108.473C136.643 109.973 138.678 110.816 140.8 110.816H194.795C194.4 113.798 194.574 116.827 195.307 119.744C196.164 123.058 197.674 126.167 199.75 128.889C201.825 131.611 204.423 133.891 207.392 135.595C236.19 154.35 259.543 180.356 275.104 210.997C275.591 211.947 276.263 212.79 277.08 213.477C277.898 214.163 278.844 214.679 279.864 214.994C280.884 215.309 281.957 215.416 283.019 215.31C284.082 215.204 285.112 214.887 286.049 214.376C286.987 213.866 287.813 213.173 288.479 212.338C289.144 211.504 289.636 210.544 289.925 209.517C290.214 208.489 290.295 207.414 290.162 206.355C290.029 205.296 289.686 204.274 289.152 203.349C272.216 170.174 246.828 142.053 215.552 121.824C214.405 121.186 213.397 120.327 212.586 119.296C211.775 118.265 211.177 117.083 210.827 115.819C210.554 114.757 210.499 113.651 210.666 112.567C210.833 111.484 211.218 110.445 211.797 109.515C251.947 42.7199 245.461 31.2532 242.731 26.3146C241.514 24.2105 239.747 22.478 237.62 21.3033C235.492 20.1286 233.085 19.5563 230.656 19.6479C218.392 20.0006 206.215 21.8307 194.389 25.0986C182.916 28.2999 171.096 30.0909 159.189 30.4319C148.95 30.25 138.787 28.6233 129.003 25.5999C116.168 21.7672 102.856 19.7705 89.4613 19.6692C86.6 19.4839 83.7446 20.1117 81.2249 21.4801C78.7051 22.8485 76.6239 24.9017 75.2213 27.4026C72.5333 32.3412 65.3867 45.4612 106.997 109.909C107.623 110.838 108.05 111.886 108.25 112.987C108.45 114.089 108.419 115.22 108.16 116.309C107.829 117.608 107.239 118.827 106.425 119.892C105.611 120.957 104.59 121.846 103.424 122.507C41.6 159.808 0 250.357 0 311.52C0 389.333 67.3067 445.867 160 445.867C163.072 445.867 166.123 445.803 169.152 445.675C170.203 445.633 171.235 445.385 172.19 444.945C173.144 444.505 174.003 443.881 174.717 443.109C175.43 442.337 175.985 441.432 176.349 440.445C176.713 439.459 176.879 438.41 176.837 437.36C176.796 436.309 176.548 435.277 176.108 434.322C175.668 433.368 175.044 432.509 174.272 431.795C173.5 431.082 172.595 430.527 171.608 430.163C170.622 429.799 169.573 429.633 168.523 429.675L168.533 429.653Z" fill="#AAAAAA"/>
</g>
<defs>
<clipPath id="clip0_220_649">
<rect width="512" height="512" fill="white"/>
</clipPath>
</defs>
</svg>
