<svg width="512" height="512" viewBox="0 0 512 512" fill="none" xmlns="http://www.w3.org/2000/svg">
<g clip-path="url(#clip0_220_805)">
<path d="M503.36 300.6C501.08 285.12 499.12 271.72 498.48 263.12C496.36 234.4 488.6 219.12 472.48 211.4C465.556 208.157 457.96 206.608 450.32 206.88C448 197.12 443.28 181.32 436.08 174.2C423.68 161.96 406.68 161.6 396.72 162.76C395.331 158.187 392.877 154.008 389.56 150.566C386.244 147.124 382.159 144.518 377.64 142.96C366.684 139.772 354.938 140.726 344.64 145.64C341.52 97.84 337.52 53.88 332.96 44.88C331.372 41.2105 328.861 38.0146 325.672 35.6033C322.482 33.192 318.723 31.6475 314.76 31.12C302.48 29.6 290.44 38.28 286.76 42.48C284.2 45.44 282.36 47.56 282.52 134.48C282.52 175.24 283.24 221.48 283.84 229.68C284.36 236.68 283.4 261.68 282.28 285.68C280.326 282.653 278.627 279.468 277.2 276.16C268.16 256.16 249.2 239.8 224.36 230.24C208 224 192.76 225.68 183.52 234.72C180.203 237.916 177.888 242.008 176.858 246.497C175.829 250.986 176.128 255.678 177.72 260C180.8 268.56 187.8 276.92 195.88 286.6C203.367 295.019 210.062 304.111 215.88 313.76C221.122 323.826 225.576 334.284 229.2 345.04C233.352 357.531 238.71 369.588 245.2 381.04C248.2 386 251.48 391.24 254.84 396.64C265.088 412.419 274.437 428.765 282.84 445.6C292.8 467.32 328.96 485.6 333.04 487.84C333.989 488.332 335.028 488.629 336.094 488.712C337.16 488.796 338.232 488.665 339.246 488.328C340.261 487.99 341.198 487.452 342.001 486.747C342.804 486.041 343.458 485.181 343.923 484.218C344.388 483.255 344.656 482.209 344.71 481.141C344.764 480.073 344.604 479.005 344.238 478.001C343.872 476.996 343.308 476.074 342.581 475.291C341.853 474.508 340.975 473.878 340 473.44C330.28 468.6 303.68 452.96 297.2 438.84C288.466 421.339 278.716 404.363 268 388C264.68 382.68 261.44 377.48 258.48 372.56C252.615 362.087 247.766 351.077 244 339.68C240.106 328.132 235.304 316.91 229.64 306.12C223.37 295.597 216.125 285.687 208 276.52C201.16 268.52 194.72 260.52 192.6 254.76C192.048 253.325 191.94 251.756 192.289 250.259C192.639 248.761 193.43 247.403 194.56 246.36C198.16 242.84 206.32 240.76 218.56 245.4C246.96 256.24 258.28 273.4 262.56 282.96C266.617 292.771 272.984 301.458 281.12 308.28C280.72 315.56 280.4 322 280.12 326.72C280 328.836 280.724 330.913 282.134 332.496C283.544 334.078 285.524 335.036 287.64 335.16H288C290.041 335.164 292.006 334.387 293.493 332.989C294.981 331.591 295.877 329.677 296 327.64C296 324.2 300.8 243.64 299.68 228.52C298.4 209.76 297.64 70.8 300 52C303.569 48.9608 308.073 47.2383 312.76 47.12C313.72 47.12 316.28 47.56 318.6 52.2C322.24 59.64 326.6 110.28 330.12 172.52V173.6C330.12 173.6 330.12 173.8 330.12 173.92C332.04 206.96 333.72 243.24 335.04 277.92C335.119 280.042 336.038 282.045 337.595 283.489C339.152 284.933 341.218 285.7 343.34 285.62C345.461 285.54 347.465 284.621 348.909 283.065C350.353 281.508 351.119 279.442 351.04 277.32C350.44 261.32 348.64 216.24 345.92 169.88C345.844 168.213 346.168 166.552 346.863 165.035C347.559 163.519 348.607 162.19 349.92 161.16C355.84 156.48 367.04 156.48 372.56 158.24C381.36 161.08 382.56 172.24 382.6 172.68C382.6 173.4 389.72 247.04 390.6 263.76C390.712 265.805 391.605 267.728 393.093 269.134C394.581 270.541 396.552 271.323 398.6 271.32H399.08C401.196 271.196 403.176 270.238 404.586 268.656C405.996 267.073 406.72 264.996 406.6 262.88C405.8 248.88 401 197.88 399.2 178.6C406.16 177.92 417.2 178.28 424.68 185.64C429.28 190.16 434.08 206.84 436.04 217.24V217.52C436.04 217.52 436.04 217.72 436.04 217.84C440.133 234.755 441.563 252.204 440.28 269.56C440.175 270.605 440.277 271.661 440.58 272.667C440.882 273.673 441.381 274.609 442.046 275.423C442.71 276.236 443.529 276.911 444.454 277.408C445.38 277.905 446.394 278.215 447.44 278.32H448.24C450.23 278.33 452.152 277.598 453.632 276.266C455.111 274.935 456.041 273.1 456.24 271.12C457.546 255.073 456.644 238.922 453.56 223.12C457.714 223.317 461.79 224.323 465.56 226.08C474.28 230.08 480.44 238.08 482.4 264.48C483.08 273.64 485.08 287.28 487.4 303.08C491.68 332.36 497.04 368.8 495.88 391.08C494.12 424.84 480.24 476.44 480.12 476.96C479.831 478.037 479.771 479.164 479.943 480.266C480.115 481.368 480.516 482.422 481.12 483.36L497.12 508.48C498.296 510.186 500.088 511.368 502.119 511.779C504.15 512.19 506.261 511.797 508.008 510.682C509.755 509.568 511.001 507.819 511.485 505.804C511.968 503.789 511.651 501.666 510.6 499.88L496.44 477.72C499.64 465.32 510.24 422.6 511.84 391.92C513.24 368 507.76 330.6 503.36 300.6Z" fill="#AAAAAA"/>
<path d="M8 64H240.88C242.806 74.9838 248.089 85.1009 256 92.96C257.501 94.4611 259.537 95.3044 261.66 95.3044C263.783 95.3044 265.819 94.4611 267.32 92.96C268.821 91.4589 269.664 89.4229 269.664 87.3C269.664 85.1771 268.821 83.1411 267.32 81.64C261.076 75.371 257.191 67.1364 256.324 58.3312C255.456 49.5259 257.659 40.6914 262.56 33.3245C267.46 25.9575 274.756 20.511 283.212 17.9078C291.669 15.3045 300.765 15.7045 308.96 19.04C309.932 19.4392 310.973 19.6431 312.023 19.6401C313.074 19.637 314.114 19.427 315.083 19.0222C317.041 18.2045 318.594 16.6426 319.4 14.68C319.799 13.7082 320.003 12.6673 320 11.6167C319.997 10.5661 319.787 9.52644 319.382 8.557C318.977 7.58756 318.385 6.70735 317.64 5.96663C316.895 5.22592 316.012 4.6392 315.04 4.23998C307.296 1.05413 298.921 -0.29838 290.568 0.288107C282.215 0.874594 274.111 3.3842 266.889 7.62089C259.666 11.8576 253.521 17.7067 248.933 24.7112C244.345 31.7158 241.438 39.6863 240.44 48H8C5.87827 48 3.84344 48.8428 2.34315 50.3431C0.842855 51.8434 0 53.8783 0 56C0 58.1217 0.842855 60.1565 2.34315 61.6568C3.84344 63.1571 5.87827 64 8 64Z" fill="#AAAAAA"/>
<path d="M360 48C357.878 48 355.843 48.8429 354.343 50.3431C352.843 51.8434 352 53.8783 352 56C352 58.1217 352.843 60.1566 354.343 61.6569C355.843 63.1571 357.878 64 360 64H504C506.122 64 508.157 63.1571 509.657 61.6569C511.157 60.1566 512 58.1217 512 56C512 53.8783 511.157 51.8434 509.657 50.3431C508.157 48.8429 506.122 48 504 48H360Z" fill="#AAAAAA"/>
<path d="M55.9992 312C69.454 311.984 82.4533 307.125 92.619 298.311C102.785 289.496 109.437 277.317 111.359 264H151.999C154.121 264 156.156 263.157 157.656 261.657C159.156 260.157 159.999 258.122 159.999 256C159.999 253.878 159.156 251.843 157.656 250.343C156.156 248.843 154.121 248 151.999 248H111.359C109.825 237.373 105.269 227.411 98.2326 219.301C91.1963 211.191 81.9769 205.275 71.6728 202.257C61.3687 199.24 50.4142 199.248 40.1146 202.281C29.8149 205.314 20.6043 211.244 13.5801 219.364C6.55591 227.485 2.01423 237.453 0.496175 248.082C-1.02188 258.712 0.547695 269.553 5.0179 279.315C9.4881 289.077 16.6705 297.348 25.7093 303.143C34.7481 308.938 45.2623 312.013 55.9992 312ZM55.9992 216C63.9105 216 71.6441 218.346 78.2221 222.741C84.8 227.136 89.9269 233.384 92.9544 240.693C95.9819 248.002 96.7741 256.044 95.2307 263.804C93.6873 271.563 89.8776 278.69 84.2835 284.284C78.6894 289.878 71.5621 293.688 63.8029 295.231C56.0436 296.775 48.001 295.983 40.6919 292.955C33.3829 289.928 27.1357 284.801 22.7405 278.223C18.3452 271.645 15.9992 263.911 15.9992 256C15.9992 245.391 20.2135 235.217 27.715 227.716C35.2164 220.214 45.3906 216 55.9992 216Z" fill="#EA5050"/>
<path d="M8 464H120.64C122.658 477.236 129.352 489.311 139.509 498.036C149.665 506.761 162.611 511.558 176 511.558C189.389 511.558 202.335 506.761 212.491 498.036C222.648 489.311 229.342 477.236 231.36 464H260C262.122 464 264.157 463.157 265.657 461.657C267.157 460.157 268 458.122 268 456C268 453.878 267.157 451.843 265.657 450.343C264.157 448.843 262.122 448 260 448H231.36C229.342 434.764 222.648 422.689 212.491 413.964C202.335 405.239 189.389 400.442 176 400.442C162.611 400.442 149.665 405.239 139.509 413.964C129.352 422.689 122.658 434.764 120.64 448H8C5.87827 448 3.84344 448.843 2.34315 450.343C0.842855 451.843 0 453.878 0 456C0 458.122 0.842855 460.157 2.34315 461.657C3.84344 463.157 5.87827 464 8 464ZM176 416C183.911 416 191.645 418.346 198.223 422.741C204.801 427.136 209.928 433.384 212.955 440.693C215.983 448.002 216.775 456.044 215.231 463.804C213.688 471.563 209.878 478.69 204.284 484.284C198.69 489.878 191.563 493.688 183.804 495.231C176.044 496.775 168.002 495.983 160.693 492.955C153.384 489.928 147.136 484.801 142.741 478.223C138.346 471.645 136 463.911 136 456C136 445.391 140.214 435.217 147.716 427.716C155.217 420.214 165.391 416 176 416Z" fill="#EA5050"/>
</g>
<defs>
<clipPath id="clip0_220_805">
<rect width="512" height="512" fill="white"/>
</clipPath>
</defs>
</svg>
