<svg width="512" height="512" viewBox="0 0 512 512" fill="none" xmlns="http://www.w3.org/2000/svg">
<g clip-path="url(#clip0_220_762)">
<path d="M457.371 97.9367H473.19C478.709 97.9367 483.184 93.4617 483.184 87.9433C483.184 82.4249 478.709 77.9498 473.19 77.9498H435.215C429.697 77.9498 425.222 82.4249 425.222 87.9433V125.918C425.222 131.437 429.697 135.912 435.215 135.912C440.734 135.912 445.209 131.437 445.209 125.918V114.923C475.531 155.517 492.013 204.772 492.013 256C492.013 386.139 386.139 492.013 256 492.013C125.861 492.013 19.9869 386.139 19.9869 256C19.9869 125.861 125.861 19.9869 256 19.9869C265.625 19.9869 275.311 20.5715 284.793 21.7237C290.265 22.3853 295.254 18.4889 295.92 13.0095C296.586 7.53106 292.685 2.54833 287.206 1.88276C276.926 0.633584 266.428 0 256 0C187.62 0 123.332 26.6285 74.9808 74.9808C26.6285 123.332 0 187.62 0 256C0 324.38 26.6285 388.668 74.9808 437.019C123.332 485.371 187.62 512 256 512C324.38 512 388.668 485.371 437.019 437.019C485.371 388.668 512 324.38 512 256C512 198.297 492.723 142.901 457.371 97.9367Z" fill="#EA5050"/>
<path d="M108.402 150.914C103.738 147.962 97.5649 149.351 94.6118 154.012C71.7978 190.044 61.6984 233.378 66.1745 276.031C70.7165 319.316 90.1987 360.136 121.032 390.97C158.243 428.181 207.122 446.787 256.002 446.787C304.882 446.787 353.76 428.182 390.971 390.97C465.393 316.548 465.393 195.454 390.971 121.033C360.185 90.2468 319.432 70.7715 276.219 66.1945C233.645 61.6825 190.358 71.7029 154.341 94.405C149.671 97.3481 148.273 103.519 151.215 108.188C154.158 112.858 160.329 114.256 164.998 111.314C232.891 68.522 320.001 78.3286 376.838 135.165C443.467 201.795 443.467 310.207 376.838 376.837C310.209 443.467 201.794 443.467 135.166 376.837C79.115 320.785 69.1615 231.571 111.5 164.705C114.451 160.041 113.065 153.867 108.402 150.914Z" fill="#AAAAAA"/>
<path d="M385.915 266.155H398.239C403.758 266.155 408.233 261.68 408.233 256.162C408.233 250.644 403.758 246.168 398.239 246.168H385.915C380.397 246.168 375.922 250.644 375.922 256.162C375.922 261.68 380.396 266.155 385.915 266.155Z" fill="#EA5050"/>
<path d="M103.766 255.838C103.766 261.357 108.241 265.832 113.759 265.832H126.083C131.601 265.832 136.076 261.357 136.076 255.838C136.076 250.32 131.601 245.845 126.083 245.845H113.759C108.241 245.845 103.766 250.319 103.766 255.838Z" fill="#EA5050"/>
<path d="M266.155 126.084V113.76C266.155 108.242 261.68 103.767 256.161 103.767C250.643 103.767 246.168 108.242 246.168 113.76V126.084C246.168 131.603 250.643 136.078 256.161 136.078C261.68 136.078 266.155 131.603 266.155 126.084Z" fill="#EA5050"/>
<path d="M245.844 385.916V398.24C245.844 403.758 250.319 408.233 255.837 408.233C261.356 408.233 265.831 403.758 265.831 398.24V385.916C265.831 380.397 261.356 375.922 255.837 375.922C250.319 375.922 245.844 380.396 245.844 385.916Z" fill="#EA5050"/>
<path d="M205.908 191.775C202.005 187.874 195.679 187.874 191.774 191.775C187.872 195.678 187.872 202.005 191.774 205.909L225.643 239.778C223.048 244.614 221.572 250.138 221.572 256C221.572 274.984 237.016 290.427 255.999 290.427C274.983 290.427 290.427 274.984 290.427 256C290.427 250.138 288.95 244.614 286.355 239.778L354.694 171.44C358.596 167.537 358.596 161.209 354.694 157.306C350.79 153.404 344.464 153.404 340.56 157.306L272.222 225.644C267.385 223.049 261.861 221.573 255.999 221.573C250.137 221.573 244.614 223.05 239.777 225.644L205.908 191.775ZM270.44 256C270.44 263.963 263.962 270.441 255.999 270.441C248.037 270.441 241.559 263.963 241.559 256C241.559 248.037 248.037 241.559 255.999 241.559C263.962 241.559 270.44 248.037 270.44 256Z" fill="#AAAAAA"/>
<path d="M135.16 135.159C137.029 133.3 138.097 130.722 138.097 128.094C138.097 125.466 137.029 122.897 135.16 121.029C133.302 119.171 130.732 118.1 128.095 118.1C125.467 118.1 122.888 119.17 121.03 121.029C119.172 122.887 118.102 125.466 118.102 128.094C118.102 130.732 119.171 133.3 121.03 135.159C122.888 137.017 125.467 138.087 128.095 138.087C130.732 138.087 133.302 137.017 135.16 135.159Z" fill="#AAAAAA"/>
<path d="M325.224 29.8585C327.863 29.8585 330.442 28.7982 332.299 26.9304C334.158 25.0716 335.228 22.5023 335.228 19.865C335.228 17.2367 334.159 14.6584 332.299 12.7997C330.442 10.9419 327.863 9.87158 325.224 9.87158C322.596 9.87158 320.017 10.9409 318.16 12.7997C316.301 14.6584 315.23 17.2367 315.23 19.865C315.23 22.5033 316.3 25.0716 318.16 26.9304C320.017 28.7982 322.596 29.8585 325.224 29.8585Z" fill="#EA5050"/>
</g>
<defs>
<clipPath id="clip0_220_762">
<rect width="512" height="512" fill="white"/>
</clipPath>
</defs>
</svg>
