<svg width="512" height="512" viewBox="0 0 512 512" fill="none" xmlns="http://www.w3.org/2000/svg">
<g clip-path="url(#clip0_220_727)">
<path d="M93.8648 315.733C72.6571 315.733 55.4648 332.926 55.4648 354.133C55.4648 375.341 72.6571 392.533 93.8648 392.533C115.073 392.533 132.265 375.341 132.265 354.133C132.218 332.945 115.053 315.78 93.8648 315.733ZM93.8648 375.467C82.0828 375.467 72.5315 365.915 72.5315 354.133C72.5315 342.351 82.0828 332.8 93.8648 332.8C105.647 332.8 115.198 342.351 115.198 354.133C115.198 365.915 105.647 375.467 93.8648 375.467Z" fill="#EA5050"/>
<path d="M294.399 512H465.066C488.63 512 507.732 492.897 507.732 469.333V142.165C507.814 131.064 503.487 120.383 495.7 112.469L409.94 12.4587C401.851 4.36926 390.851 -0.132597 379.412 -0.036329C367.972 0.0599388 357.05 4.74627 349.098 12.9706L329.215 36.1813C246.442 25.6 180.906 51.2 175.444 133.803C140.116 138.837 104.362 148.139 91.3056 165.547C89.5136 167.936 91.3056 163.755 74.751 238.933H38.399C19.5476 238.933 4.26562 254.215 4.26562 273.067C4.34735 288.301 14.5144 301.636 29.183 305.749C24.0885 313.855 21.3687 323.226 21.3323 332.8V375.467C21.3571 397.143 35.0291 416.455 55.4656 423.68V486.4C55.4656 500.538 66.9271 512 81.0656 512H132.266C146.404 512 157.866 500.538 157.866 486.4V426.667H251.732V469.333C251.732 492.897 270.835 512 294.399 512ZM251.732 375.467H191.999C187.286 375.467 183.466 371.646 183.466 366.933V341.333C183.466 336.621 187.286 332.8 191.999 332.8H251.732V375.467ZM361.642 24.576C371.446 14.7306 387.314 14.5034 397.396 24.064L482.73 124.075C487.689 128.8 490.547 135.316 490.666 142.165V162.133H465.066C460.353 162.133 456.532 165.954 456.532 170.667C456.532 175.379 460.353 179.2 465.066 179.2H490.666V469.333C490.666 483.472 479.204 494.933 465.066 494.933H294.399C280.26 494.933 268.799 483.472 268.799 469.333V179.2H277.332C282.045 179.2 285.866 175.379 285.866 170.667C285.866 165.954 282.045 162.133 277.332 162.133H268.799V142.165C268.779 135.138 271.649 128.411 276.735 123.563L336.468 54.3573C344.234 55.6373 350.463 56.9173 354.73 57.9413C353.865 70.3513 362.046 81.5869 374.123 84.5731C386.199 87.5593 398.674 81.4316 403.692 70.0486C408.711 58.6656 404.819 45.3226 394.469 38.4217C384.118 31.5207 370.305 33.0596 361.727 42.0693C358.996 41.3867 354.815 40.3627 349.354 39.3387L361.642 24.576ZM371.199 59.7333C371.199 55.0205 375.019 51.2 379.732 51.2C384.445 51.2 388.266 55.0205 388.266 59.7333C388.266 64.4462 384.445 68.2667 379.732 68.2667C375.019 68.2667 371.199 64.4462 371.199 59.7333ZM315.732 51.8827C256.426 121.088 257.791 118.016 254.292 128.085C242.772 128.085 218.879 128.853 192.682 131.669C198.57 65.792 249.599 46.336 315.732 51.8827ZM106.068 174.507C124.159 154.283 201.044 146.005 251.732 145.067V264.533C195.372 265.257 139.147 270.249 83.5403 279.467L106.068 174.507ZM21.3323 273.067C21.3323 263.641 28.9733 256 38.399 256H71.0816L65.535 281.6C57.9286 282.816 50.6948 285.733 44.3723 290.133H38.399C28.9733 290.133 21.3323 282.492 21.3323 273.067ZM140.799 486.4C140.799 491.113 136.978 494.933 132.266 494.933H81.0656C76.3528 494.933 72.5323 491.113 72.5323 486.4V426.667H140.799V486.4ZM72.5323 409.6C53.681 409.6 38.399 394.318 38.399 375.467V332.8C38.399 313.949 53.681 298.667 72.5323 298.667C131.694 288.053 191.631 282.345 251.732 281.6V315.733H191.999C177.86 315.733 166.399 327.195 166.399 341.333V366.933C166.399 381.072 177.86 392.533 191.999 392.533H251.732V409.6H72.5323Z" fill="#AAAAAA"/>
<path d="M311.467 179.2H328.534C333.246 179.2 337.067 175.379 337.067 170.667C337.067 165.954 333.246 162.133 328.534 162.133H311.467C306.754 162.133 302.934 165.954 302.934 170.667C302.934 175.379 306.754 179.2 311.467 179.2Z" fill="#EA5050"/>
<path d="M362.666 179.2H379.733C384.446 179.2 388.266 175.379 388.266 170.667C388.266 165.954 384.446 162.133 379.733 162.133H362.666C357.953 162.133 354.133 165.954 354.133 170.667C354.133 175.379 357.953 179.2 362.666 179.2Z" fill="#EA5050"/>
<path d="M413.865 179.2H430.932C435.645 179.2 439.465 175.379 439.465 170.667C439.465 165.954 435.645 162.133 430.932 162.133H413.865C409.153 162.133 405.332 165.954 405.332 170.667C405.332 175.379 409.153 179.2 413.865 179.2Z" fill="#EA5050"/>
<path d="M307.199 256C307.199 270.139 318.661 281.6 332.799 281.6C346.938 281.6 358.399 270.139 358.399 256C358.399 241.862 346.938 230.4 332.799 230.4C318.661 230.4 307.199 241.862 307.199 256ZM341.333 256C341.333 260.713 337.512 264.533 332.799 264.533C328.086 264.533 324.266 260.713 324.266 256C324.266 251.287 328.086 247.467 332.799 247.467C337.512 247.467 341.333 251.287 341.333 256Z" fill="#EA5050"/>
<path d="M435.198 349.867C421.059 349.867 409.598 361.328 409.598 375.467C409.598 389.605 421.059 401.067 435.198 401.067C449.336 401.067 460.798 389.605 460.798 375.467C460.798 361.328 449.336 349.867 435.198 349.867ZM435.198 384C430.485 384 426.664 380.18 426.664 375.467C426.664 370.754 430.485 366.933 435.198 366.933C439.91 366.933 443.731 370.754 443.731 375.467C443.731 380.18 439.91 384 435.198 384Z" fill="#EA5050"/>
<path d="M300.373 376.149C293.947 383.091 291.873 393.01 294.978 401.945C298.084 410.879 305.863 417.374 315.209 418.833C324.555 420.293 333.944 416.48 339.626 408.917L467.626 255.317C474.316 247.375 475.545 236.177 470.737 226.972C465.929 217.768 456.036 212.38 445.695 213.333C439.014 213.971 432.867 217.26 428.629 222.464L300.373 376.149ZM447.231 230.4C450.683 230.069 453.992 231.86 455.603 234.931C457.214 238.003 456.805 241.743 454.57 244.395L326.57 397.995C323.554 401.624 318.167 402.12 314.538 399.104C310.909 396.088 310.412 390.701 313.429 387.072L441.429 233.472C442.876 231.715 444.965 230.609 447.231 230.4Z" fill="#EA5050"/>
</g>
<defs>
<clipPath id="clip0_220_727">
<rect width="512" height="512" fill="white"/>
</clipPath>
</defs>
</svg>
