<svg width="70" height="70" viewBox="0 0 70 70" fill="none" xmlns="http://www.w3.org/2000/svg">
<path d="M35.848 30.6656H35.205H21.6057L10.7559 45.5873L35.6451 70L36.6705 68.9939L60.5322 45.5873L49.6843 30.6656H35.848ZM47.279 33.5987L45.2753 42.5003L38.1852 33.5987H47.279ZM35.5446 34.4467L43.2586 44.126H27.9953L35.5446 34.4467ZM32.915 33.5987L26.0021 42.4641V42.4663L24.011 33.5988H32.915V33.5987ZM21.7639 35.4315L23.7186 44.126H15.4407L21.7639 35.4315ZM24.5068 46.7237L31.3513 61.6837L16.0986 46.7237H24.5068ZM35.6451 64.8282L27.3608 46.7237H43.9272L35.6451 64.8282ZM39.9367 61.6837L46.7812 46.7237H55.1873L39.9367 61.6837ZM47.5696 44.126L49.5264 35.4315L55.8475 44.126H47.5696Z" fill="#EA5050"/>
<path d="M68.5259 24.87C64.984 24.87 63.76 23.9813 63.07 23.2934C62.3842 22.6034 61.4935 21.3794 61.4935 17.8375C61.4935 17.703 61.4806 17.3206 61.0576 17.3206C60.6368 17.3206 60.6217 17.703 60.6217 17.8375C60.6217 21.3794 59.7309 22.6034 59.043 23.2934C58.353 23.9813 57.1268 24.87 53.5892 24.87C53.4525 24.87 53.0723 24.8849 53.0723 25.3079C53.0723 25.7287 53.4525 25.7437 53.5892 25.7437C57.1268 25.7437 58.353 26.6346 59.043 27.3224C59.7309 28.0102 60.6217 29.2365 60.6217 32.7783C60.6217 32.915 60.6366 33.2932 61.0576 33.2932C61.4806 33.2932 61.4935 32.915 61.4935 32.7783C61.4935 29.2365 62.3843 28.0102 63.07 27.3224C63.76 26.6324 64.984 25.7437 68.5259 25.7437C68.6626 25.7437 69.0428 25.7309 69.0428 25.3058C69.0428 24.887 68.6626 24.87 68.5259 24.87Z" fill="#EA5050"/>
<path d="M15.8441 11.5741C20.7125 11.5741 22.3959 12.8003 23.3423 13.7445C24.2886 14.6908 25.5105 16.3763 25.5105 21.2447C25.5105 21.4305 25.5362 21.9518 26.1129 21.9518C26.6939 21.9518 26.711 21.4305 26.711 21.2447C26.711 16.3763 27.9351 14.6907 28.8814 13.7445C29.8256 12.7981 31.509 11.5741 36.3796 11.5741C36.5654 11.5741 37.0889 11.557 37.0889 10.9759C37.0889 10.3991 36.5656 10.3735 36.3796 10.3735C31.509 10.3735 29.8256 9.15154 28.8814 8.20736C27.9351 7.25881 26.711 5.57771 26.711 0.70916C26.711 0.523359 26.6939 0 26.1129 0C25.5361 0 25.5105 0.523359 25.5105 0.709297C25.5105 5.57771 24.2885 7.25894 23.3423 8.2075C22.3959 9.15168 20.7126 10.3737 15.8441 10.3737C15.6583 10.3737 15.1348 10.3972 15.1348 10.9761C15.1348 11.5527 15.6581 11.5741 15.8441 11.5741Z" fill="#EA5050"/>
<path d="M15.6479 26.7969C15.6479 26.4103 15.2975 26.3952 15.1736 26.3952C11.9159 26.3952 10.7879 25.5771 10.1556 24.9448C9.52328 24.3103 8.70297 23.1845 8.70297 19.9268C8.70297 19.8029 8.69012 19.4525 8.30129 19.4525C7.9167 19.4525 7.89961 19.8029 7.89961 19.9268C7.89961 23.1845 7.08148 24.3104 6.44916 24.9448C5.81465 25.5771 4.68672 26.3952 1.43117 26.3952C1.30525 26.3954 0.957031 26.4103 0.957031 26.7969C0.957031 27.1835 1.30525 27.1986 1.43131 27.1986C4.68699 27.1986 5.81492 28.0189 6.4493 28.6512C7.08162 29.2835 7.89975 30.4115 7.89975 33.6714C7.89975 33.7953 7.91684 34.1435 8.30143 34.1435C8.69025 34.1435 8.70311 33.7953 8.70311 33.6714C8.70311 30.4115 9.52342 29.2835 10.1557 28.6512C10.7881 28.0167 11.916 27.1986 15.1737 27.1986C15.2976 27.1986 15.6479 27.1857 15.6479 26.7969Z" fill="#EA5050"/>
</svg>
