<svg width="512" height="512" viewBox="0 0 512 512" fill="none" xmlns="http://www.w3.org/2000/svg">
<g clip-path="url(#clip0_220_672)">
<path d="M499.027 394.24C493.459 388.352 486.249 384.256 478.334 382.507L470.441 330.453C469.097 321.877 464.702 314.069 458.067 308.48C451.539 302.827 443.241 299.648 434.601 299.52H412.841V275.712V262.827V240.661V13.2267C412.798 5.93067 406.91 0.0426667 399.614 0H92.8408C89.3421 0.0853333 86.0141 1.45067 83.4541 3.84L3.88081 83.6267C1.34214 86.08 -0.0658597 89.4933 0.0408069 93.0133V498.773C0.0834736 499.861 0.211474 500.928 0.467474 501.973C0.595474 502.315 0.723474 502.656 0.89414 502.976C1.10747 503.573 1.34214 504.171 1.64081 504.725L1.74747 504.96C2.13147 505.92 2.70747 506.795 3.45414 507.52L3.66747 507.712C3.94481 508.011 4.26481 508.288 4.58481 508.544C4.99014 508.907 5.35281 509.312 5.80081 509.653C6.31281 509.952 6.82481 510.208 7.37947 510.443C7.78481 510.677 8.19014 510.891 8.61681 511.061C10.0888 511.659 11.6675 511.979 13.2675 512H399.614C401.662 511.979 403.667 511.467 405.481 510.528C406.057 510.315 406.59 510.016 407.081 509.653C407.657 509.419 408.169 509.056 408.574 508.587C409.641 507.52 410.409 506.24 411.091 504.917C404.329 500.203 399.273 493.355 396.585 485.397V495.701H16.4675V262.805V99.0933H84.2861C92.4355 99.0933 99.0275 92.5013 99.0275 84.352V16.4267H396.414V240.661V262.805V275.712V299.52H311.507C302.782 299.755 294.291 302.421 286.974 307.2C279.529 311.659 273.534 318.187 269.694 325.973L244.094 381.227H223.614C199.294 381.376 179.603 401.067 179.454 425.387V472.96C179.369 477.461 182.931 481.173 187.433 481.28H187.561H220.201C221.267 486.464 223.443 491.328 226.601 495.573H290.174C290.409 495.339 290.558 495.04 290.601 494.72C293.331 490.645 295.294 486.08 296.361 481.28H395.134C395.561 482.987 395.987 484.48 396.414 485.973V484.864C395.219 481.109 394.387 477.184 394.387 473.024C394.387 477.184 395.219 481.131 396.585 485.397C399.273 493.355 404.307 500.181 411.091 504.917C413.225 506.389 415.507 507.691 417.918 508.736C418.942 509.184 420.051 509.44 421.118 509.781C424.915 511.04 428.905 511.893 433.321 511.915C437.63 511.915 441.705 511.04 445.587 509.76C445.907 509.653 446.249 509.568 446.569 509.461C450.515 508.032 454.099 505.984 457.769 503.061C464.51 497.579 469.459 490.005 471.358 481.195C471.934 478.549 472.254 475.797 472.254 472.981C472.254 475.797 471.913 478.549 471.358 481.195H503.657C508.179 481.259 511.913 477.653 511.977 473.131C511.977 473.045 511.977 472.96 511.977 472.875V425.387C511.977 413.696 507.326 402.496 499.027 394.24ZM82.5155 82.5813H28.2008L82.5155 28.032V82.5813ZM368.467 315.947H396.414H412.841H434.601C444.243 316.352 452.371 323.328 454.227 332.8L461.694 381.227H412.841H396.414H368.467V315.947ZM284.627 333.013C290.11 323.115 300.222 316.693 311.507 315.947H352.041V381.227H262.014L284.627 333.013ZM277.374 484.779C274.238 490.091 268.947 493.803 262.889 494.976C250.835 497.472 239.038 489.728 236.521 477.675C234.003 465.621 241.769 453.803 253.822 451.307C265.875 448.811 277.673 456.555 280.19 468.608C281.342 474.155 280.339 479.936 277.374 484.779ZM454.654 478.528C454.163 480.32 453.609 482.091 452.713 483.648C452.243 484.501 451.667 485.269 451.091 486.059C447.657 490.752 442.622 493.675 436.969 494.891C433.278 495.68 429.139 495.211 425.598 493.909C425.15 493.76 424.702 493.675 424.275 493.504C421.779 492.395 419.518 490.88 417.619 489.003C412.713 484.181 410.281 477.056 411.177 470.251C412.137 462.933 416.958 456.256 423.593 453.013C424.211 452.693 424.873 452.416 425.534 452.16C433.129 449.109 441.918 450.987 447.998 456.384C450.643 458.731 452.585 461.739 453.907 465.003C454.526 466.581 454.782 468.267 455.038 469.952C455.187 471.104 455.593 472.299 455.529 473.451C455.422 475.072 455.123 476.757 454.654 478.528ZM454.441 466.069C454.462 466.133 454.505 466.176 454.526 466.24C454.547 466.283 454.526 466.325 454.547 466.368C454.505 466.261 454.462 466.155 454.441 466.069ZM495.614 464.832H471.358C471.635 466.155 471.657 467.563 471.806 468.907C471.657 467.563 471.635 466.176 471.358 464.853C471.251 464.299 471.017 463.808 470.867 463.275C470.718 462.741 470.633 462.187 470.441 461.653C470.398 461.504 470.291 461.397 470.249 461.248C469.033 457.408 467.326 453.781 465.043 450.56C464.894 450.347 464.702 450.155 464.531 449.941C462.419 447.104 459.923 444.587 457.15 442.411C456.723 442.069 456.339 441.685 455.891 441.365C452.99 439.296 449.79 437.696 446.398 436.459C445.715 436.224 445.033 436.032 444.329 435.819C440.809 434.773 437.161 434.048 433.321 434.048C416.574 434.048 401.321 445.483 396.35 461.397C396.35 461.419 396.35 461.44 396.329 461.461C395.923 462.592 395.39 463.68 395.134 464.832H296.361C294.569 456.491 290.153 448.939 283.774 443.285C276.585 437.291 267.518 434.048 258.174 434.112C239.806 433.941 223.87 446.827 220.201 464.832H195.881V425.365C195.838 409.984 208.254 397.483 223.614 397.419H396.414H412.841H467.667C483.091 397.461 495.571 409.941 495.614 425.365V464.832Z" fill="#AAAAAA"/>
<path d="M43.7119 140.331H180.245C184.768 140.565 188.629 137.067 188.864 132.544C189.099 128.021 185.621 124.16 181.077 123.925C180.8 123.904 180.523 123.904 180.245 123.925H43.7119C39.1892 124.16 35.6905 128.021 35.9252 132.544C36.1385 136.747 39.5092 140.117 43.7119 140.331Z" fill="#AAAAAA"/>
<path d="M43.7094 184.043H180.243C184.787 184.043 188.456 180.373 188.456 175.829C188.456 171.285 184.787 167.616 180.243 167.616H43.7094C39.1654 167.616 35.4961 171.285 35.4961 175.829C35.4961 180.373 39.1654 184.043 43.7094 184.043Z" fill="#AAAAAA"/>
<path d="M43.7119 211.328C39.1892 211.563 35.6905 215.424 35.9252 219.947C36.1385 224.149 39.5092 227.52 43.7119 227.733H183.68C188.203 227.499 191.701 223.637 191.467 219.115C191.253 214.912 187.883 211.541 183.68 211.328H43.7119Z" fill="#AAAAAA"/>
<path d="M215.934 216.96C215.934 221.547 219.667 225.28 224.254 225.28C228.883 225.28 232.68 221.589 232.787 216.96C232.787 180.971 261.971 151.787 297.96 151.787C333.95 151.787 363.134 180.971 363.134 216.96C363.88 221.611 368.254 224.789 372.904 224.043C376.552 223.467 379.411 220.608 379.987 216.96C379.859 183.851 359.955 154.027 329.427 141.227C352.574 123.797 357.203 90.8801 339.774 67.7334C322.344 44.5867 289.427 39.9574 266.28 57.3867C243.134 74.8161 238.504 107.733 255.934 130.88C258.878 134.805 262.376 138.283 266.28 141.227C235.838 154.112 216.019 183.915 215.934 216.96ZM262.227 99.0721V98.9867C262.291 79.2534 278.334 63.2961 298.067 63.3601C317.8 63.4241 333.758 79.4667 333.694 99.2001C333.63 118.933 317.587 134.891 297.854 134.827C278.142 134.784 262.184 118.784 262.227 99.0721Z" fill="#EA5050"/>
<path d="M113.704 417.6C160.382 417.6 198.206 379.776 198.206 333.099C198.206 286.421 160.382 248.597 113.704 248.597C67.0271 248.597 29.2031 286.421 29.2031 333.099C29.2458 379.755 67.0485 417.557 113.704 417.6ZM113.704 264.939C151.358 264.917 181.864 295.424 181.886 333.077C181.907 370.731 151.4 401.237 113.747 401.259C76.1365 401.28 45.6298 370.816 45.5658 333.205C45.5658 295.552 76.0511 265.003 113.704 264.939Z" fill="#EA5050"/>
<path d="M105.491 340.267V359.467C102.014 358.187 99.5607 355.029 99.1767 351.339C99.3473 346.816 95.8273 342.997 91.3047 342.805C86.782 342.635 82.942 346.155 82.7713 350.699C82.75 350.976 82.7713 351.253 82.7713 351.509C83.6033 364.224 92.99 374.72 105.513 376.981V384.235C105.278 388.757 108.777 392.619 113.299 392.853C117.822 393.088 121.683 389.589 121.918 385.067C121.939 384.789 121.939 384.512 121.918 384.235V376.981C134.483 374.677 143.849 364.117 144.617 351.381C143.827 338.645 134.398 328.128 121.811 325.973V306.773C125.331 308.032 127.827 311.211 128.211 314.923C128.254 319.445 131.966 323.072 136.489 323.029C141.011 322.987 144.638 319.275 144.595 314.752C143.763 302.059 134.398 291.563 121.897 289.28V282.048C121.662 277.525 117.801 274.027 113.278 274.261C109.075 274.475 105.705 277.845 105.491 282.048V289.28C92.926 291.563 83.5393 302.123 82.75 314.88C83.518 327.595 92.9473 338.112 105.491 340.267ZM121.811 343.211C125.331 344.469 127.827 347.627 128.211 351.339C127.785 355.029 125.31 358.165 121.811 359.445V343.211ZM105.577 306.731V322.88C102.099 321.621 99.6247 318.507 99.1767 314.837C99.582 311.125 102.057 307.989 105.577 306.731Z" fill="#EA5050"/>
</g>
<defs>
<clipPath id="clip0_220_672">
<rect width="512" height="512" fill="white"/>
</clipPath>
</defs>
</svg>
