<svg height="512" viewBox="0 0 59 60" width="512" xmlns="http://www.w3.org/2000/svg"><g id="054---Car-Sales" transform="translate(0 -1)"><path id="Shape" d="m10.5 38c-2.48528137 0-4.5 2.0147186-4.5 4.5s2.01471863 4.5 4.5 4.5c2.4852814 0 4.5-2.0147186 4.5-4.5-.0054995-2.4829999-2.0170001-4.4945005-4.5-4.5zm0 7c-1.38071187 0-2.5-1.1192881-2.5-2.5s1.11928813-2.5 2.5-2.5c1.3807119 0 2.5 1.1192881 2.5 2.5s-1.1192881 2.5-2.5 2.5z"/><path id="Shape" d="m34 61h20c2.7614237 0 5-2.2385763 5-5v-38.34c.0096198-1.3009944-.4975048-2.5526211-1.41-3.48l-10.05-11.72c-.9479931-.94797495-2.23697-1.47553668-3.5775744-1.46425529-1.3406043.01128138-2.6205204.56046072-3.5524256 1.52425529l-2.33 2.72c-9.7-1.24-17.38 1.76-18.02 11.44-4.14.59-8.33 1.68-9.86 3.72-.21.28 0-.21-1.94 8.6h-4.26c-2.209139 0-4 1.790861-4 4 .0095768 1.7852392 1.20103212 3.3480042 2.92 3.83-.59700579.9498726-.91573474 2.0481017-.92 3.17v5c.00290243 2.540182 1.6050913 4.8032738 4 5.65v7.35c0 1.6568542 1.34314575 3 3 3h6c1.6568542 0 3-1.3431458 3-3v-7h11v5c0 2.7614237 2.2385763 5 5 5zm-5-16h-7c-.5522847 0-1-.4477153-1-1v-3c0-.5522847.4477153-1 1-1h7zm12.88-41.12c1.1489521-1.153758 3.0084826-1.18038612 4.19-.06l10 11.72c.5811535.5537787.9161244 1.3173683.93 2.12v2.34h-3c-.5522847 0-1 .4477153-1 1s.4477153 1 1 1h3v34c0 1.6568542-1.3431458 3-3 3h-20c-1.6568542 0-3-1.3431458-3-3v-34h1c.5522847 0 1-.4477153 1-1s-.4477153-1-1-1h-1v-2.34c-.0023498-.8235109.3339295-1.6117785.93-2.18l7-8.11c.91.15 1.64.3 2.14.42-.1013802 1.45429786.8573977 2.770966 2.2726005 3.1209109 1.4152027.3499449 2.877126-.3681432 3.4652105-1.702091.5880845-1.33394783.1320786-2.89757462-1.0808752-3.70627935s-2.8317027-.62836564-3.8369358.42745945c-.32-.08-.81-.2-1.45-.32zm1.12 4.12c0-.55228475.4477153-1 1-1s1 .44771525 1 1-.4477153 1-1 1-1-.44771525-1-1zm-6.5-.92c-6.95 8.11-6.79 7.75-7.2 8.93-1.35 0-4.15.09-7.22.42.69-7.72 6.67-10 14.42-9.35zm-24.57 14.37c2.12-2.37 11.13-3.34 17.07-3.45v14c-6.6047643.0847878-13.1936162.6697949-19.71 1.75zm-9.93 11.55c0-1.1045695.8954305-2 2-2h3.83l-.65 3c-.89136567.1425335-1.7390826.4843548-2.48 1h-.7c-1.1045695 0-2-.8954305-2-2zm14 25c0 .5522847-.4477153 1-1 1h-6c-.55228475 0-1-.4477153-1-1v-7h8zm-8-9c-2.209139 0-4-1.790861-4-4v-5c0-2.209139 1.790861-4 4-4 6.9329925-1.243737 13.9568728-1.912678 21-2v4h-7c-1.6568542 0-3 1.3431458-3 3v3c0 1.6568542 1.3431458 3 3 3h7v2z"/><path id="Shape" d="m36 22h2c.5522847 0 1-.4477153 1-1s-.4477153-1-1-1h-2c-.5522847 0-1 .4477153-1 1s.4477153 1 1 1z"/><path id="Shape" d="m42 22h2c.5522847 0 1-.4477153 1-1s-.4477153-1-1-1h-2c-.5522847 0-1 .4477153-1 1s.4477153 1 1 1z"/><path id="Shape" d="m48 22h2c.5522847 0 1-.4477153 1-1s-.4477153-1-1-1h-2c-.5522847 0-1 .4477153-1 1s.4477153 1 1 1z"/><path id="Shape" d="m35.5 31c0 1.6568542 1.3431458 3 3 3s3-1.3431458 3-3-1.3431458-3-3-3-3 1.3431458-3 3zm4 0c0 .5522847-.4477153 1-1 1s-1-.4477153-1-1 .4477153-1 1-1 1 .4477153 1 1z"/><path id="Shape" d="m50.5 42c-1.6568542 0-3 1.3431458-3 3s1.3431458 3 3 3 3-1.3431458 3-3-1.3431458-3-3-3zm0 4c-.5522847 0-1-.4477153-1-1s.4477153-1 1-1 1 .4477153 1 1-.4477153 1-1 1z"/><path id="Shape" d="m34.7 45.08c-.7530072.813464-.9960862 1.9758636-.6321441 3.0229021.3639421 1.0470386 1.2755883 1.808065 2.3708005 1.979103 1.0952121.171038 2.1954874-.275789 2.8613436-1.1620051l15-18c.784007-.9307869.9280288-2.242988.3645726-3.321667-.5634563-1.0786789-1.7227386-1.7100891-2.9345726-1.598333-.7829532.0747856-1.5032961.4601691-2 1.07zm17.21-17.08c.4045465-.0387916.7923339.1711058.9810713.5310236s.1408816.7982622-.1210713 1.1089764l-15 18c-.3534622.4252593-.9847407.4834622-1.41.13s-.4834622-.9847407-.13-1.41l15-18c.1695828-.2058877.4143922-.3354927.68-.36z"/></g></svg>