<svg id="Layer_1" enable-background="new 0 0 24 24" height="512" viewBox="0 0 24 24" width="512" xmlns="http://www.w3.org/2000/svg"><g><path d="m23.392 18.48c-.261-.276-.599-.468-.97-.55l-.37-2.44c-.063-.402-.269-.768-.58-1.03-.306-.265-.695-.414-1.1-.42h-1.02v-1.116-.604-.001-1.038-10.661c-.002-.342-.278-.618-.62-.62h-14.38c-.164.004-.32.068-.44.18l-3.73 3.74c-.119.115-.185.275-.18.44v19.02c.002.051.008.101.02.15.006.016.012.032.02.047.01.028.021.056.035.082l.005.011c.018.045.045.086.08.12l.01.009c.013.014.028.027.043.039.019.017.036.036.057.052.024.014.048.026.074.037.019.011.038.021.058.029.069.028.143.043.218.044h18.11c.096-.001.19-.025.275-.069.027-.01.052-.024.075-.041.027-.011.051-.028.07-.05.05-.05.086-.11.118-.172-.317-.221-.554-.542-.68-.915v.483h-17.818v-10.917-7.674h3.179c.382 0 .691-.309.691-.691v-.001-3.183h13.94v10.511 1.038.001.604 1.116h-3.98c-.409.011-.807.136-1.15.36-.349.209-.63.515-.81.88l-1.2 2.59h-.96c-1.14.007-2.063.93-2.07 2.07v2.23c-.004.211.163.385.374.39h.006 1.53c.05.243.152.471.3.67h2.98c.011-.011.018-.025.02-.04.128-.191.22-.405.27-.63h4.63c.02.08.04.15.06.22v-.052c-.056-.176-.095-.36-.095-.555 0 .195.039.379.103.579.126.373.363.694.681.916.1.069.206.13.319.179.048.021.1.033.15.049.178.059.365.099.572.1.202 0 .393-.041.575-.101.015-.005.031-.009.046-.014.185-.067.353-.163.525-.3.316-.257.548-.612.637-1.025.027-.124.042-.253.042-.385 0 .132-.016.261-.042.385h1.514c.212.003.387-.166.39-.378 0-.004 0-.008 0-.012v-2.226c0-.548-.218-1.073-.607-1.46zm-19.524-14.609h-2.546l2.546-2.557zm13.404 10.939h1.31.77 1.02c.452.019.833.346.92.79l.35 2.27h-2.29-.77-1.31zm-3.93.8c.257-.464.731-.765 1.26-.8h1.9v3.06h-4.22zm-.34 7.114c-.147.249-.395.423-.679.478-.565.117-1.118-.246-1.236-.811s.246-1.119.811-1.236 1.118.246 1.236.811c.054.26.007.531-.132.758zm8.31-.293c-.023.084-.049.167-.091.24-.022.04-.049.076-.076.113-.161.22-.397.357-.662.414-.173.037-.367.015-.533-.046-.021-.007-.042-.011-.062-.019-.117-.052-.223-.123-.312-.211-.23-.226-.344-.56-.302-.879.045-.343.271-.656.582-.808.029-.015.06-.028.091-.04.356-.143.768-.055 1.053.198.124.11.215.251.277.404.029.074.041.153.053.232.007.054.026.11.023.164-.005.076-.019.155-.041.238zm-.01-.584c.001.003.003.005.004.008.001.002 0 .004.001.006-.002-.005-.004-.01-.005-.014zm1.93-.058h-1.137c.013.062.014.128.021.191-.007-.063-.008-.128-.021-.19-.005-.026-.016-.049-.023-.074s-.011-.051-.02-.076c-.002-.007-.007-.012-.009-.019-.057-.18-.137-.35-.244-.501-.007-.01-.016-.019-.024-.029-.099-.133-.216-.251-.346-.353-.02-.016-.038-.034-.059-.049-.136-.097-.286-.172-.445-.23-.032-.011-.064-.02-.097-.03-.165-.049-.336-.083-.516-.083-.785 0-1.5.536-1.733 1.282 0 .001 0 .002-.001.003-.019.053-.044.104-.056.158h-4.63c-.084-.391-.291-.745-.59-1.01-.337-.281-.762-.433-1.2-.43-.861-.008-1.608.596-1.78 1.44h-1.14v-1.85c-.002-.721.58-1.307 1.3-1.31h8.1.77 2.57c.723.002 1.308.587 1.31 1.31z"/><path d="m2.049 6.578h6.4c.212.011.393-.153.404-.365s-.152-.393-.365-.404c-.013-.001-.026-.001-.039 0h-6.4c-.212.011-.376.192-.365.404.01.197.168.355.365.365z"/><path d="m2.049 8.627h6.4c.213 0 .385-.172.385-.385s-.172-.385-.385-.385h-6.4c-.213 0-.385.172-.385.385s.172.385.385.385z"/><path d="m2.049 9.906c-.212.011-.376.192-.365.404.01.197.168.355.365.365h6.561c.212-.011.376-.192.365-.404-.01-.197-.168-.355-.365-.365z"/><path d="m10.122 10.17c0 .215.175.39.39.39.217 0 .395-.173.4-.39 0-1.687 1.368-3.055 3.055-3.055s3.055 1.368 3.055 3.055c.035.218.24.367.458.332.171-.027.305-.161.332-.332-.006-1.552-.939-2.95-2.37-3.55 1.085-.817 1.302-2.36.485-3.445s-2.36-1.302-3.445-.485-1.302 2.36-.485 3.445c.138.184.302.347.485.485-1.427.604-2.356 2.001-2.36 3.55zm2.17-5.526c0-.001 0-.003 0-.004.003-.925.755-1.673 1.68-1.67s1.673.755 1.67 1.68-.755 1.673-1.68 1.67c-.924-.002-1.672-.752-1.67-1.676z"/><path d="m5.33 19.575c2.188 0 3.961-1.773 3.961-3.961s-1.773-3.961-3.961-3.961-3.961 1.773-3.961 3.961c.002 2.187 1.774 3.959 3.961 3.961zm0-7.156c1.765-.001 3.195 1.429 3.196 3.194s-1.429 3.195-3.194 3.196c-1.763.001-3.193-1.427-3.196-3.19 0-1.765 1.429-3.197 3.194-3.2z"/><path d="m4.945 15.95v.9c-.163-.06-.278-.208-.296-.381.008-.212-.157-.391-.369-.4-.212-.008-.392.157-.4.37-.001.013 0 .026 0 .038.039.596.479 1.088 1.066 1.194v.34c-.011.212.153.393.365.404s.393-.153.404-.365c.001-.013.001-.026 0-.039v-.34c.589-.108 1.028-.603 1.064-1.2-.037-.597-.479-1.09-1.069-1.191v-.9c.165.059.282.208.3.382.002.212.176.382.388.38s.382-.176.38-.388c-.039-.595-.478-1.087-1.064-1.194v-.339c-.011-.212-.192-.376-.404-.365-.197.01-.355.168-.365.365v.339c-.589.107-1.029.602-1.066 1.2.036.596.478 1.089 1.066 1.19zm.765.138c.165.059.282.207.3.381-.02.173-.136.32-.3.38zm-.761-1.71v.757c-.163-.059-.279-.205-.3-.377.019-.174.135-.321.3-.38z"/></g></svg>