<svg width="512" height="512" viewBox="0 0 512 512" fill="none" xmlns="http://www.w3.org/2000/svg">
<g clip-path="url(#clip0_220_654)">
<path d="M415.176 280.881L415.177 251.562C415.177 246.728 411.26 242.809 406.425 242.809C401.592 242.809 397.673 246.727 397.673 251.562L397.672 279.24C333.291 278.051 277.872 333.37 279.029 397.749L216.798 397.729L216.615 329.716C216.615 321.841 207.288 315.632 200.305 314.813C194.523 314.136 188.92 316.137 184.87 320.302C174.895 330.563 156.873 327.713 150.481 314.991C146.587 307.243 147.801 298.043 153.787 289.652C166.932 280.295 178.711 284.231 184.864 290.536C188.877 294.644 194.419 296.667 200.083 296.084C207.088 295.363 216.614 289.212 216.614 281.278V216.626L274.465 216.69C275.558 216.967 276.321 217.185 276.769 217.4C276.63 217.854 276.392 218.499 275.899 219.424C252.393 243.733 270.768 285.087 304.142 285.087C313.296 285.087 322.159 281.968 329.258 276.101C346.469 261.884 347.971 235.36 332.448 219.371C331.964 218.438 331.709 217.759 331.576 217.305C332.013 217.098 332.438 216.83 333.491 216.567L406.153 216.552C410.985 216.551 414.63 212.633 414.63 207.8V33.9069C414.632 15.1806 399.452 0 380.726 0H34.4528C15.4256 0 0 15.4256 0 34.4528V380.769C0 399.996 15.7309 415.727 34.9571 415.727H166.291V414.855C170.667 413.768 172.785 410.679 172.785 406.726C172.785 401.893 169.139 398.222 164.306 398.222H34.4528C25.0924 398.222 17.5043 390.634 17.5043 381.274V216.615H86.7523C94.615 216.615 100.627 206.655 101.362 199.885C101.982 194.173 100.014 188.56 95.9617 184.542C91.8034 180.415 89.5125 174.87 89.5125 168.952C89.5125 155.919 101.717 145.091 114.826 147.687C122.929 149.295 129.663 156.269 131.199 164.652C132.562 172.083 130.367 179.311 125.177 184.481C121.177 188.469 119.188 193.965 119.722 199.566C120.368 206.356 126.317 216.614 134.245 216.614H163.635C168.469 216.614 172.388 212.696 172.388 207.862C172.388 203.029 168.469 199.11 163.635 199.11H137.54C137.31 198.016 137.174 198.327 137.146 198.03C137.098 197.519 137.367 197.106 137.532 196.943C146.731 187.778 150.799 174.519 148.417 161.524C145.572 146.011 133.442 133.546 118.232 130.529C94.3666 125.794 72.0082 144.771 72.0082 168.94C72.0082 179.558 76.1359 189.499 83.6332 196.938C83.8827 197.186 84.0008 197.672 83.9593 198.056C83.9264 198.356 83.7951 198.015 83.5763 199.109H17.5043V34.4604C17.5043 25.0957 25.0957 17.5043 34.4604 17.5043H199.111V82.3226C199.111 89.1383 203.603 96.9748 209.931 99.8083C216.299 102.664 225.997 100.822 230.833 95.7495C234.825 91.5506 240.146 89.239 245.817 89.239C259.432 89.239 268.893 102.425 266.429 115.388C264.843 123.733 258.051 130.649 249.915 132.205C242.79 133.567 235.85 131.351 230.86 126.123C226.034 121.073 216.428 119.169 210.051 121.975C203.55 124.836 199.065 132.822 199.027 139.777L199.111 278.181C199.111 278.493 198.459 278.643 198.195 278.67C197.764 278.705 197.495 278.46 197.344 278.306C183.477 264.099 153.309 260.934 140.167 278.61C129.867 292.455 127.881 308.992 134.841 322.848C146.598 346.243 179.242 351.225 197.446 332.502C197.671 332.271 197.897 332.156 198.221 332.198C198.53 332.234 199.111 332.402 199.111 332.678L199.085 405.425C199.083 410.815 203.415 415.205 208.805 415.274L280.67 415.253C290.044 470.109 337.964 512 395.5 512C459.738 512 512 459.785 512 395.605C512 338.126 470.076 290.25 415.176 280.881ZM217.253 138.481C217.692 138.623 218.322 138.808 219.162 139.255C228.157 148.035 240.779 151.811 253.205 149.433C268.458 146.514 280.683 134.143 283.625 118.676C288.109 95.0865 270.238 71.7402 245.814 71.7402C235.771 71.7402 226.353 75.6119 219.141 82.6771C218.294 83.1169 217.703 83.3608 217.264 83.4987C217.066 83.0578 216.615 82.3762 216.615 81.3708V17.5043H380.726C390.071 17.5043 397.128 25.111 397.128 34.4604V199.051L332.511 199.064C325.749 199.064 317.986 203.826 315.219 210.04C312.373 216.434 314.251 226.145 319.312 231.004C328.346 239.686 327.816 254.585 318.108 262.606C312.992 266.833 306.47 268.451 299.746 267.157C283.284 263.994 277.037 242.611 289.035 231.035C294.065 226.176 295.961 216.574 293.163 210.18C290.355 203.768 282.403 199.087 275.503 199.063L216.615 198.89L216.526 140.824C216.783 139.776 217.046 138.934 217.253 138.481ZM395.5 494.496C340.914 494.496 296.506 450.133 296.506 395.605C296.506 341.077 340.915 296.716 395.5 296.716C450.087 296.716 494.496 341.077 494.496 395.605C494.496 450.133 450.086 494.496 395.5 494.496Z" fill="#AAAAAA"/>
<path d="M309.605 394.44V407.088L364.606 435.26L365.4 435.568V415.008L336.93 400.763L365.4 386.518V365.96L310.023 394.325L309.605 394.44Z" fill="#EA5050"/>
<path d="M371.676 435.419H391.365L421.638 356.914L422.06 355.556H402.259L371.676 435.419Z" fill="#EA5050"/>
<path d="M425.574 365.979V386.534L454.237 400.763L425.574 414.991V435.547L481.369 407.187V394.338L425.574 365.979Z" fill="#EA5050"/>
</g>
<defs>
<clipPath id="clip0_220_654">
<rect width="512" height="512" fill="white"/>
</clipPath>
</defs>
</svg>
