<svg width="70" height="70" viewBox="0 0 70 70" fill="none" xmlns="http://www.w3.org/2000/svg">
<g clip-path="url(#clip0_220_783)">
<path d="M35.8499 30.6656H35.2069H21.6076L10.7578 45.5873L35.647 70L36.6724 68.9939L60.5341 45.5873L49.6862 30.6656H35.8499ZM47.2809 33.5987L45.2772 42.5003L38.1871 33.5987H47.2809ZM35.5465 34.4467L43.2605 44.126H27.9972L35.5465 34.4467ZM32.9169 33.5987L26.004 42.4641V42.4663L24.0129 33.5988L32.9169 33.5987ZM21.7658 35.4315L23.7205 44.126H15.4426L21.7658 35.4315ZM24.5087 46.7237L31.3532 61.6837L16.1005 46.7237H24.5087ZM35.647 64.8282L27.3627 46.7237H43.9291L35.647 64.8282ZM39.9386 61.6837L46.7831 46.7237H55.1892L39.9386 61.6837ZM47.5715 44.126L49.5283 35.4315L55.8494 44.126H47.5715Z" fill="#EA5050"/>
<path d="M68.5278 24.87C64.9859 24.87 63.7619 23.9813 63.0719 23.2934C62.3861 22.6034 61.4954 21.3794 61.4954 17.8375C61.4954 17.703 61.4825 17.3206 61.0595 17.3206C60.6387 17.3206 60.6236 17.703 60.6236 17.8375C60.6236 21.3794 59.7328 22.6034 59.0449 23.2934C58.3549 23.9813 57.1287 24.87 53.5911 24.87C53.4544 24.87 53.0742 24.8849 53.0742 25.3079C53.0742 25.7287 53.4544 25.7437 53.5911 25.7437C57.1287 25.7437 58.3549 26.6346 59.0449 27.3224C59.7328 28.0102 60.6236 29.2365 60.6236 32.7783C60.6236 32.915 60.6385 33.2932 61.0595 33.2932C61.4825 33.2932 61.4954 32.915 61.4954 32.7783C61.4954 29.2365 62.3862 28.0102 63.0719 27.3224C63.7619 26.6324 64.9859 25.7437 68.5278 25.7437C68.6645 25.7437 69.0447 25.7309 69.0447 25.3058C69.0447 24.887 68.6645 24.87 68.5278 24.87Z" fill="#EA5050"/>
<path d="M15.846 11.5741C20.7144 11.5741 22.3978 12.8003 23.3442 13.7445C24.2905 14.6908 25.5124 16.3763 25.5124 21.2447C25.5124 21.4305 25.5381 21.9518 26.1148 21.9518C26.6958 21.9518 26.7129 21.4305 26.7129 21.2447C26.7129 16.3763 27.937 14.6907 28.8833 13.7445C29.8275 12.7981 31.5109 11.5741 36.3815 11.5741C36.5673 11.5741 37.0908 11.557 37.0908 10.9759C37.0908 10.3991 36.5675 10.3735 36.3815 10.3735C31.5109 10.3735 29.8275 9.15154 28.8833 8.20736C27.937 7.25881 26.7129 5.57771 26.7129 0.70916C26.7129 0.523359 26.6958 0 26.1148 0C25.538 0 25.5124 0.523359 25.5124 0.709297C25.5124 5.57771 24.2904 7.25894 23.3442 8.2075C22.3978 9.15168 20.7145 10.3737 15.846 10.3737C15.6602 10.3737 15.1367 10.3972 15.1367 10.9761C15.1367 11.5527 15.66 11.5741 15.846 11.5741Z" fill="#EA5050"/>
<path d="M15.6479 26.7969C15.6479 26.4103 15.2975 26.3952 15.1736 26.3952C11.9159 26.3952 10.7879 25.5771 10.1556 24.9448C9.52328 24.3103 8.70297 23.1845 8.70297 19.9268C8.70297 19.8029 8.69012 19.4525 8.30129 19.4525C7.9167 19.4525 7.89961 19.8029 7.89961 19.9268C7.89961 23.1845 7.08148 24.3104 6.44916 24.9448C5.81465 25.5771 4.68672 26.3952 1.43117 26.3952C1.30525 26.3954 0.957031 26.4103 0.957031 26.7969C0.957031 27.1835 1.30525 27.1986 1.43131 27.1986C4.68699 27.1986 5.81492 28.0189 6.4493 28.6512C7.08162 29.2835 7.89975 30.4115 7.89975 33.6714C7.89975 33.7953 7.91684 34.1435 8.30143 34.1435C8.69025 34.1435 8.70311 33.7953 8.70311 33.6714C8.70311 30.4115 9.52342 29.2835 10.1557 28.6512C10.7881 28.0167 11.916 27.1986 15.1737 27.1986C15.2976 27.1986 15.6479 27.1857 15.6479 26.7969Z" fill="#EA5050"/>
</g>
<defs>
<clipPath id="clip0_220_783">
<rect width="70" height="70" fill="white"/>
</clipPath>
</defs>
</svg>
