<svg id="Capa_1" enable-background="new 0 0 511.416 511.416" height="512" viewBox="0 0 511.416 511.416" width="512" xmlns="http://www.w3.org/2000/svg"><g><g><path d="m238.637 383.616h34.142c4.142 0 7.5-3.357 7.5-7.5s-3.358-7.5-7.5-7.5h-34.142c-4.142 0-7.5 3.357-7.5 7.5s3.358 7.5 7.5 7.5z"/><path d="m312.517 230.26 15.105-19.876c2.506-3.298 1.865-8.003-1.433-10.51-3.297-2.504-8.003-1.865-10.509 1.434l-.902 1.187c-3.448-30.474-29.372-54.238-60.754-54.238-16.062 0-31.235 6.179-42.725 17.398-2.964 2.894-3.02 7.643-.126 10.606 2.894 2.964 7.643 3.019 10.606.126 8.671-8.468 20.123-13.131 32.245-13.131 23.833 0 43.503 18.157 45.907 41.365l-2.519-3.314c-2.506-3.297-7.211-3.938-10.509-1.434-3.298 2.507-3.939 7.212-1.433 10.51l15.105 19.876c1.418 1.866 3.627 2.962 5.971 2.962s4.553-1.094 5.971-2.961z"/><path d="m219.98 223.087c1.582 0 3.176-.498 4.533-1.528 3.298-2.507 3.939-7.212 1.433-10.51l-15.105-19.876c-1.418-1.866-3.627-2.962-5.971-2.962s-4.553 1.096-5.971 2.962l-15.105 19.876c-2.506 3.298-1.865 8.003 1.433 10.51 3.297 2.504 8.003 1.865 10.509-1.434l.902-1.187c3.449 30.475 29.372 54.238 60.753 54.238 16.062 0 31.235-6.18 42.725-17.399 2.963-2.895 3.02-7.643.125-10.606-2.895-2.964-7.643-3.019-10.606-.126-8.671 8.469-20.122 13.132-32.245 13.132-23.832 0-43.502-18.158-45.907-41.365l2.519 3.314c1.477 1.94 3.714 2.961 5.978 2.961z"/><path d="m255.708 111.215c-54.865 0-99.501 44.637-99.501 99.502s44.636 99.501 99.501 99.501c32.764 0 63.427-16.134 82.023-43.158 2.348-3.413 1.485-8.082-1.927-10.431s-8.083-1.486-10.43 1.927c-15.796 22.957-41.84 36.662-69.666 36.662-46.594 0-84.501-37.907-84.501-84.501 0-46.595 37.907-84.502 84.501-84.502s84.501 37.907 84.501 84.502c0 6.121-.657 12.227-1.952 18.146-.885 4.046 1.677 8.044 5.724 8.93 4.048.887 8.044-1.677 8.93-5.725 1.525-6.971 2.298-14.154 2.298-21.352 0-54.865-44.636-99.501-99.501-99.501z"/><path d="m478.592 53.626h-39.196v-17.558c0-10.054-8.18-18.233-18.234-18.233h-182.787c-4.142 0-7.5 3.357-7.5 7.5s3.358 7.5 7.5 7.5h182.786c1.783 0 3.234 1.45 3.234 3.233v33.934h-337.374v-33.934c0-1.783 1.451-3.233 3.234-3.233h113.085c4.142 0 7.5-3.357 7.5-7.5s-3.358-7.5-7.5-7.5h-113.086c-10.054 0-18.234 8.18-18.234 18.233v17.558h-39.196c-18.099 0-32.824 14.724-32.824 32.823v257.482 39.045c0 18.099 14.725 32.823 32.824 32.823h166.774c-.558 17.121-2.264 46.734-6.11 62.78h-25.992c-4.142 0-7.5 3.357-7.5 7.5s3.358 7.5 7.5 7.5h176.424c4.142 0 7.5-3.357 7.5-7.5s-3.358-7.5-7.5-7.5h-25.992c-3.843-16.042-5.551-45.658-6.11-62.78h166.773c18.099 0 32.824-14.725 32.824-32.823v-296.527c.001-18.099-14.724-32.823-32.823-32.823zm-39.196 49.394h22.178c1.971 0 3.574 1.603 3.574 3.573v229.833h-25.751v-233.406zm-352.375-18.018h337.375v251.425h-337.375zm-72.021 1.447c0-9.828 7.996-17.823 17.824-17.823h39.197v19.394h-22.178c-10.242 0-18.574 8.332-18.574 18.573v229.838h-16.269zm57.021 16.571v233.406h-25.752v-229.832c0-1.971 1.604-3.573 3.574-3.573h22.178zm136.813 375.561c3.967-19.423 5.332-49.055 5.767-62.78h82.213c.436 13.726 1.8 43.357 5.767 62.78zm287.582-95.604c0 9.828-7.996 17.823-17.824 17.823h-445.768c-9.828 0-17.824-7.995-17.824-17.823v-31.545h481.416zm0-46.546h-16.269v-229.837c0-10.241-8.332-18.573-18.574-18.573h-22.178v-19.395h39.196c9.828 0 17.824 7.995 17.824 17.823v249.982z"/></g></g></svg>