<svg id="Layer_1" enable-background="new 0 0 468 468" height="512" viewBox="0 0 468 468" width="512" xmlns="http://www.w3.org/2000/svg"><g><path d="m379.497 256.743.001-26.8c0-4.418-3.581-8-8-8-4.418 0-8 3.581-8 8l-.001 25.3c-58.848-1.087-109.505 49.478-108.447 108.324l-56.883-.018-.167-62.168c0-7.198-8.526-12.874-14.909-13.622-5.285-.619-10.406 1.21-14.108 5.017-9.118 9.379-25.591 6.774-31.434-4.855-3.559-7.082-2.45-15.491 3.022-23.161 12.015-8.553 22.782-4.955 28.406.808 3.668 3.755 8.734 5.604 13.911 5.071 6.403-.659 15.111-6.281 15.111-13.533v-59.096l52.879.058c.999.253 1.697.453 2.106.649-.127.415-.344 1.005-.795 1.85-21.486 22.22-4.69 60.02 25.816 60.02 8.367 0 16.468-2.851 22.957-8.213 15.732-12.996 17.105-37.24 2.916-51.855-.442-.853-.675-1.474-.797-1.889.4-.189.788-.434 1.751-.674l66.417-.014c4.417-.001 7.749-3.582 7.749-8v-158.949c.002-17.117-13.874-30.993-30.991-30.993h-316.515c-17.392 0-31.492 14.1-31.492 31.492v316.555c0 17.574 14.379 31.953 31.953 31.953h120.047v-.797c4-.993 5.936-3.817 5.936-7.43 0-4.418-3.332-7.773-7.75-7.773h-118.694c-8.556 0-15.492-6.936-15.492-15.492v-150.508h63.297c7.187 0 12.682-9.104 13.354-15.293.567-5.221-1.232-10.351-4.936-14.024-3.801-3.772-5.895-8.841-5.895-14.25 0-11.913 11.156-21.811 23.138-19.438 7.407 1.47 13.562 7.845 14.966 15.507 1.246 6.793-.76 13.399-5.504 18.125-3.657 3.645-5.475 8.669-4.987 13.789.591 6.206 6.029 15.583 13.275 15.583h26.865c4.418 0 8-3.582 8-8s-3.582-8-8-8h-23.853c-.21-1-.334-.716-.36-.987-.044-.467.202-.845.353-.994 8.408-8.377 12.127-20.497 9.949-32.375-2.6-14.18-13.688-25.574-27.591-28.331-21.814-4.328-42.251 13.018-42.251 35.11 0 9.705 3.773 18.792 10.626 25.592.228.226.336.671.298 1.022-.03.274-.15-.038-.35.962h-60.394v-150.499c0-8.56 6.939-15.499 15.499-15.499h150.501v59.248c0 6.23 4.106 13.393 9.89 15.983 5.821 2.61 14.685.927 19.106-3.71 3.649-3.838 8.512-5.951 13.696-5.951 12.445 0 21.093 12.053 18.841 23.902-1.45 7.628-7.658 13.949-15.095 15.372-6.513 1.245-12.856-.781-17.418-5.56-4.411-4.616-13.191-6.356-19.02-3.791-5.943 2.615-10.042 9.915-10.077 16.272l.077 126.51c0 .285-.596.422-.837.447-.394.032-.64-.192-.778-.333-12.676-12.986-40.251-15.879-52.264.278-9.414 12.655-11.23 27.771-4.868 40.436 10.747 21.385 40.585 25.939 57.225 8.825.206-.212.412-.317.708-.278.283.033.814.186.814.438l-.024 66.496c-.002 4.927 3.958 8.939 8.885 9.002l65.689-.019c8.568 50.142 52.37 88.433 104.962 88.433 58.717 0 106.488-47.728 106.488-106.392 0-52.54-38.321-96.301-88.503-104.865zm-180.914-130.163c.401.13.977.299 1.745.708 8.222 8.025 19.759 11.477 31.117 9.303 13.942-2.668 25.117-13.976 27.806-28.114 4.099-21.562-12.237-42.902-34.562-42.902-9.18 0-17.788 3.539-24.38 9.997-.775.402-1.315.625-1.716.751-.181-.403-.593-1.026-.593-1.945v-58.378h150.007c8.542 0 14.993 6.953 14.993 15.499v150.446l-59.064.012c-6.181 0-13.277 4.353-15.806 10.033-2.602 5.844-.885 14.721 3.741 19.162 8.258 7.936 7.773 21.555-1.1 28.886-4.677 3.864-10.638 5.343-16.784 4.16-15.048-2.891-20.758-22.436-9.791-33.018 4.598-4.441 6.331-13.218 3.773-19.062-2.566-5.861-9.835-10.14-16.142-10.162l-53.827-.158-.082-53.076c.235-.958.476-1.728.665-2.142zm162.929 325.42c-49.895 0-90.487-40.55-90.487-90.392s40.593-90.391 90.487-90.391c49.896 0 90.488 40.549 90.488 90.391s-40.593 90.392-90.488 90.392z"/><path d="m283 360.543v11.561l50.274 25.751.726.281v-18.793l-26.024-13.021 26.024-13.02v-18.792l-50.618 25.928z"/><path d="m339.734 398h17.997l27.672-71.758.385-1.242h-18.099z"/><path d="m389 334.528v18.788l26.2 13.006-26.2 13.006v18.789l51-25.923v-11.744z"/></g></svg>