<svg width="512" height="512" viewBox="0 0 512 512" fill="none" xmlns="http://www.w3.org/2000/svg">
<path d="M40 95.9902C26.8424 95.9902 16 106.832 16 119.99V343.989C16 357.147 26.8424 367.99 40 367.99H152.141C151.956 369.511 151.653 371.247 151.125 373.272C149.252 380.432 144.669 390.025 133.047 399.975H119.969C109.3 399.975 109.3 415.975 119.969 415.975H216C226.669 415.975 226.669 399.975 216 399.975H155.172C161.411 391.898 164.863 383.999 166.609 377.318C167.523 373.823 167.875 370.764 168.062 367.99H216C226.818 368.141 226.818 351.838 216 351.99H40C35.4298 351.99 32 348.56 32 343.989V303.99H216C226.818 304.141 226.818 287.838 216 287.99H32V119.99C32 115.419 35.4298 111.99 40 111.99H344C348.57 111.99 352 115.419 352 119.99C351.852 130.803 368.148 130.803 368 119.99C368 106.832 357.158 95.9902 344 95.9902H40ZM264 143.959C250.842 143.959 239.969 154.849 239.969 168.006V392.006C239.969 405.163 250.842 415.975 264 415.975H359.969C370.638 415.975 370.638 399.975 359.969 399.975H264C259.43 399.975 255.969 396.577 255.969 392.006V352.021H359.969C370.638 352.021 370.638 336.021 359.969 336.021H255.969V191.974H416.016V216.021C416.016 226.69 432.016 226.69 432.016 216.021V168.006C432.016 154.849 421.142 143.959 407.984 143.959H264ZM55.8906 159.849C51.4474 159.91 47.9014 163.563 47.9844 168.006V184.005C47.9844 194.675 63.9844 194.675 63.9844 184.005V168.006C64.0685 163.494 60.4033 159.797 55.8906 159.849ZM264 159.97H407.984C412.555 159.97 416.016 163.431 416.016 168.001V175.97H255.969V168.001C255.969 163.431 259.43 159.97 264 159.97ZM55.8906 207.861C51.4474 207.921 47.9014 211.574 47.9844 216.017V263.955C47.9844 274.624 63.9844 274.624 63.9844 263.955V216.017C64.0685 211.505 60.4033 207.81 55.8906 207.861ZM279.891 207.861C275.448 207.921 271.901 211.575 271.984 216.017V232.017C271.984 242.686 287.984 242.686 287.984 232.017V216.017C288.069 211.505 284.403 207.81 279.891 207.861ZM407.984 239.986C394.827 239.986 384 250.797 384 263.955V392.001C384 405.159 394.827 415.97 407.984 415.97H472C485.158 415.97 495.969 405.159 495.969 392.001V263.955C495.969 250.797 485.158 239.986 472 239.986H407.984ZM279.891 255.876C275.471 255.937 271.935 259.535 271.984 263.955V311.97C271.984 322.64 287.984 322.64 287.984 311.97V263.955C288.033 259.466 284.38 255.826 279.891 255.876ZM407.984 255.997H472C476.57 255.997 479.969 259.396 479.969 263.966V272.006H400.016V263.959C400.016 259.388 403.414 255.997 407.984 255.997ZM400.016 288.013H479.969V367.967H400.016V288.013ZM183.984 336.029H200C210.669 336.029 210.669 320.013 200 320.013H183.602C172.549 320.524 173.315 336.541 183.984 336.029ZM328.031 367.967C317.362 367.967 317.362 383.966 328.031 383.966H344.031C354.701 383.966 354.701 367.967 344.031 367.967H328.031ZM400.016 383.966H479.969V392.013C479.969 396.584 476.57 399.982 472 399.982H407.984C403.414 399.982 400.016 396.584 400.016 392.013V383.966Z" fill="#AAAAAA"/>
<path d="M55.8906 159.849C51.4474 159.91 47.9014 163.563 47.9844 168.006V184.005C47.9844 194.675 63.9844 194.675 63.9844 184.005V168.006C64.0685 163.494 60.4033 159.797 55.8906 159.849ZM55.8906 207.861C51.4474 207.921 47.9014 211.574 47.9844 216.017V263.955C47.9844 274.624 63.9844 274.624 63.9844 263.955V216.017C64.0685 211.505 60.4033 207.81 55.8906 207.861ZM279.891 207.861C275.448 207.921 271.901 211.575 271.984 216.017V232.017C271.984 242.686 287.984 242.686 287.984 232.017V216.017C288.069 211.505 284.403 207.81 279.891 207.861ZM407.984 239.986C394.827 239.986 384 250.797 384 263.955V392.001C384 405.159 394.827 415.97 407.984 415.97H472C485.158 415.97 495.969 405.159 495.969 392.001V263.955C495.969 250.797 485.158 239.986 472 239.986H407.984ZM279.891 255.876C275.471 255.937 271.935 259.535 271.984 263.955V311.97C271.984 322.64 287.984 322.64 287.984 311.97V263.955C288.033 259.466 284.38 255.826 279.891 255.876ZM407.984 255.997H472C476.57 255.997 479.969 259.396 479.969 263.966V272.006H400.016V263.959C400.016 259.388 403.414 255.997 407.984 255.997ZM400.016 288.013H479.969V367.967H400.016V288.013ZM183.984 336.029H200C210.669 336.029 210.669 320.013 200 320.013H183.602C172.549 320.524 173.315 336.541 183.984 336.029ZM328.031 367.967C317.362 367.967 317.362 383.966 328.031 383.966H344.031C354.701 383.966 354.701 367.967 344.031 367.967H328.031ZM400.016 383.966H479.969V392.013C479.969 396.584 476.57 399.982 472 399.982H407.984C403.414 399.982 400.016 396.584 400.016 392.013V383.966Z" fill="#EA5050"/>
</svg>
