<svg width="512" height="512" viewBox="0 0 512 512" fill="none" xmlns="http://www.w3.org/2000/svg">
<path d="M238.911 384.054H273.092C277.239 384.054 280.6 380.693 280.6 376.545C280.6 372.398 277.239 369.037 273.092 369.037H238.911C234.764 369.037 231.402 372.398 231.402 376.545C231.402 380.693 234.764 384.054 238.911 384.054Z" fill="#EA5050"/>
<path d="M312.874 230.523L327.996 210.624C330.505 207.322 329.863 202.612 326.561 200.102C323.261 197.595 318.549 198.235 316.04 201.538L315.137 202.726C311.685 172.217 285.732 148.426 254.314 148.426C238.234 148.426 223.043 154.612 211.54 165.844C208.573 168.741 208.517 173.496 211.414 176.462C214.311 179.43 219.066 179.485 222.032 176.588C230.713 168.111 242.178 163.442 254.314 163.442C278.174 163.442 297.867 181.62 300.273 204.855L297.752 201.537C295.243 198.236 290.532 197.594 287.231 200.101C283.929 202.611 283.287 207.321 285.796 210.623L300.918 230.522C302.338 232.39 304.549 233.487 306.896 233.487C309.243 233.487 311.454 232.392 312.874 230.523Z" fill="#EA5050"/>
<path d="M220.231 223.342C221.815 223.342 223.41 222.843 224.769 221.812C228.071 219.302 228.713 214.592 226.204 211.29L211.081 191.391C209.662 189.523 207.45 188.426 205.104 188.426C202.757 188.426 200.545 189.523 199.126 191.391L184.004 211.29C181.495 214.592 182.136 219.302 185.438 221.812C188.739 224.319 193.45 223.679 195.959 220.376L196.862 219.188C200.315 249.698 226.268 273.488 257.685 273.488C273.765 273.488 288.955 267.301 300.458 256.069C303.425 253.171 303.482 248.417 300.584 245.451C297.685 242.484 292.932 242.428 289.965 245.325C281.285 253.803 269.82 258.472 257.684 258.472C233.824 258.472 214.132 240.293 211.724 217.06L214.246 220.377C215.725 222.32 217.964 223.342 220.231 223.342Z" fill="#EA5050"/>
<path d="M256.001 111.342C201.074 111.342 156.387 156.03 156.387 210.958C156.387 265.885 201.074 310.572 256.001 310.572C288.803 310.572 319.501 294.42 338.118 267.365C340.469 263.948 339.605 259.274 336.189 256.922C332.773 254.57 328.097 255.434 325.747 258.851C309.933 281.834 283.859 295.555 256.001 295.555C209.354 295.555 171.404 257.605 171.404 210.958C171.404 164.309 209.354 126.359 256.001 126.359C302.649 126.359 340.599 164.309 340.599 210.958C340.599 217.086 339.941 223.199 338.645 229.124C337.759 233.175 340.324 237.178 344.375 238.065C348.428 238.953 352.428 236.386 353.315 232.333C354.842 225.354 355.616 218.163 355.616 210.957C355.616 156.029 310.929 111.342 256.001 111.342Z" fill="#EA5050"/>
<path d="M479.139 53.6872H439.898V36.1092C439.898 26.0437 431.708 17.8554 421.643 17.8554H238.647C234.5 17.8554 231.139 21.2162 231.139 25.3639C231.139 29.5117 234.5 32.8725 238.647 32.8725H421.642C423.427 32.8725 424.88 34.3242 424.88 36.1092V70.0819H87.1204V36.1092C87.1204 34.3242 88.573 32.8725 90.3581 32.8725H203.572C207.719 32.8725 211.081 29.5117 211.081 25.3639C211.081 21.2162 207.719 17.8554 203.572 17.8554H90.3571C80.2916 17.8554 72.1022 26.0447 72.1022 36.1092V53.6872H32.8615C14.7418 53.6872 0 68.4281 0 86.5477V344.324V383.413C0 401.533 14.7418 416.274 32.8615 416.274H199.826C199.267 433.414 197.559 463.061 193.709 479.126H167.687C163.541 479.126 160.179 482.486 160.179 486.634C160.179 490.782 163.541 494.143 167.687 494.143H344.313C348.459 494.143 351.821 490.782 351.821 486.634C351.821 482.486 348.459 479.126 344.313 479.126H318.291C314.444 463.065 312.734 433.415 312.174 416.274H479.138C497.257 416.274 511.999 401.532 511.999 383.413V86.5477C512 68.4281 497.258 53.6872 479.139 53.6872ZM439.898 103.138H462.101C464.074 103.138 465.679 104.742 465.679 106.715V336.81H439.899V103.138H439.898ZM87.1204 85.0991H424.881V336.811H87.1204V85.0991ZM15.0171 86.5477C15.0171 76.7085 23.0223 68.7044 32.8615 68.7044H72.1032V88.1205H49.8999C39.6462 88.1205 31.3047 96.462 31.3047 106.715V336.815H15.0171V86.5477ZM72.1032 103.138V336.81H46.3218V106.716C46.3218 104.742 47.9277 103.139 49.8999 103.139H72.1032V103.138ZM209.072 479.128C213.044 459.682 214.411 430.016 214.846 416.276H297.153C297.589 430.017 298.955 459.682 302.927 479.128H209.072ZM496.983 383.414C496.983 393.254 488.978 401.258 479.139 401.258H32.8615C23.0223 401.258 15.0171 393.254 15.0171 383.414V351.833H496.983V383.414ZM496.983 336.815H480.695V106.716C480.695 96.463 472.354 88.1215 462.1 88.1215H439.897V68.7044H479.138C488.977 68.7044 496.982 76.7085 496.982 86.5477L496.983 336.815Z" fill="#AAAAAA"/>
</svg>
