<svg width="512" height="512" viewBox="0 0 512 512" fill="none" xmlns="http://www.w3.org/2000/svg">
<g clip-path="url(#clip0_220_788)">
<path d="M116.714 288.853C100.357 286.449 83.8871 284.887 67.3698 284.171C60.1271 283.723 50.5805 287.499 48.9271 305.76C48.6187 310.352 49.0618 314.964 50.2391 319.413C51.3362 324.06 53.8096 328.267 57.3359 331.485C60.8623 334.703 65.2775 336.782 70.0045 337.451L140.607 347.392C140.96 347.45 141.316 347.479 141.674 347.477C143.053 347.479 144.409 347.123 145.61 346.446C146.811 345.769 147.817 344.792 148.53 343.612C149.243 342.431 149.638 341.086 149.678 339.708C149.717 338.329 149.4 336.964 148.756 335.744C125.535 291.573 119.583 289.739 116.714 288.853ZM72.2338 321.611C70.6829 321.373 69.2388 320.676 68.0883 319.61C66.9378 318.543 66.1339 317.155 65.7805 315.627C65.0363 312.887 64.7267 310.047 64.8631 307.211C64.8884 304.782 65.4378 302.388 66.4738 300.192H66.6978C84.9378 301.333 105.45 302.987 111.007 303.968C117.013 312.004 122.384 320.496 127.071 329.365L72.2338 321.611Z" fill="#EA5050"/>
<path d="M444.619 284.171C428.102 284.887 411.633 286.449 395.275 288.853C392.406 289.739 386.443 291.573 363.19 335.787C362.547 337.006 362.229 338.372 362.269 339.75C362.309 341.129 362.704 342.474 363.417 343.654C364.129 344.835 365.135 345.811 366.336 346.489C367.538 347.166 368.894 347.521 370.273 347.52C370.63 347.521 370.987 347.493 371.339 347.435L441.942 337.493C446.669 336.825 451.084 334.745 454.611 331.527C458.137 328.309 460.61 324.102 461.708 319.456C462.881 315.006 463.324 310.395 463.02 305.803C461.398 287.499 451.798 283.733 444.619 284.171ZM446.209 315.627C445.855 317.155 445.052 318.543 443.901 319.61C442.751 320.676 441.306 321.373 439.756 321.611L384.918 329.333C389.609 320.468 394.976 311.977 400.971 303.936C406.625 302.944 427.158 301.291 445.388 300.16C446.551 302.327 447.149 304.752 447.126 307.211C447.263 310.047 446.954 312.887 446.209 315.627Z" fill="#EA5050"/>
<path d="M366.741 296.299C365.935 295.147 364.84 294.228 363.567 293.633C362.294 293.038 360.887 292.787 359.487 292.907C358.751 292.971 285.269 299.307 256.021 299.307C226.773 299.307 153.279 292.907 152.554 292.907C151.153 292.783 149.745 293.032 148.471 293.627C147.197 294.222 146.102 295.143 145.298 296.297C144.494 297.45 144.009 298.796 143.891 300.197C143.774 301.598 144.028 303.006 144.629 304.277L165.695 348.981C166.311 350.281 167.265 351.391 168.456 352.195C169.648 353 171.033 353.471 172.469 353.557L255.978 358.336L339.615 353.557C341.051 353.473 342.438 353.003 343.63 352.198C344.821 351.393 345.774 350.282 346.389 348.981L367.455 304.277C368.051 303.003 368.299 301.593 368.173 300.192C368.048 298.79 367.554 297.447 366.741 296.299ZM333.909 337.899L255.999 342.4L178.133 337.899L165.002 310.037C188.031 311.915 233.685 315.371 256.031 315.371C278.378 315.371 324.042 311.915 347.082 310.037L333.909 337.899Z" fill="#AAAAAA"/>
<path d="M301.984 53.2693L313.781 57.6853C317.639 59.1273 321.142 61.3798 324.055 64.2908C326.968 67.2018 329.222 70.7036 330.667 74.56L335.083 86.4C335.659 87.9136 336.682 89.2164 338.015 90.1356C339.348 91.0549 340.93 91.5471 342.549 91.5471C344.169 91.5471 345.75 91.0549 347.084 90.1356C348.417 89.2164 349.44 87.9136 350.016 86.4L354.432 74.6027C355.878 70.7491 358.133 67.2495 361.043 64.339C363.954 61.4285 367.453 59.1743 371.307 57.728L383.104 53.312C384.618 52.7358 385.921 51.7132 386.84 50.3798C387.759 49.0463 388.251 47.4649 388.251 45.8453C388.251 44.2257 387.759 42.6444 386.84 41.3109C385.921 39.9775 384.618 38.9548 383.104 38.3787L371.307 33.9627C367.45 32.5182 363.949 30.2635 361.038 27.3507C358.127 24.4379 355.874 20.9347 354.432 17.0773L350.059 5.19467C349.483 3.68103 348.46 2.37824 347.127 1.45903C345.793 0.539812 344.212 0.0475769 342.592 0.0475769C340.972 0.0475769 339.391 0.539812 338.058 1.45903C336.724 2.37824 335.702 3.68103 335.125 5.19467L330.667 16.992C329.225 20.8493 326.972 24.3526 324.061 27.2654C321.15 30.1782 317.648 32.4329 313.792 33.8773L301.995 38.2933C300.481 38.8695 299.178 39.8921 298.259 41.2256C297.34 42.5591 296.848 44.1404 296.848 45.76C296.848 47.3796 297.34 48.9609 298.259 50.2944C299.178 51.6279 300.481 52.6505 301.995 53.2267L301.984 53.2693ZM342.571 29.152C346.528 36.0782 352.266 41.8198 359.189 45.7813C352.263 49.7399 346.525 55.4822 342.571 62.4107C338.607 55.4856 332.866 49.7447 325.941 45.7813C332.866 41.818 338.607 36.0771 342.571 29.152Z" fill="#EA5050"/>
<path d="M391.923 102.923L400.862 106.272C403.526 107.272 405.945 108.831 407.956 110.844C409.967 112.856 411.523 115.277 412.521 117.941L415.87 126.88C416.441 128.407 417.464 129.722 418.803 130.651C420.143 131.58 421.734 132.078 423.363 132.078C424.993 132.078 426.584 131.58 427.923 130.651C429.262 129.722 430.286 128.407 430.857 126.88L434.195 117.941C435.195 115.276 436.753 112.855 438.766 110.842C440.779 108.83 443.199 107.271 445.865 106.272L454.803 102.923C456.313 102.342 457.61 101.318 458.526 99.985C459.441 98.652 459.931 97.073 459.931 95.456C459.931 93.839 459.441 92.2599 458.526 90.927C457.61 89.5941 456.313 88.5698 454.803 87.9893L445.865 84.5973C443.201 83.6052 440.782 82.0514 438.772 80.0416C436.763 78.0317 435.209 75.6129 434.217 72.9493L430.857 64C430.286 62.4734 429.262 61.1575 427.923 60.2285C426.584 59.2996 424.993 58.8018 423.363 58.8018C421.734 58.8018 420.143 59.2996 418.803 60.2285C417.464 61.1575 416.441 62.4734 415.87 64L412.521 72.9493C411.523 75.6128 409.966 78.0315 407.955 80.0426C405.944 82.0537 403.526 83.6105 400.862 84.608L391.913 87.9573C390.399 88.5335 389.096 89.5561 388.177 90.8896C387.258 92.223 386.766 93.8044 386.766 95.424C386.766 97.0436 387.258 98.6249 388.177 99.9584C389.096 101.292 390.399 102.314 391.913 102.891L391.923 102.923ZM423.358 86.4C425.793 89.9117 428.838 92.9575 432.35 95.392C428.846 97.8312 425.801 100.872 423.358 104.373C420.921 100.87 417.88 97.8287 414.377 95.392C417.885 92.9572 420.927 89.9114 423.358 86.4Z" fill="#EA5050"/>
<path d="M441.897 53.2693L450.836 56.6187C453.498 57.615 455.916 59.1701 457.927 61.1793C459.938 63.1885 461.496 65.6052 462.494 68.2667L465.844 77.2053C466.415 78.7319 467.438 80.0478 468.777 80.9768C470.116 81.9057 471.707 82.4035 473.337 82.4035C474.967 82.4035 476.558 81.9057 477.897 80.9768C479.236 80.0478 480.26 78.7319 480.83 77.2053L484.18 68.2667C485.175 65.6036 486.73 63.1849 488.739 61.1737C490.748 59.1625 493.166 57.6056 495.828 56.608L504.777 53.2587C506.291 52.6825 507.594 51.6599 508.513 50.3264C509.432 48.9929 509.924 47.4116 509.924 45.792C509.924 44.1724 509.432 42.591 508.513 41.2576C507.594 39.9241 506.291 38.9015 504.777 38.3253L495.838 34.9653C493.177 33.9695 490.76 32.4145 488.751 30.4051C486.741 28.3957 485.186 25.9788 484.19 23.3173L480.841 14.368C480.27 12.8414 479.247 11.5255 477.908 10.5966C476.569 9.66757 474.978 9.16977 473.348 9.16977C471.718 9.16977 470.127 9.66757 468.788 10.5966C467.449 11.5255 466.425 12.8414 465.854 14.368L462.505 23.3173C461.508 25.9795 459.951 28.3968 457.939 30.4061C455.928 32.4155 453.509 33.9702 450.846 34.9653L441.897 38.3253C440.383 38.9015 439.081 39.9241 438.161 41.2576C437.242 42.591 436.75 44.1724 436.75 45.792C436.75 47.4116 437.242 48.9929 438.161 50.3264C439.081 51.6599 440.383 52.6825 441.897 53.2587V53.2693ZM473.332 36.8C475.774 40.2988 478.814 43.3392 482.313 45.7813C478.814 48.2235 475.774 51.2639 473.332 54.7627C470.895 51.2594 467.854 48.2181 464.35 45.7813C467.851 43.3418 470.892 40.301 473.332 36.8Z" fill="#EA5050"/>
<path d="M488.652 451.957C486.53 451.957 484.496 452.8 482.995 454.301C481.495 455.801 480.652 457.836 480.652 459.957V493.173C480.652 493.923 480.354 494.642 479.824 495.172C479.294 495.702 478.575 496 477.825 496H436.268C435.518 496 434.799 495.702 434.269 495.172C433.739 494.642 433.441 493.923 433.441 493.173V479.477C433.441 477.356 432.599 475.321 431.098 473.82C429.598 472.32 427.563 471.477 425.441 471.477C423.32 471.477 421.285 472.32 419.785 473.82C418.284 475.321 417.441 477.356 417.441 479.477V493.173C417.447 498.165 419.432 502.95 422.962 506.48C426.491 510.009 431.277 511.994 436.268 512H477.868C482.859 511.994 487.645 510.009 491.174 506.48C494.704 502.95 496.689 498.165 496.695 493.173V459.957C496.695 458.903 496.486 457.859 496.082 456.886C495.677 455.913 495.084 455.029 494.337 454.285C493.589 453.542 492.702 452.954 491.727 452.554C490.751 452.154 489.706 451.952 488.652 451.957Z" fill="#AAAAAA"/>
<path d="M85.9937 471.467C83.872 471.467 81.8372 472.31 80.3369 473.81C78.8366 475.31 77.9937 477.345 77.9937 479.467V493.163C77.9937 493.911 77.6974 494.628 77.1696 495.158C76.6418 495.687 75.9255 495.987 75.1777 495.989H33.5777C32.8299 495.987 32.1137 495.687 31.5859 495.158C31.0581 494.628 30.7617 493.911 30.7617 493.163V459.957C30.7617 457.836 29.9189 455.801 28.4186 454.301C26.9183 452.8 24.8835 451.957 22.7617 451.957C20.64 451.957 18.6052 452.8 17.1049 454.301C15.6046 455.801 14.7617 457.836 14.7617 459.957V493.173C14.7645 498.16 16.7446 502.942 20.2677 506.471C23.7909 510.001 28.5697 511.989 33.5564 512H75.1564C80.1468 511.994 84.9311 510.009 88.4588 506.479C91.9866 502.949 93.9696 498.164 93.9724 493.173V479.477C93.9752 477.357 93.1365 475.323 91.6406 473.821C90.1446 472.319 88.1136 471.472 85.9937 471.467Z" fill="#AAAAAA"/>
<path d="M495.242 201.12L468.575 196.512C464.679 195.793 460.654 196.423 457.164 198.298C453.674 200.173 450.927 203.181 449.375 206.827L447.935 210.027L429.034 165.44C424.761 155.217 417.942 146.258 409.226 139.416C400.51 132.575 390.188 128.079 379.242 126.357C338.457 120.166 297.252 117.149 255.999 117.333C214.747 117.152 173.542 120.173 132.757 126.368C121.812 128.089 111.491 132.583 102.775 139.422C94.0588 146.262 87.239 155.219 82.9648 165.44L63.9995 210.069L62.6555 206.933C61.116 203.272 58.3758 200.244 54.886 198.348C51.3962 196.452 47.3648 195.801 43.4554 196.501L16.7888 201.12C12.4612 201.838 8.52898 204.068 5.69256 207.415C2.85615 210.761 1.2998 215.005 1.30078 219.392V224.629C1.30478 228.852 2.74529 232.948 5.38553 236.243C8.02578 239.539 11.7086 241.838 15.8288 242.763L41.1514 248.48L29.9301 265.6C20.207 280.393 15.0337 297.711 15.0501 315.413V406.4C15.0501 440.736 38.9648 462.933 75.9995 462.933H435.999C473.034 462.933 496.949 440.747 496.949 406.4V315.371C496.965 297.669 491.792 280.35 482.069 265.557L470.847 248.491L496.085 242.795C500.217 241.881 503.915 239.587 506.569 236.291C509.223 232.995 510.676 228.893 510.687 224.661V219.424C510.7 215.037 509.154 210.789 506.325 207.437C503.496 204.084 499.568 201.846 495.242 201.12ZM19.2741 227.104C18.7126 226.978 18.211 226.664 17.8522 226.214C17.4934 225.764 17.2989 225.205 17.3008 224.629V219.392C17.2921 218.788 17.5039 218.201 17.8966 217.742C18.2892 217.282 18.8358 216.982 19.4341 216.896L46.2181 212.267C46.5938 212.199 46.9813 212.27 47.3088 212.466C47.6363 212.662 47.8817 212.97 47.9995 213.333L54.5381 228.117L50.5488 234.197L19.2741 227.104ZM480.949 381.547H51.3275C49.2057 381.547 47.1709 382.39 45.6706 383.89C44.1703 385.39 43.3274 387.425 43.3274 389.547C43.3274 391.668 44.1703 393.703 45.6706 395.204C47.1709 396.704 49.2057 397.547 51.3275 397.547H480.949V406.4C480.949 431.765 464.149 446.933 435.999 446.933H75.9995C47.8501 446.933 31.0501 431.776 31.0501 406.4V315.371C31.0389 300.786 35.2996 286.516 43.3061 274.325L68.5221 235.861H417.546C419.668 235.861 421.703 235.018 423.203 233.518C424.703 232.018 425.546 229.983 425.546 227.861C425.546 225.74 424.703 223.705 423.203 222.204C421.703 220.704 419.668 219.861 417.546 219.861H77.2581L97.6955 171.733C100.912 164.011 106.054 157.243 112.631 152.074C119.208 146.905 127 143.508 135.263 142.208C175.218 136.122 215.585 133.155 255.999 133.333C296.413 133.144 336.78 136.101 376.735 142.176C385.002 143.479 392.797 146.881 399.374 152.056C405.951 157.231 411.091 164.005 414.303 171.733L437.685 226.848C437.866 227.289 438.091 227.711 438.357 228.107L468.693 274.368C476.699 286.559 480.96 300.828 480.949 315.413V381.547ZM494.687 224.629C494.687 225.216 494.484 225.785 494.113 226.24C493.742 226.695 493.225 227.007 492.65 227.125L461.482 234.165L457.493 228.085L464.074 213.152C464.222 212.829 464.473 212.563 464.787 212.397C465.102 212.231 465.462 212.174 465.813 212.235L492.543 216.864C493.142 216.95 493.688 217.25 494.081 217.71C494.474 218.169 494.685 218.756 494.677 219.36L494.687 224.629Z" fill="#AAAAAA"/>
</g>
<defs>
<clipPath id="clip0_220_788">
<rect width="512" height="512" fill="white"/>
</clipPath>
</defs>
</svg>
