<svg width="662" height="662" viewBox="0 0 662 662" fill="none" xmlns="http://www.w3.org/2000/svg">
<g clip-path="url(#clip0_220_711)">
<path d="M661.333 256V160C661.333 130.594 637.406 106.667 608 106.667H305.427C303.594 102.818 301.641 98.9948 299.469 95.2969L311.859 70.5156L270.828 29.474L246.047 41.8646C234.219 34.9115 221.609 29.6615 208.448 26.2292L199.693 0H141.651L132.906 26.2292C119.745 29.6615 107.135 34.901 95.3073 41.8646L70.5052 29.474L29.474 70.5052L41.8646 95.2865C34.9115 107.115 29.6615 119.724 26.2292 132.885L0 141.641V199.682L26.2292 208.427C29.6615 221.589 34.901 234.198 41.8646 246.026L29.474 270.828L70.5156 311.87L95.2969 299.479C107.734 306.797 121.026 312.203 134.932 315.635L149.333 334.974V554.667H21.3333V608C21.3333 637.406 45.2604 661.333 74.6667 661.333H522.667C552.073 661.333 576 637.406 576 608V533.333H661.333V277.333H576V256H661.333ZM640 160V234.667H576V160C576 142.359 590.359 128 608 128C625.641 128 640 142.359 640 160ZM147.318 296.542L143.422 295.693C128.589 292.469 114.516 286.615 101.599 278.313L96.4896 275.021L74.7188 285.911L55.4219 266.615L66.3125 244.844L63.0208 239.734C54.7188 226.818 48.8646 212.745 45.6406 197.911L44.3542 191.979L21.3333 184.307V157.016L44.3542 149.333L45.6406 143.401C48.8646 128.568 54.7188 114.495 63.0208 101.578L66.3125 96.4688L55.4219 74.7188L74.7188 55.4219L96.4896 66.3125L101.599 63.0208C114.516 54.7188 128.589 48.8646 143.422 45.6406L149.354 44.3542L157.026 21.3333H184.318L192 44.3542L197.932 45.6406C212.766 48.8646 226.839 54.7188 239.755 63.0208L244.865 66.3125L266.635 55.4219L285.932 74.7188L275.042 96.4896L278.339 101.599C279.401 103.255 280.307 104.979 281.292 106.677H255.776C235.635 79.9375 204.307 64 170.667 64C111.849 64 64 111.849 64 170.667C64 221.885 100.073 265.229 149.333 275.188V299.266L147.318 296.542ZM149.333 160V207.542C136.479 200.063 128 186.167 128 170.667C128 151.328 141.016 135.135 158.688 129.922C152.802 138.495 149.333 148.844 149.333 160ZM187.552 109.12C182.057 107.615 176.417 106.667 170.667 106.667C135.37 106.667 106.667 135.37 106.667 170.667C106.667 197.964 124.193 221.922 149.333 230.849V253.229C112.141 243.703 85.3333 210.135 85.3333 170.667C85.3333 123.615 123.615 85.3333 170.667 85.3333C191.703 85.3333 211.646 93.0885 227.063 106.667H202.667C197.375 106.667 192.375 107.682 187.552 109.12ZM74.6667 640C57.026 640 42.6667 625.641 42.6667 608V576H469.333V608C469.333 620 473.313 631.083 480.021 640H74.6667ZM341.333 512V341.333H640V512H341.333ZM640 320H341.333V298.667H640V320ZM320 277.333V533.333H554.667V608C554.667 625.641 540.307 640 522.667 640C505.026 640 490.667 625.641 490.667 608V554.667H170.667V160C170.667 142.359 185.026 128 202.667 128H565.609C558.839 136.938 554.667 147.948 554.667 160V277.333H320Z" fill="#AAAAAA"/>
<path d="M451.126 376.458L400.918 426.667L451.126 476.875L466.21 461.792L431.085 426.667L466.21 391.542L451.126 376.458Z" fill="#EA5050"/>
<path d="M515.125 391.542L550.25 426.667L515.125 461.792L530.208 476.875L580.417 426.667L530.208 376.458L515.125 391.542Z" fill="#EA5050"/>
<path d="M469.484 488.948L490.781 360.943L511.823 364.443L490.531 492.453L469.484 488.948Z" fill="#EA5050"/>
<path d="M192 149.333H213.333V170.667H192V149.333Z" fill="#EA5050"/>
<path d="M234.668 149.333H533.335V170.667H234.668V149.333Z" fill="#EA5050"/>
<path d="M192 192H533.333V213.333H192V192Z" fill="#EA5050"/>
<path d="M192 234.667H320V256H192V234.667Z" fill="#EA5050"/>
<path d="M341.332 234.667H533.332V256H341.332V234.667Z" fill="#EA5050"/>
<path d="M192 277.333H298.667V298.667H192V277.333Z" fill="#EA5050"/>
<path d="M192 320H298.667V341.333H192V320Z" fill="#EA5050"/>
<path d="M192 362.667H298.667V384H192V362.667Z" fill="#EA5050"/>
</g>
<defs>
<clipPath id="clip0_220_711">
<rect width="661.333" height="661.333" fill="white"/>
</clipPath>
</defs>
</svg>
