<svg xmlns="http://www.w3.org/2000/svg" id="Layer_1" data-name="Layer 1" viewBox="0 0 512 512" width="512" height="512"><path d="M511.985,75.327a27.966,27.966,0,0,0-27.964-28.006H471.786a8.016,8.016,0,0,0,0,16.032h12.235A11.933,11.933,0,0,1,495.954,75.3l-.34,232.1a25.489,25.489,0,0,1-25.452,25.416H41.5a25.482,25.482,0,0,1-25.453-25.453V75.286A11.946,11.946,0,0,1,27.979,63.353H40.508a8.016,8.016,0,0,0,0-16.032H27.979A28,28,0,0,0,.015,75.286L0,387.642a28,28,0,0,0,27.964,27.964H206.473v43.078c0,10.29,0,34.387-50.652,34.387H140.347a8.016,8.016,0,0,0,0,16.032H371.653a8.016,8.016,0,0,0,0-16.032H356.179c-50.652,0-50.652-24.1-50.652-34.387V446.553a8.016,8.016,0,0,0-16.031,0v12.131c0,5.653,0,18.894,9.4,30.509a40.7,40.7,0,0,0,3.62,3.878h-93.03a40.7,40.7,0,0,0,3.62-3.878c9.4-11.615,9.4-24.856,9.4-30.509V415.606H484.036A28,28,0,0,0,512,387.642ZM484.036,399.575H27.964a11.946,11.946,0,0,1-11.933-11.933V340.078A41.267,41.267,0,0,0,41.5,348.851H470.162a41.269,41.269,0,0,0,25.807-9.046v47.837A11.946,11.946,0,0,1,484.036,399.575Z"/><path d="M271.724,365.86H240.276a8.016,8.016,0,1,0,0,16.031h31.448a8.016,8.016,0,1,0,0-16.031Z"/><path d="M72.94,310.584a8.014,8.014,0,0,0,8.015-8.015V85.381h350.09V302.569a8.016,8.016,0,0,0,16.031,0V44.043A41.192,41.192,0,0,0,405.931,2.9H106.069A41.192,41.192,0,0,0,64.924,44.043V302.569A8.015,8.015,0,0,0,72.94,310.584ZM106.069,18.929H405.931a25.142,25.142,0,0,1,25.114,25.114V69.349H80.955V44.043A25.142,25.142,0,0,1,106.069,18.929Z"/><circle cx="116.426" cy="42.892" r="9.248" transform="translate(32.244 134.042) rotate(-67.5)"/><circle cx="143.515" cy="42.892" r="9.248" transform="translate(48.966 159.068) rotate(-67.5)"/><circle cx="170.603" cy="42.892" r="9.248" transform="translate(65.689 184.095) rotate(-67.5)"/><path d="M311.946,49.906h92.876a7.014,7.014,0,1,0,0-14.027H311.946a7.014,7.014,0,1,0,0,14.027Z"/><path d="M411.944,123.686a15.817,15.817,0,0,0-15.8-15.8H115.856a15.817,15.817,0,0,0-15.8,15.8v69.3a15.818,15.818,0,0,0,15.8,15.8H396.144a15.818,15.818,0,0,0,15.8-15.8Zm-14.027,69.3a1.775,1.775,0,0,1-1.773,1.773H115.856a1.775,1.775,0,0,1-1.773-1.773v-69.3a1.774,1.774,0,0,1,1.773-1.772H396.144a1.774,1.774,0,0,1,1.773,1.772Z"/><path d="M229.11,309.111a7.013,7.013,0,0,0,7.013-7.014V246.01a16.1,16.1,0,0,0-16.083-16.083h-103.9a16.1,16.1,0,0,0-16.083,16.083V302.1a7.014,7.014,0,1,0,14.027,0V246.01a2.058,2.058,0,0,1,2.056-2.056h103.9a2.058,2.058,0,0,1,2.056,2.056V302.1A7.014,7.014,0,0,0,229.11,309.111Z"/><path d="M404.931,309.111a7.013,7.013,0,0,0,7.013-7.014V246.01a16.1,16.1,0,0,0-16.083-16.083H291.96a16.1,16.1,0,0,0-16.083,16.083V302.1a7.014,7.014,0,1,0,14.027,0V246.01a2.058,2.058,0,0,1,2.056-2.056h103.9a2.058,2.058,0,0,1,2.056,2.056V302.1A7.014,7.014,0,0,0,404.931,309.111Z"/></svg>
