<svg width="70" height="70" viewBox="0 0 70 70" fill="none" xmlns="http://www.w3.org/2000/svg">
<path d="M35.0005 38.3511C36.8482 38.3511 38.3515 36.8478 38.3515 35C38.3515 33.1521 36.8482 31.6489 35.0005 31.6489C33.1528 31.6489 31.6494 33.1521 31.6494 35C31.6494 36.8478 33.1528 38.3511 35.0005 38.3511ZM35.0005 33.883C35.6165 33.883 36.1175 34.384 36.1175 35C36.1175 35.616 35.6165 36.117 35.0005 36.117C34.3845 36.117 33.8835 35.616 33.8835 35C33.8835 34.384 34.3845 33.883 35.0005 33.883Z" fill="#EA5050"/>
<path d="M70 35C70 25.5512 63.9848 17.4812 55.5827 14.4175C52.5189 6.01523 44.4488 0 35 0C25.551 0 17.4811 6.01523 14.4173 14.4175C6.01523 17.4812 0 25.5512 0 35C0 44.4488 6.01523 52.5188 14.4173 55.5825C17.4811 63.9848 25.551 70 35 70C44.4488 70 52.5189 63.9848 55.5827 55.5825C63.9848 52.5188 70 44.4488 70 35ZM35 2.23404C42.8863 2.23404 49.7019 6.90081 52.8336 13.6172C51.3088 13.2799 49.7252 13.1006 48.1004 13.1006C43.3197 13.1006 38.7381 14.6665 35.0001 17.4561C31.262 14.6665 26.6804 13.1006 21.8997 13.1006C20.2748 13.1006 18.6913 13.28 17.1665 13.6172C20.2981 6.90081 27.1137 2.23404 35 2.23404ZM54.6655 21.8996C54.6655 26.1163 53.3311 30.0269 51.0629 33.2323C47.0601 28.9109 41.341 26.201 35 26.201C28.659 26.201 22.9399 28.9109 18.9371 33.2323C16.6689 30.0269 15.3345 26.1163 15.3345 21.8996C15.3345 19.912 15.6319 17.9928 16.1828 16.183C17.9927 15.632 19.9119 15.3345 21.8996 15.3345C26.0081 15.3345 29.9529 16.6228 33.2269 18.9293C32.0682 20.0008 31.0164 21.2034 30.0978 22.5269C29.746 23.0337 29.8715 23.7297 30.3785 24.0815C30.8853 24.4334 31.5815 24.3076 31.9331 23.8007C32.8254 22.5153 33.8577 21.3566 35 20.3369C36.1428 21.357 37.1754 22.5162 38.0678 23.8024C38.4194 24.3092 39.1153 24.4352 39.6224 24.0833C40.1292 23.7316 40.2551 23.0357 39.9034 22.5287C38.9846 21.2045 37.9323 20.0012 36.7731 18.9293C40.0473 16.6228 43.9919 15.3345 48.1004 15.3345C50.088 15.3345 52.0073 15.6319 53.8172 16.1828C54.3681 17.9928 54.6655 19.912 54.6655 21.8996ZM53.8172 53.817C52.0073 54.368 50.0881 54.6654 48.1004 54.6654C43.9919 54.6654 40.0471 53.3771 36.7731 51.0705C37.932 49.9989 38.984 48.7958 39.9027 47.4721C40.2545 46.9652 40.1288 46.2693 39.6219 45.9175C39.115 45.566 38.4191 45.6914 38.0673 46.1984C37.1749 47.4843 36.1425 48.6431 35 49.6629C33.8575 48.6431 32.8251 47.4844 31.9328 46.1987C31.5812 45.6921 30.8853 45.566 30.3782 45.9179C29.8715 46.2697 29.7457 46.9657 30.0975 47.4725C31.0161 48.7961 32.068 49.9991 33.2268 51.0705C29.9527 53.3771 26.008 54.6654 21.8994 54.6654C19.9119 54.6654 17.9925 54.368 16.1827 53.8169C15.6317 52.007 15.3343 50.0878 15.3343 48.1003C15.3343 43.8836 16.6688 39.973 18.9369 36.7676C22.9397 41.089 28.6589 43.7989 34.9999 43.7989C41.3408 43.7989 47.06 41.089 51.0628 36.7676C53.3309 39.973 54.6654 43.8836 54.6654 48.1003C54.6655 50.088 54.3681 52.0072 53.8172 53.817ZM41.565 35C41.565 38.6199 38.62 41.565 35 41.565C31.38 41.565 28.435 38.6199 28.435 35C28.435 31.3801 31.38 28.435 35 28.435C38.62 28.435 41.565 31.3801 41.565 35ZM27.9479 40.2566C25.0104 39.1243 22.4113 37.3066 20.3469 35C22.4112 32.6934 25.0104 30.8758 27.9479 29.7434C26.8511 31.2111 26.201 33.0309 26.201 35C26.201 36.9691 26.8511 38.7888 27.9479 40.2566ZM42.0521 40.2566C43.1489 38.7889 43.799 36.9691 43.799 35C43.799 33.0309 43.1489 31.2112 42.0521 29.7434C44.9896 30.8757 47.5887 32.6934 49.6531 35C47.5887 37.3066 44.9894 39.1242 42.0521 40.2566ZM2.23404 35C2.23404 27.1138 6.90081 20.2984 13.6171 17.1665C13.2797 18.6913 13.1004 20.2748 13.1004 21.8996C13.1004 26.8079 14.7237 31.3442 17.4614 35C14.7237 38.6558 13.1004 43.1921 13.1004 48.1004C13.1004 49.7252 13.2797 51.3087 13.6171 52.8335C6.90081 49.7016 2.23404 42.8862 2.23404 35ZM35 67.766C27.1137 67.766 20.2981 63.0992 17.1664 56.3828C18.6912 56.7201 20.2748 56.8994 21.8996 56.8994C26.6803 56.8994 31.262 55.3335 35 52.5439C38.7381 55.3335 43.3197 56.8994 48.1004 56.8994C49.7253 56.8994 51.3088 56.72 52.8336 56.3828C49.7019 63.0992 42.8863 67.766 35 67.766ZM56.3829 52.8335C56.7201 51.3087 56.8996 49.7252 56.8996 48.1004C56.8996 43.1921 55.2763 38.6558 52.5386 35C55.2763 31.3442 56.8996 26.8079 56.8996 21.8996C56.8996 20.2748 56.7201 18.6913 56.3829 17.1665C63.0993 20.2982 67.766 27.1138 67.766 35C67.766 42.8862 63.0993 49.7018 56.3829 52.8335Z" fill="#EA5050"/>
</svg>
