<svg width="512" height="512" viewBox="0 0 512 512" fill="none" xmlns="http://www.w3.org/2000/svg">
<g clip-path="url(#clip0_220_798)">
<path d="M463.427 71.503H371.772V41.4184C371.772 37.2787 368.417 33.9225 364.276 33.9225C360.135 33.9225 356.78 37.2787 356.78 41.4184V71.503H325.73C321.589 71.503 318.234 74.8592 318.234 78.999C318.234 83.1387 321.589 86.4949 325.73 86.4949H356.78V118.236H351.154C343.298 118.236 336.907 124.627 336.907 132.482V220.728C336.907 228.583 343.298 234.974 351.154 234.974H356.78V294.443C356.78 298.582 360.135 301.938 364.276 301.938C368.417 301.938 371.772 298.582 371.772 294.443V234.974H377.398C385.253 234.974 391.644 228.582 391.644 220.728V132.482C391.644 124.626 385.253 118.236 377.398 118.236H371.772V86.4949H463.427C481.438 86.4949 496.093 101.149 496.093 119.161V375.716H15.9098V119.162C15.9098 101.15 30.5638 86.4959 48.576 86.4959H179.976V101.125H174.35C166.495 101.125 160.104 107.516 160.104 115.371V203.617C160.104 211.473 166.496 217.863 174.35 217.863H179.976V284.1C179.976 288.24 183.333 291.596 187.472 291.596C191.612 291.596 194.968 288.24 194.968 284.1V217.863H200.594C208.45 217.863 214.84 211.472 214.84 203.617V115.371C214.84 107.515 208.449 101.125 200.594 101.125H194.968V86.4949H226.018C230.158 86.4949 233.514 83.1387 233.514 78.999C233.514 74.8592 230.158 71.503 226.018 71.503H194.968V67.8011C194.968 63.6613 191.612 60.3051 187.472 60.3051C183.333 60.3051 179.976 63.6613 179.976 67.8011V71.503H48.576C22.2973 71.503 0.917969 92.8824 0.917969 119.161V383.212C0.917969 409.491 22.2973 430.87 48.576 430.87H162.683V468.983L138.523 497.008H128.933C124.793 497.008 121.437 500.364 121.437 504.504C121.437 508.644 124.793 512 128.933 512H382.378C386.519 512 389.874 508.644 389.874 504.504C389.874 500.364 386.519 497.008 382.378 497.008H373.479L349.319 468.983V430.87H463.427C489.706 430.87 511.085 409.491 511.085 383.212V119.162C511.085 92.8834 489.706 71.503 463.427 71.503ZM376.652 219.984H351.9V133.228H376.653V219.984H376.652ZM199.849 202.871H175.095V116.117H199.849V202.871ZM463.427 415.878H311.719C307.578 415.878 304.223 419.235 304.223 423.374C304.223 427.514 307.578 430.87 311.719 430.87H334.327V464.273H315.655C311.515 464.273 308.16 467.629 308.16 471.769C308.16 475.909 311.515 479.265 315.655 479.265H338.388L353.685 497.008H158.317L173.614 479.265H196.346C200.486 479.265 203.842 475.909 203.842 471.769C203.842 467.629 200.486 464.273 196.346 464.273H177.675V430.87H279.773C283.914 430.87 287.269 427.514 287.269 423.374C287.269 419.235 283.914 415.878 279.773 415.878H48.576C33.1434 415.878 20.1855 405.118 16.7873 390.708H495.215C491.817 405.118 478.86 415.878 463.427 415.878Z" fill="#AAAAAA"/>
<path d="M79.199 218.844C75.0593 218.844 71.7031 222.2 71.7031 226.34V244.436C71.7031 252.292 78.0936 258.682 85.9494 258.682H91.5753V298.601C91.5753 302.741 94.9315 306.097 99.0712 306.097C103.211 306.097 106.567 302.741 106.567 298.601V258.682H112.193C120.049 258.682 126.439 252.292 126.439 244.436V156.19C126.439 148.334 120.048 141.943 112.193 141.943H106.567V129.953C106.567 125.813 103.211 122.457 99.0712 122.457C94.9315 122.457 91.5753 125.813 91.5753 129.953V141.943H85.9494C78.0936 141.943 71.7031 148.334 71.7031 156.19V194.395C71.7031 198.535 75.0593 201.891 79.199 201.891C83.3388 201.891 86.695 198.535 86.695 194.395V156.935H99.0622H99.0722C99.0722 156.935 99.0782 156.935 99.0822 156.935H111.449V243.691H86.695V226.341C86.695 222.2 83.3388 218.844 79.199 218.844Z" fill="#EA5050"/>
<path d="M262.75 203.03H268.377V242.949C268.377 247.088 271.732 250.445 275.873 250.445C280.014 250.445 283.369 247.088 283.369 242.949V203.03H288.995C296.85 203.03 303.241 196.639 303.241 188.783V129.988C303.241 125.848 299.886 122.492 295.745 122.492C291.604 122.492 288.249 125.848 288.249 129.988V188.039H263.496V52.3095H288.249V98.0436C288.249 102.183 291.604 105.539 295.745 105.539C299.886 105.539 303.241 102.183 303.241 98.0436V51.5639C303.241 43.7092 296.85 37.3177 288.995 37.3177H283.369V7.49592C283.369 3.35617 280.014 0 275.873 0C271.732 0 268.377 3.35617 268.377 7.49592V37.3177H262.75C254.894 37.3177 248.504 43.7092 248.504 51.5639V188.783C248.504 196.64 254.894 203.03 262.75 203.03Z" fill="#EA5050"/>
<path d="M407.536 205.505C408.891 208.018 411.473 209.445 414.141 209.445C415.341 209.445 416.56 209.155 417.692 208.545L452.22 189.929L449.736 196.447C448.262 200.316 450.204 204.647 454.073 206.121C454.951 206.455 455.853 206.613 456.74 206.613C459.76 206.613 462.607 204.774 463.747 201.784L472.186 179.63C473.66 175.761 471.718 171.431 467.849 169.956L444.335 160.998C440.467 159.525 436.136 161.466 434.661 165.335C433.187 169.204 435.129 173.534 438.998 175.009L444.45 177.086L410.577 195.35C406.933 197.314 405.571 201.861 407.536 205.505Z" fill="#EA5050"/>
<path d="M45.2389 351.968C46.4562 354.813 49.2237 356.517 52.1331 356.517C53.1166 356.517 54.1171 356.322 55.0795 355.91L151.805 314.514L160.595 337.544C161.365 339.56 162.965 341.146 164.987 341.898C167.008 342.648 169.256 342.493 171.155 341.469L330.952 255.311C334.596 253.346 335.957 248.799 333.993 245.155C332.029 241.512 327.483 240.15 323.837 242.115L171.556 324.22L163.03 301.88C162.302 299.974 160.83 298.446 158.952 297.651C157.074 296.854 154.953 296.859 153.077 297.661L49.1807 342.127C45.3758 343.757 43.6108 348.162 45.2389 351.968Z" fill="#EA5050"/>
</g>
<defs>
<clipPath id="clip0_220_798">
<rect width="512" height="512" fill="white"/>
</clipPath>
</defs>
</svg>
