<svg width="25" height="25" viewBox="0 0 25 25" fill="none" xmlns="http://www.w3.org/2000/svg">
<g clip-path="url(#clip0_6_15)">
<path d="M20.6666 4.21666C19.5975 3.13956 18.3249 2.28578 16.923 1.70494C15.521 1.1241 14.0175 0.827829 12.4999 0.833327C10.4712 0.83531 8.47854 1.37029 6.72158 2.38467C4.96462 3.39906 3.50504 4.85726 2.48896 6.61323C1.47288 8.36921 0.936006 10.3614 0.932069 12.39C0.928146 14.4189 1.45732 16.413 2.46659 18.1729L0.833252 24.1667L6.95825 22.5625C8.64955 23.5034 10.55 24.0049 12.4853 24.0208C15.562 24.021 18.5141 22.8058 20.699 20.6398C22.884 18.4741 24.125 15.5328 24.152 12.4563C24.1418 10.9211 23.8285 9.403 23.2305 7.98909C22.6324 6.57516 21.7611 5.2932 20.6666 4.21666ZM12.4999 22.0229C10.7757 22.0241 9.08306 21.5606 7.59992 20.6813L7.24992 20.4625L3.61867 21.425L4.58117 17.8813L4.34784 17.5167C3.10716 15.5139 2.64412 13.1256 3.04645 10.8043C3.44877 8.48296 4.68852 6.38981 6.53081 4.92137C8.37313 3.45292 10.69 2.71116 13.0426 2.83663C15.3951 2.96207 17.6201 3.94602 19.2958 5.60208C21.1274 7.39319 22.176 9.83636 22.2124 12.3979C22.1894 14.9586 21.1559 17.4066 19.3369 19.2092C17.518 21.0117 15.0608 22.0231 12.4999 22.0229ZM17.7645 14.8188C17.4728 14.6729 16.0583 13.9729 15.7958 13.8854C15.5333 13.7979 15.3291 13.7396 15.1395 14.0313C14.8543 14.4222 14.5474 14.797 14.2208 15.1542C14.0603 15.3583 13.8853 15.3729 13.5937 15.1542C11.9307 14.497 10.5453 13.2866 9.67075 11.7271C9.3645 11.2167 9.96242 11.2458 10.5166 10.1521C10.5576 10.0732 10.5789 9.9857 10.5789 9.89688C10.5789 9.80807 10.5576 9.72057 10.5166 9.64167C10.5166 9.49583 9.86034 8.06666 9.627 7.49791C9.39367 6.92916 9.16034 7.01666 8.97075 7.00208H8.402C8.25464 7.00434 8.10946 7.03804 7.97617 7.10091C7.84288 7.16378 7.72455 7.25438 7.62909 7.36666C7.30186 7.68484 7.04664 8.06946 6.88061 8.49459C6.71458 8.91973 6.6416 9.37551 6.66659 9.83126C6.75802 10.9222 7.16888 11.962 7.84784 12.8208C9.09063 14.6814 10.7938 16.1886 12.7916 17.1958C13.8394 17.8075 15.0571 18.0633 16.2624 17.925C16.6638 17.8454 17.0439 17.6822 17.378 17.4459C17.7123 17.2098 17.993 16.9059 18.202 16.5542C18.3957 16.1248 18.4566 15.6475 18.377 15.1833C18.2458 15.0375 18.0562 14.9646 17.7645 14.8188Z" fill="#555555"/>
</g>
<defs>
<clipPath id="clip0_6_15">
<rect width="25" height="25" fill="white"/>
</clipPath>
</defs>
</svg>
