<svg width="658" height="658" viewBox="0 0 658 658" fill="none" xmlns="http://www.w3.org/2000/svg">
<g clip-path="url(#clip0_220_660)">
<path d="M503.673 108.978C503.959 108.998 504.245 109.019 504.536 109.019C505.03 109.019 505.524 108.978 506.008 108.91C518.951 109.175 529.309 119.731 529.325 132.675C529.325 138.556 534.093 143.324 539.975 143.324C545.856 143.324 550.625 138.556 550.625 132.675C550.599 111.505 535.861 93.1901 515.186 88.6348V78.401C515.186 72.5197 510.417 67.7512 504.536 67.7512C498.655 67.7512 493.886 72.5197 493.886 78.401V89.1185C472.025 94.9634 457.881 116.112 460.829 138.551C463.778 160.989 482.904 177.765 505.534 177.765C518.675 177.765 529.325 188.42 529.325 201.56C529.325 214.696 518.675 225.351 505.534 225.351C492.394 225.351 481.744 214.696 481.744 201.56C481.744 195.679 476.975 190.911 471.094 190.911C465.213 190.911 460.444 195.679 460.444 201.56C460.47 221.966 474.178 239.818 493.886 245.116V256.785C493.886 262.667 498.655 267.435 504.536 267.435C510.417 267.435 515.186 262.667 515.186 256.785V245.605C537.676 240.681 552.845 219.6 550.365 196.709C547.889 173.818 528.56 156.47 505.534 156.475C492.758 156.481 482.259 146.392 481.754 133.626C481.255 120.86 490.933 109.976 503.673 108.983V108.978Z" fill="#EA5050"/>
<path d="M506.142 15.6826C440.626 15.6826 384.714 58.4327 363.768 115.675H99.4416C93.5863 115.675 88.8334 120.954 88.7918 126.804L86.275 500.4H10.9306C5.0493 500.4 0 504.659 0 510.551V557.96C0.135202 602.593 35.2879 639.259 79.8736 641.276V641.51H408.687V641.198C411.349 641.297 412.446 641.51 414.131 641.51H414.36C460.506 641.437 497.879 604.007 497.879 557.861V318.157C500.541 318.303 503.36 318.381 506.116 318.381C589.489 318.381 657.335 250.405 657.335 167.027C657.335 83.6532 589.52 15.6826 506.142 15.6826ZM83.9245 620.211H83.8569C49.4062 620.164 21.4556 592.307 21.2996 557.851V521.7H330.144V557.7C330.16 579.925 339.037 601.23 354.803 616.898C355.921 618.016 357.31 618.879 358.48 620.211H83.9245ZM476.579 557.851C476.585 592.244 448.738 620.143 414.35 620.211H414.147C379.618 620.148 351.616 592.234 351.444 557.71V510.551C351.532 507.826 350.492 505.189 348.563 503.265C346.634 501.341 343.997 500.307 341.278 500.4H107.575L110.019 136.975H357.856C355.968 146.725 354.99 156.626 354.938 166.553C354.918 187.546 359.296 208.305 367.793 227.499H267.202C261.316 227.499 256.552 232.267 256.552 238.148C256.552 244.03 261.316 248.798 267.202 248.798H379.348C401.318 283.348 436.44 307.435 476.579 315.495V557.851ZM506.142 297.086C434.401 297.086 376.238 238.928 376.243 167.183C376.243 95.4366 434.401 37.2787 506.147 37.2787C577.888 37.2787 636.046 95.4418 636.046 167.183C635.968 238.892 577.857 297.008 506.142 297.086Z" fill="#AAAAAA"/>
<path d="M198.841 298.376C180.042 298.376 164.754 313.181 164.754 331.381C164.754 349.581 180.042 364.386 198.841 364.386C217.639 364.386 232.932 349.581 232.932 331.381C232.932 313.181 217.639 298.376 198.841 298.376ZM198.841 343.086C191.784 343.086 186.054 337.834 186.054 331.381C186.054 324.923 191.789 319.676 198.841 319.676C205.892 319.676 211.633 324.928 211.633 331.381C211.633 337.834 205.892 343.086 198.841 343.086Z" fill="#EA5050"/>
<path d="M256.551 331.334C256.551 337.216 261.314 341.984 267.201 341.984H409.184C415.066 341.984 419.834 337.216 419.834 331.334C419.834 325.453 415.066 320.685 409.184 320.685H267.201C261.314 320.685 256.551 325.453 256.551 331.334Z" fill="#AAAAAA"/>
<path d="M198.841 205.799C180.042 205.799 164.754 220.608 164.754 238.809C164.754 257.009 180.042 271.814 198.841 271.814C217.639 271.814 232.932 257.009 232.932 238.809C232.932 220.608 217.639 205.799 198.841 205.799ZM198.841 250.514C191.784 250.514 186.054 245.262 186.054 238.809C186.054 232.356 191.789 227.098 198.841 227.098C205.892 227.098 211.633 232.35 211.633 238.809C211.633 245.262 205.892 250.519 198.841 250.519V250.514Z" fill="#EA5050"/>
<path d="M198.841 390.943C180.042 390.943 164.754 405.748 164.754 423.948C164.754 442.149 180.042 456.953 198.841 456.953C217.639 456.953 232.932 442.149 232.932 423.948C232.932 405.748 217.639 390.943 198.841 390.943ZM198.841 435.654C191.784 435.654 186.054 430.407 186.054 423.948C186.054 417.495 191.789 412.243 198.841 412.243C205.892 412.243 211.633 417.495 211.633 423.948C211.633 430.402 205.892 435.654 198.841 435.654Z" fill="#EA5050"/>
<path d="M409.184 413.87H267.201C261.314 413.87 256.551 418.639 256.551 424.52C256.551 430.401 261.314 435.17 267.201 435.17H409.184C415.066 435.17 419.834 430.401 419.834 424.52C419.834 418.639 415.066 413.87 409.184 413.87Z" fill="#AAAAAA"/>
</g>
<defs>
<clipPath id="clip0_220_660">
<rect width="657.333" height="657.333" fill="white"/>
</clipPath>
</defs>
</svg>
