<svg width="512" height="512" viewBox="0 0 512 512" fill="none" xmlns="http://www.w3.org/2000/svg">
<g clip-path="url(#clip0_220_668)">
<path d="M504.485 472.452H469.948V331.824C469.948 327.674 466.583 324.309 462.433 324.309C458.283 324.309 454.919 327.674 454.919 331.824V472.452H396.392V225.099C396.392 223.718 397.515 222.594 398.897 222.594H452.414C453.794 222.594 454.919 223.718 454.919 225.099V301.765C454.919 305.916 458.283 309.28 462.433 309.28C466.583 309.28 469.948 305.916 469.948 301.765V225.099C469.948 215.431 462.082 207.564 452.414 207.564H398.897C389.229 207.564 381.363 215.431 381.363 225.099V472.453H356.844V279.788C356.844 270.12 348.978 262.253 339.31 262.253H285.793C276.124 262.253 268.259 270.12 268.259 279.788V472.453H243.74V334.476C243.74 324.808 235.875 316.942 226.206 316.942H172.689C163.021 316.942 155.155 324.808 155.155 334.476V400.187C155.155 404.337 158.52 407.701 162.67 407.701C166.82 407.701 170.184 404.337 170.184 400.187V334.476C170.184 333.095 171.309 331.971 172.689 331.971H226.206C227.588 331.971 228.711 333.095 228.711 334.476V472.452H170.184V430.245C170.184 426.095 166.82 422.731 162.67 422.731C158.52 422.731 155.155 426.095 155.155 430.245V472.452H130.636V389.165C130.636 379.497 122.771 371.631 113.102 371.631H59.5864C49.9185 371.631 42.0521 379.497 42.0521 389.165V472.452H7.51468C3.36457 472.452 0 475.816 0 479.966C0 484.117 3.36457 487.481 7.51468 487.481H504.485C508.635 487.481 512 484.117 512 479.966C512 475.816 508.635 472.452 504.485 472.452ZM283.288 279.788C283.288 278.407 284.412 277.283 285.793 277.283H339.31C340.69 277.283 341.815 278.407 341.815 279.788V472.453H283.288V279.788ZM57.0815 389.165C57.0815 387.784 58.2057 386.66 59.5864 386.66H113.103C114.485 386.66 115.608 387.784 115.608 389.165V472.452H57.0815V389.165Z" fill="#AAAAAA"/>
<path d="M80.2447 281.919C80.6565 281.919 81.0723 281.904 81.4891 281.876C136.909 278.026 189.024 265.931 236.388 245.927C300.164 218.991 352.962 178.387 393.423 125.182L418.751 142.793C423.741 146.513 431.343 142.041 430.518 135.872L420.02 31.3001C419.679 26.8344 414.956 23.549 410.649 24.7784L308.872 51.2862C302.796 52.6568 301.249 61.3438 306.476 64.7284L332.034 82.4991C326.949 90.4887 315.746 106.331 296.21 125.709C293.264 128.632 293.245 133.39 296.167 136.335C299.09 139.282 303.848 139.301 306.794 136.378C336.91 106.505 348.28 84.6624 348.749 83.7476C350.465 80.399 349.441 76.297 346.352 74.1488L328.467 61.7135L405.944 41.5351L413.935 121.138L396.035 108.692C392.683 106.362 388.087 107.133 385.678 110.428C346.303 164.303 294.106 205.234 230.54 232.081C173.452 256.192 117.409 264.313 80.4491 266.881C78.2898 267.434 77.6356 263.47 79.7858 263.239C162.122 237.831 230.883 202.111 284.16 157.073C287.33 154.394 287.727 149.652 285.048 146.483C282.369 143.314 277.626 142.915 274.458 145.595C222.735 189.32 155.747 224.069 75.3551 248.878C67.0068 251.454 62.1082 259.551 63.7074 268.13C65.2273 276.288 72.0777 281.919 80.2447 281.919Z" fill="#EA5050"/>
</g>
<defs>
<clipPath id="clip0_220_668">
<rect width="512" height="512" fill="white"/>
</clipPath>
</defs>
</svg>
