<svg width="512" height="512" viewBox="0 0 512 512" fill="none" xmlns="http://www.w3.org/2000/svg">
<path d="M511.985 75.327C511.99 71.6513 511.271 68.0106 509.868 64.6131C508.465 61.2156 506.406 58.128 503.809 55.5269C501.212 52.9258 498.127 50.8623 494.732 49.4542C491.336 48.0462 487.697 47.3213 484.021 47.321H471.786C469.66 47.321 467.621 48.1656 466.118 49.6689C464.615 51.1722 463.77 53.2111 463.77 55.337C463.77 57.463 464.615 59.5019 466.118 61.0052C467.621 62.5085 469.66 63.353 471.786 63.353H484.021C485.589 63.353 487.142 63.6622 488.591 64.2627C490.039 64.8633 491.356 65.7435 492.464 66.8531C493.572 67.9627 494.451 69.2798 495.05 70.7292C495.649 72.1786 495.956 73.7318 495.954 75.3L495.614 307.4C495.595 314.141 492.906 320.6 488.136 325.363C483.366 330.127 476.903 332.806 470.162 332.816H41.5C34.7518 332.808 28.2822 330.124 23.5105 325.353C18.7388 320.581 16.0547 314.111 16.047 307.363V75.286C16.0504 72.1224 17.3086 69.0894 19.5455 66.8523C21.7825 64.6152 24.8154 63.3568 27.979 63.353H40.508C42.634 63.353 44.6729 62.5085 46.1762 61.0052C47.6795 59.5019 48.524 57.463 48.524 55.337C48.524 53.2111 47.6795 51.1722 46.1762 49.6689C44.6729 48.1656 42.634 47.321 40.508 47.321H27.979C20.5652 47.3306 13.4579 50.28 8.21563 55.5224C2.9734 60.7648 0.0242611 67.8723 0.015 75.286L0 387.642C0.00952565 395.056 2.95878 402.163 8.20099 407.405C13.4432 412.647 20.5504 415.596 27.964 415.606H206.473V458.684C206.473 468.974 206.473 493.071 155.821 493.071H140.347C138.221 493.071 136.182 493.916 134.679 495.419C133.176 496.922 132.331 498.961 132.331 501.087C132.331 503.213 133.176 505.252 134.679 506.755C136.182 508.258 138.221 509.103 140.347 509.103H371.653C373.779 509.103 375.818 508.258 377.321 506.755C378.824 505.252 379.669 503.213 379.669 501.087C379.669 498.961 378.824 496.922 377.321 495.419C375.818 493.916 373.779 493.071 371.653 493.071H356.179C305.527 493.071 305.527 468.971 305.527 458.684V446.553C305.503 444.443 304.649 442.427 303.148 440.943C301.647 439.459 299.622 438.627 297.512 438.627C295.401 438.627 293.376 439.459 291.875 440.943C290.374 442.427 289.52 444.443 289.496 446.553V458.684C289.496 464.337 289.496 477.578 298.896 489.193C300.017 490.563 301.226 491.858 302.516 493.071H209.486C210.776 491.858 211.985 490.563 213.106 489.193C222.506 477.578 222.506 464.337 222.506 458.684V415.606H484.036C491.45 415.596 498.557 412.647 503.799 407.405C509.041 402.163 511.99 395.056 512 387.642L511.985 75.327ZM484.036 399.575H27.964C24.8002 399.572 21.767 398.313 19.5299 396.076C17.2928 393.839 16.0344 390.806 16.031 387.642V340.078C23.3003 345.769 32.268 348.858 41.5 348.851H470.162C479.542 348.856 488.645 345.666 495.969 339.805V387.642C495.966 390.806 494.707 393.839 492.47 396.076C490.233 398.313 487.2 399.572 484.036 399.575Z" fill="#AAAAAA"/>
<path d="M271.725 365.86H240.277C239.217 365.848 238.165 366.047 237.182 366.444C236.2 366.842 235.305 367.43 234.551 368.176C233.798 368.921 233.199 369.809 232.791 370.787C232.382 371.766 232.172 372.815 232.172 373.875C232.172 374.936 232.382 375.985 232.791 376.964C233.199 377.942 233.798 378.83 234.551 379.575C235.305 380.321 236.2 380.909 237.182 381.307C238.165 381.704 239.217 381.903 240.277 381.891H271.725C272.786 381.903 273.838 381.704 274.82 381.307C275.803 380.909 276.697 380.321 277.451 379.575C278.205 378.83 278.804 377.942 279.212 376.964C279.621 375.985 279.831 374.936 279.831 373.875C279.831 372.815 279.621 371.766 279.212 370.787C278.804 369.809 278.205 368.921 277.451 368.176C276.697 367.43 275.803 366.842 274.82 366.444C273.838 366.047 272.786 365.848 271.725 365.86Z" fill="#AAAAAA"/>
<path d="M72.9418 310.584C73.9944 310.584 75.0367 310.377 76.0091 309.974C76.9816 309.571 77.8652 308.981 78.6095 308.237C79.3538 307.492 79.9442 306.609 80.3469 305.636C80.7497 304.664 80.9569 303.621 80.9568 302.569V85.3809H431.047V302.569C431.07 304.679 431.925 306.695 433.426 308.179C434.926 309.663 436.952 310.495 439.062 310.495C441.173 310.495 443.198 309.663 444.699 308.179C446.199 306.695 447.054 304.679 447.078 302.569V44.0429C447.065 33.1347 442.726 22.6771 435.012 14.964C427.299 7.25097 416.841 2.91234 405.933 2.8999H106.071C95.1626 2.91234 84.7048 7.25097 76.9913 14.964C69.2779 22.6771 64.9387 33.1347 64.9258 44.0429V302.569C64.9258 303.622 65.1331 304.664 65.536 305.636C65.9388 306.609 66.5293 307.492 67.2737 308.237C68.018 308.981 68.9017 309.571 69.8743 309.974C70.8468 310.377 71.8892 310.584 72.9418 310.584ZM106.071 18.9289H405.933C412.591 18.9363 418.975 21.5846 423.683 26.2928C428.391 31.001 431.039 37.3845 431.047 44.0429V69.3489H80.9568V44.0429C80.9642 37.3845 83.6125 31.001 88.3207 26.2928C93.0289 21.5846 99.4124 18.9363 106.071 18.9289Z" fill="#EA5050"/>
<path d="M124.971 46.4315C126.925 41.7128 124.685 36.303 119.966 34.3484C115.247 32.3939 109.837 34.6347 107.883 39.3534C105.928 44.0722 108.169 49.4819 112.888 51.4365C117.607 53.3911 123.016 51.1503 124.971 46.4315Z" fill="#EA5050"/>
<path d="M152.057 46.4306C154.011 41.7118 151.771 36.302 147.052 34.3475C142.333 32.3929 136.923 34.6337 134.969 39.3524C133.014 44.0712 135.255 49.481 139.974 51.4355C144.692 53.3901 150.102 51.1493 152.057 46.4306Z" fill="#EA5050"/>
<path d="M179.147 46.4315C181.101 41.7128 178.86 36.303 174.142 34.3484C169.423 32.3939 164.013 34.6347 162.059 39.3534C160.104 44.0722 162.345 49.4819 167.064 51.4365C171.782 53.3911 177.192 51.1503 179.147 46.4315Z" fill="#EA5050"/>
<path d="M311.945 49.9059H404.821C405.749 49.917 406.67 49.7438 407.531 49.3963C408.392 49.0488 409.175 48.5339 409.835 47.8816C410.495 47.2292 411.019 46.4523 411.377 45.5959C411.735 44.7395 411.919 43.8206 411.919 42.8924C411.919 41.9643 411.735 41.0454 411.377 40.1889C411.019 39.3325 410.495 38.5556 409.835 37.9032C409.175 37.2509 408.392 36.736 407.531 36.3885C406.67 36.0411 405.749 35.8678 404.821 35.8789H311.945C311.017 35.8678 310.096 36.0411 309.236 36.3885C308.375 36.736 307.592 37.2509 306.932 37.9032C306.272 38.5556 305.747 39.3325 305.39 40.1889C305.032 41.0454 304.848 41.9643 304.848 42.8924C304.848 43.8206 305.032 44.7395 305.39 45.5959C305.747 46.4523 306.272 47.2292 306.932 47.8816C307.592 48.5339 308.375 49.0488 309.236 49.3963C310.096 49.7438 311.017 49.917 311.945 49.9059Z" fill="#AAAAAA"/>
<path d="M411.943 123.686C411.938 119.497 410.272 115.481 407.31 112.519C404.348 109.557 400.332 107.89 396.143 107.886H115.855C111.666 107.89 107.649 109.557 104.687 112.519C101.725 115.481 100.059 119.497 100.055 123.686V192.986C100.059 197.175 101.726 201.191 104.688 204.153C107.65 207.115 111.666 208.781 115.855 208.786H396.143C400.332 208.781 404.348 207.115 407.31 204.153C410.272 201.191 411.938 197.175 411.943 192.986V123.686ZM397.916 192.986C397.915 193.456 397.728 193.907 397.396 194.239C397.063 194.571 396.613 194.758 396.143 194.759H115.855C115.385 194.758 114.934 194.571 114.602 194.239C114.269 193.907 114.082 193.456 114.082 192.986V123.686C114.082 123.216 114.269 122.765 114.602 122.433C114.934 122.101 115.385 121.914 115.855 121.914H396.143C396.613 121.914 397.063 122.101 397.396 122.433C397.728 122.765 397.915 123.216 397.916 123.686V192.986Z" fill="#EA5050"/>
<path d="M229.108 309.111C230.029 309.111 230.941 308.93 231.792 308.577C232.643 308.225 233.416 307.708 234.067 307.057C234.719 306.405 235.235 305.632 235.588 304.781C235.94 303.93 236.121 303.018 236.121 302.097V246.01C236.117 241.746 234.421 237.658 231.406 234.643C228.39 231.627 224.302 229.932 220.038 229.927H116.138C111.874 229.932 107.786 231.627 104.771 234.643C101.756 237.658 100.06 241.746 100.055 246.01V302.1C100.044 303.028 100.217 303.949 100.565 304.81C100.912 305.67 101.427 306.454 102.08 307.114C102.732 307.774 103.509 308.298 104.365 308.656C105.222 309.014 106.141 309.198 107.069 309.198C107.997 309.198 108.916 309.014 109.772 308.656C110.629 308.298 111.405 307.774 112.058 307.114C112.71 306.454 113.225 305.67 113.573 304.81C113.92 303.949 114.093 303.028 114.082 302.1V246.01C114.083 245.465 114.3 244.942 114.685 244.557C115.07 244.171 115.593 243.955 116.138 243.954H220.038C220.583 243.955 221.106 244.171 221.491 244.557C221.877 244.942 222.094 245.465 222.094 246.01V302.1C222.095 303.96 222.834 305.743 224.15 307.058C225.465 308.372 227.248 309.111 229.108 309.111Z" fill="#EA5050"/>
<path d="M404.929 309.111C405.851 309.111 406.763 308.93 407.613 308.577C408.464 308.225 409.238 307.708 409.889 307.057C410.54 306.405 411.057 305.632 411.409 304.781C411.761 303.93 411.943 303.018 411.942 302.097V246.01C411.938 241.746 410.242 237.658 407.227 234.643C404.212 231.627 400.124 229.932 395.859 229.927H291.958C287.694 229.932 283.606 231.627 280.591 234.643C277.576 237.658 275.88 241.746 275.876 246.01V302.1C275.864 303.028 276.038 303.949 276.385 304.81C276.733 305.67 277.247 306.454 277.9 307.114C278.552 307.774 279.329 308.298 280.185 308.656C281.042 309.014 281.961 309.198 282.889 309.198C283.817 309.198 284.736 309.014 285.592 308.656C286.449 308.298 287.226 307.774 287.878 307.114C288.531 306.454 289.045 305.67 289.393 304.81C289.74 303.949 289.914 303.028 289.902 302.1V246.01C289.903 245.465 290.12 244.942 290.505 244.557C290.891 244.171 291.413 243.955 291.958 243.954H395.858C396.404 243.955 396.926 244.171 397.312 244.557C397.697 244.942 397.914 245.465 397.914 246.01V302.1C397.915 303.96 398.655 305.743 399.97 307.058C401.286 308.373 403.07 309.111 404.929 309.111Z" fill="#EA5050"/>
</svg>
