<svg width="640" height="640" viewBox="0 0 640 640" fill="none" xmlns="http://www.w3.org/2000/svg">
<g clip-path="url(#clip0_220_686)">
<path d="M638.823 151.763C636.621 143.572 631.246 136.588 623.894 132.355C616.535 128.1 607.787 126.95 599.58 129.152C591.383 131.36 584.4 136.729 580.167 144.082L574.834 153.362C569.767 150.451 563.295 152.164 560.331 157.205L533.242 203.379L523.963 198.047C521.505 196.625 518.578 196.24 515.839 196.979C513.095 197.724 510.762 199.526 509.351 201.994C506.46 207.092 508.221 213.57 513.298 216.497L522.578 221.829L431.926 378.922L409.529 438.756L398.864 458.695C392.62 469.558 393.287 483.061 400.572 493.252L376.576 522.684L369.859 505.838C366.828 498.329 359.814 493.184 351.747 492.554C343.676 491.919 335.943 495.907 331.782 502.849L327.944 509.353L324.32 466.694C323.486 456.602 315.67 448.488 305.62 447.27C295.564 446.057 286.045 452.082 282.832 461.684L256.597 540.389C254.764 545.956 257.763 551.955 263.314 553.83C264.356 554.314 265.475 554.606 266.621 554.679C271.204 554.694 275.286 551.773 276.755 547.43L302.881 468.725L306.614 512.019C307.385 521.257 314.024 528.938 323.054 531.032C332.084 533.125 341.426 529.147 346.18 521.195L350.128 514.686L356.741 531.433C359.548 538.489 365.896 543.524 373.41 544.644C380.925 545.764 388.465 542.801 393.214 536.869L418.064 505.411C420.814 506.13 423.646 506.489 426.49 506.479C437.92 506.567 448.533 500.547 454.324 490.69L464.988 472.88L505.622 423.503L597.231 264.489L606.511 269.821C608.985 271.237 610.786 273.576 611.521 276.33C612.26 279.064 611.875 281.98 610.458 284.433L567.799 358.342C566.19 360.769 565.643 363.748 566.289 366.591C566.935 369.429 568.71 371.882 571.21 373.376C573.668 374.803 576.594 375.188 579.333 374.449C582.078 373.704 584.411 371.903 585.822 369.434L628.481 295.525C632.736 288.167 633.887 279.418 631.679 271.211C629.471 263.015 624.102 256.032 616.749 251.798L607.469 246.466L634.131 200.286C637.042 195.219 635.329 188.751 630.294 185.783L635.626 176.504C639.995 169.031 641.151 160.105 638.823 151.763ZM598.617 154.747C600.028 152.279 602.371 150.472 605.126 149.737C607.865 149.06 610.76 149.44 613.229 150.805C615.702 152.216 617.504 154.559 618.243 157.309C618.92 160.048 618.54 162.943 617.176 165.412L611.844 174.691L593.284 164.027L598.617 154.747ZM453.256 452.514L447.924 449.421L432.14 440.245L447.283 399.721L480.876 419.129L453.256 452.514ZM421.261 483.331C416.757 480.191 415.372 474.151 418.064 469.36L423.396 460.085L441.951 470.75L436.618 479.921C435.124 482.514 432.614 484.357 429.692 485.008C426.771 485.654 423.714 485.05 421.261 483.331ZM493.036 401.642L456.136 380.313L541.455 232.494L578.354 253.824L493.036 401.642ZM589.019 235.374L552.119 214.044L573.449 177.144L610.349 198.474L589.019 235.374Z" fill="#EA5050"/>
<path d="M168.289 477.999L130.54 515.649L107.929 493.038C103.768 488.903 97.0508 488.903 92.8901 493.038C90.8696 495.043 89.7344 497.767 89.7344 500.61C89.7344 503.453 90.8696 506.182 92.8901 508.181L115.501 530.792C119.5 534.76 124.905 536.984 130.54 536.979C136.206 537.01 141.658 534.786 145.683 530.792L183.328 493.038C186.952 488.805 186.707 482.498 182.771 478.561C178.829 474.619 172.522 474.375 168.289 477.999Z" fill="#EA5050"/>
<path d="M42.6602 506.687C42.6602 556.756 83.247 597.338 133.311 597.338C183.376 597.338 223.963 556.756 223.963 506.687C223.963 500.797 219.187 496.022 213.298 496.022C207.408 496.022 202.633 500.797 202.633 506.687C202.633 544.972 171.597 576.008 133.311 576.008C95.0262 576.008 63.9899 544.972 63.9899 506.687C63.9899 468.402 95.0262 437.365 133.311 437.365C148.319 437.324 162.926 442.193 174.903 451.233C179.616 454.769 186.302 453.81 189.833 449.098C193.369 444.385 192.416 437.704 187.703 434.168C160.234 413.567 123.48 410.255 92.7714 425.607C62.0579 440.964 42.6602 472.354 42.6602 506.687Z" fill="#EA5050"/>
<path d="M383.935 85.4254C389.825 85.4254 394.6 80.6554 394.6 74.7606C394.6 68.8709 389.825 64.0957 383.935 64.0957H106.649C100.76 64.0957 95.9844 68.8709 95.9844 74.7606V117.42C95.9844 123.315 100.76 128.085 106.649 128.085H383.935C389.825 128.085 394.6 123.315 394.6 117.42C394.6 111.53 389.825 106.755 383.935 106.755H117.314V85.4254H383.935Z" fill="#AAAAAA"/>
<path d="M138.641 149.414C132.752 149.414 127.977 154.19 127.977 160.079C127.977 165.974 132.752 170.744 138.641 170.744H351.938C357.828 170.744 362.603 165.974 362.603 160.079C362.603 154.19 357.828 149.414 351.938 149.414H138.641Z" fill="#AAAAAA"/>
<path d="M415.928 224.068H181.302C175.412 224.068 170.637 228.844 170.637 234.733C170.637 240.628 175.412 245.398 181.302 245.398H415.928C421.818 245.398 426.593 240.628 426.593 234.733C426.593 228.844 421.818 224.068 415.928 224.068Z" fill="#AAAAAA"/>
<path d="M309.279 298.722C309.279 292.833 304.504 288.057 298.614 288.057H85.3172C79.4276 288.057 74.6523 292.833 74.6523 298.722C74.6523 304.617 79.4276 309.387 85.3172 309.387H298.614C304.504 309.387 309.279 304.617 309.279 298.722Z" fill="#AAAAAA"/>
<path d="M415.928 288.057H341.274C335.385 288.057 330.609 292.833 330.609 298.722C330.609 304.617 335.385 309.387 341.274 309.387H415.928C421.818 309.387 426.593 304.617 426.593 298.722C426.593 292.833 421.818 288.057 415.928 288.057Z" fill="#AAAAAA"/>
<path d="M191.966 362.712C197.855 362.712 202.631 357.942 202.631 352.047C202.631 346.157 197.855 341.382 191.966 341.382H85.3172C79.4276 341.382 74.6523 346.157 74.6523 352.047C74.6523 357.942 79.4276 362.712 85.3172 362.712H191.966Z" fill="#AAAAAA"/>
<path d="M234.626 362.712H309.28C315.169 362.712 319.945 357.942 319.945 352.047C319.945 346.157 315.169 341.382 309.28 341.382H234.626C228.736 341.382 223.961 346.157 223.961 352.047C223.961 357.942 228.736 362.712 234.626 362.712Z" fill="#AAAAAA"/>
<path d="M479.918 490.69C474.029 490.69 469.253 495.465 469.253 501.355V608.003C469.253 613.898 464.478 618.668 458.589 618.668H31.9946C26.1049 618.668 21.3297 613.898 21.3297 608.003V32.1011C21.3297 26.2115 26.1049 21.4363 31.9946 21.4363H458.589C464.478 21.4363 469.253 26.2115 469.253 32.1011V232.39C469.253 238.28 474.029 243.055 479.918 243.055C485.808 243.055 490.583 238.28 490.583 232.39V32.1011C490.583 14.4323 476.257 0.106567 458.589 0.106567H31.9946C14.3257 0.106567 0 14.4323 0 32.1011V608.003C0 625.677 14.3257 639.998 31.9946 639.998H458.589C476.257 639.998 490.583 625.677 490.583 608.003V501.355C490.583 495.465 485.808 490.69 479.918 490.69Z" fill="#AAAAAA"/>
</g>
<defs>
<clipPath id="clip0_220_686">
<rect width="640" height="640" fill="white"/>
</clipPath>
</defs>
</svg>
