<svg id="Capa_1" enable-background="new 0 0 512 512" height="512" viewBox="0 0 512 512" width="512" xmlns="http://www.w3.org/2000/svg"><g><path d="m504.5 78.977c4.143 0 7.5-3.357 7.5-7.5v-43.977c0-15.163-12.337-27.5-27.5-27.5h-249.254c-15.164 0-27.5 12.337-27.5 27.5v169.183h-109.83c-53.991 0-97.916 43.979-97.916 98.038v111.109c0 36.087 29.324 65.446 65.367 65.446h4.066c2.43 6.731 6.025 13.04 10.67 18.597 2.656 3.18 7.386 3.602 10.564.945 3.178-2.656 3.602-7.386.945-10.564-7-8.376-10.855-19.009-10.855-29.939 0-25.742 20.911-46.686 46.613-46.686s46.612 20.943 46.612 46.686-20.91 46.685-46.612 46.685c-4.968 0-9.882-.791-14.607-2.352-3.935-1.304-8.175.835-9.474 4.769s.836 8.175 4.769 9.474c6.246 2.063 12.743 3.109 19.312 3.109 26.625 0 49.355-16.999 57.944-40.724h146.407c8.589 23.725 31.319 40.724 57.944 40.724s49.355-16.999 57.944-40.724h21.761c23.506 0 42.63-19.146 42.63-42.678v-42.957c0-24.943-12.237-49.192-32.316-63.991l-77.079-56.803h81.895c15.163 0 27.5-12.337 27.5-27.5v-134.347c0-4.143-3.357-7.5-7.5-7.5s-7.5 3.357-7.5 7.5v134.348c0 6.893-5.607 12.5-12.5 12.5h-102.25l-12.324-9.082c-39.11-28.84-85.456-44.083-134.027-44.083h-13.152v-169.183c0-6.893 5.607-12.5 12.5-12.5h249.253c6.893 0 12.5 5.607 12.5 12.5v43.977c0 4.142 3.357 7.5 7.5 7.5zm-114.835 418.023c-25.702 0-46.612-20.943-46.612-46.686s20.91-46.686 46.612-46.686 46.612 20.943 46.612 46.686-20.91 46.686-46.612 46.686zm106.892-118.858h-10.249c-21.215 0-38.475-17.26-38.475-38.475 0-1.379 1.121-2.5 2.5-2.5h24.718c11.955 10.51 19.641 25.19 21.506 40.975zm-135.532-125.302 94.074 69.327h-4.766c-9.649 0-17.5 7.851-17.5 17.5 0 29.486 23.988 53.475 53.475 53.475h10.692v35.457c0 15.262-12.395 27.678-27.63 27.678h-18.386c.189-1.963.293-3.95.293-5.962 0-34.014-27.64-61.686-61.612-61.686s-61.612 27.672-61.612 61.686c0 2.012.104 3.999.293 5.962h-139.657c.189-1.963.293-3.95.293-5.962 0-34.014-27.639-61.686-61.612-61.686-33.974 0-61.613 27.672-61.613 61.686 0 1.998.107 3.986.3 5.962h-.69c-27.772-.001-50.367-22.631-50.367-50.447v-111.109c0-45.787 37.196-83.038 82.916-83.038h137.983c45.343 0 88.611 14.231 125.126 41.157z"/><path d="m127.37 482c17.431 0 31.612-14.214 31.612-31.686s-14.181-31.686-31.612-31.686-31.613 14.214-31.613 31.686 14.182 31.686 31.613 31.686zm0-48.371c9.16 0 16.612 7.485 16.612 16.686s-7.452 16.685-16.612 16.685-16.613-7.485-16.613-16.686 7.453-16.685 16.613-16.685z"/><path d="m389.665 418.629c-17.431 0-31.612 14.214-31.612 31.686s14.181 31.685 31.612 31.685 31.612-14.214 31.612-31.686-14.181-31.685-31.612-31.685zm0 48.371c-9.16 0-16.612-7.485-16.612-16.686s7.452-16.686 16.612-16.686 16.612 7.485 16.612 16.686-7.452 16.686-16.612 16.686z"/><path d="m101.721 229.47c-37.66 0-68.299 30.676-68.299 68.381 0 16.234 13.194 29.441 29.412 29.441h313.427c8.113 0 14.995-4.983 17.531-12.696 2.538-7.721-.045-15.823-6.583-20.645l-35.592-26.244c-33.928-25.016-74.13-38.237-116.261-38.237zm-53.299 68.381c0-29.435 23.91-53.381 53.299-53.381h34.01v67.822h-72.897c-7.947 0-14.412-6.479-14.412-14.441zm329.885 8.172c1.761 1.298 1.53 2.992 1.235 3.887-.292.89-1.107 2.382-3.281 2.382h-113.991v-65.833c29.013 4.316 56.432 15.615 80.445 33.32zm-131.037-61.162v67.431h-96.54v-67.822h84.625c3.993 0 7.965.135 11.915.391z"/><path d="m51.39 124.406c27.723-27.722 72.832-27.723 100.554 0 3.535 2.928 7.071 2.928 10.606 0 2.929-2.93 2.929-7.678 0-10.607-33.571-33.569-88.195-33.571-121.767 0-2.929 2.93-2.929 7.678 0 10.607 2.929 2.928 7.678 2.928 10.607 0z"/><path d="m136.251 147.599c1.919 0 3.839-.732 5.303-2.196 2.929-2.93 2.929-7.678 0-10.607-10.662-10.661-24.827-16.533-39.888-16.533-15.06 0-29.226 5.872-39.888 16.533-2.929 2.93-2.929 7.678 0 10.607 2.929 2.928 7.678 2.928 10.606 0 7.829-7.829 18.228-12.141 29.281-12.141 11.054 0 21.453 4.312 29.281 12.141 1.466 1.463 3.386 2.196 5.305 2.196z"/><path d="m82.124 155.14c-2.929 2.929-2.929 7.678 0 10.606 2.93 2.93 7.678 2.929 10.607.001 4.928-4.928 12.945-4.928 17.873 0 3.536 2.929 7.071 2.928 10.606-.001 2.929-2.929 2.929-7.678 0-10.606-10.777-10.776-28.31-10.777-39.086 0z"/><path d="m317.917 154.977c25.089 0 45.5-20.411 45.5-45.5s-20.411-45.5-45.5-45.5-45.5 20.411-45.5 45.5 20.411 45.5 45.5 45.5zm0-76c16.817 0 30.5 13.683 30.5 30.5s-13.683 30.5-30.5 30.5-30.5-13.683-30.5-30.5 13.683-30.5 30.5-30.5z"/><path d="m475.167 45.413c0-4.143-3.357-7.5-7.5-7.5h-56.822c-1.989 0-3.896.79-5.304 2.196l-23.958 23.958c-14.206-19.86-37.441-32.841-63.666-32.841-4.143 0-7.5 3.357-7.5 7.5s3.357 7.5 7.5 7.5c34.876 0 63.25 28.374 63.25 63.25s-28.374 63.25-63.25 63.25-63.25-28.374-63.25-63.25c0-14.74 5.179-29.088 14.583-40.402 2.647-3.186 2.212-7.914-.974-10.562-3.185-2.649-7.914-2.211-10.562.974-11.639 14.002-18.048 31.755-18.048 49.99 0 43.147 35.103 78.25 78.25 78.25 15.024 0 29.066-4.265 40.997-11.634l49.262 49.261c1.407 1.406 3.314 2.196 5.304 2.196h54.188c4.143 0 7.5-3.357 7.5-7.5s-3.357-7.5-7.5-7.5h-51.081l-45.618-45.618c15.482-14.306 25.199-34.763 25.199-57.455 0-11.373-2.459-22.177-6.842-31.937l24.626-24.627h53.716c4.143.001 7.5-3.356 7.5-7.499z"/><path d="m464.397 147.041h-34.73c-4.143 0-7.5 3.357-7.5 7.5s3.357 7.5 7.5 7.5h34.73c4.143 0 7.5-3.357 7.5-7.5s-3.357-7.5-7.5-7.5z"/><path d="m464.397 178.167h-34.73c-4.143 0-7.5 3.357-7.5 7.5s3.357 7.5 7.5 7.5h34.73c4.143 0 7.5-3.357 7.5-7.5s-3.357-7.5-7.5-7.5z"/></g></svg>