<svg width="70" height="70" viewBox="0 0 70 70" fill="none" xmlns="http://www.w3.org/2000/svg">
<g clip-path="url(#clip0_220_681)">
<path d="M69.4684 67.0186L44.9707 42.5209C44.8136 42.3535 44.6239 42.2201 44.4132 42.1289C44.2025 42.0377 43.9754 41.9907 43.7458 41.9907C43.5163 41.9907 43.2891 42.0377 43.0785 42.1289C42.8678 42.2201 42.678 42.3535 42.5209 42.5209L36.7465 48.2604L20.998 32.5119V24.4977H31.497V27.9973C31.497 28.4614 31.6814 28.9065 32.0095 29.2346C32.3377 29.5628 32.7827 29.7472 33.2468 29.7472H54.2448C54.5675 29.7435 54.8835 29.654 55.1602 29.4879C55.4369 29.3219 55.6645 29.0852 55.8197 28.8023C55.9573 28.5113 56.0137 28.1886 55.9829 27.8682C55.9521 27.5479 55.8352 27.2418 55.6447 26.9824L49.4153 18.3732L55.6447 9.76407C55.864 9.52184 56.0127 9.22404 56.0744 8.90313C56.1361 8.58223 56.1085 8.25055 55.9947 7.94424C55.8261 7.63396 55.5709 7.37941 55.2602 7.21163C54.9495 7.04385 54.5967 6.97009 54.2448 6.99933H41.996V1.74983C41.996 1.28575 41.8116 0.840672 41.4835 0.512515C41.1553 0.184357 40.7102 0 40.2462 0H19.2482C18.7841 0 18.339 0.184357 18.0108 0.512515C17.6827 0.840672 17.4983 1.28575 17.4983 1.74983V32.5119L1.53985 48.4704C0.561519 49.4582 0.00878996 50.7898 0 52.18V64.7438C0 66.1361 0.553071 67.4713 1.53754 68.4558C2.52202 69.4403 3.85725 69.9933 5.2495 69.9933H68.2435C68.589 69.9916 68.9262 69.8876 69.2127 69.6946C69.4991 69.5015 69.7221 69.228 69.8533 68.9084C69.9963 68.593 70.036 68.2405 69.9669 67.9012C69.8978 67.5618 69.7233 67.253 69.4684 67.0186ZM50.8152 10.499L45.8456 17.4983C45.6242 17.7904 45.5044 18.1468 45.5044 18.5132C45.5044 18.8797 45.6242 19.2361 45.8456 19.5281L50.8152 26.5275H34.9967V24.4977H40.2462C40.7102 24.4977 41.1553 24.3133 41.4835 23.9852C41.8116 23.657 41.996 23.2119 41.996 22.7478V10.499H50.8152ZM38.4963 20.998H20.998V3.49967H38.4963V20.998ZM5.2495 66.4937C4.78541 66.4937 4.34034 66.3093 4.01218 65.9811C3.68402 65.653 3.49967 65.2079 3.49967 64.7438V52.18C3.49687 51.9505 3.54213 51.723 3.63254 51.512C3.72295 51.3011 3.8565 51.1114 4.02462 50.9551L19.2482 35.7316L35.5216 51.97L50.0102 66.4937H5.2495ZM54.9798 66.4937L39.2313 50.7452L43.7458 46.2306L64.0089 66.4937H54.9798Z" fill="#EA5050"/>
</g>
<defs>
<clipPath id="clip0_220_681">
<rect width="70" height="70" fill="white"/>
</clipPath>
</defs>
</svg>
