<svg width="242" height="379" viewBox="0 0 242 379" fill="none" xmlns="http://www.w3.org/2000/svg">
<path fill-rule="evenodd" clip-rule="evenodd" d="M206.148 203.158L65.6839 372.795C64.3456 374.63 62.6043 376.137 60.5935 377.2C58.5821 378.263 56.3542 378.854 54.0785 378.928H23.9793C23.1326 379.066 22.2651 379.005 21.4467 378.748C20.6283 378.491 19.8817 378.047 19.2669 377.45C18.6521 376.854 18.1863 376.122 17.907 375.313C17.6276 374.504 17.5425 373.642 17.6584 372.795V280.227H5.01657C1.67217 280.227 0 278.76 0 274.126V252.026C0 247.493 1.37118 245.959 5.18379 245.959H58.6943C62.3063 245.959 63.8444 247.693 63.5769 250.993L61.4698 275.726C60.3326 289.438 58.0364 307.838 54.5804 330.928C71.1461 307.86 84.7802 289.46 95.4821 275.726L149.327 206.725H61.8044H60.6672H21.7051H20.0663H14.1133C12.0732 206.725 11.8057 205.059 13.4445 203.092L33.7115 178.525L35.1496 176.791L35.6846 176.158L176.116 6.18853C177.45 4.34934 179.191 2.84002 181.203 1.77665C183.214 0.713275 185.444 0.124342 187.72 0.0551293H217.82C218.66 -0.0643893 219.517 0.0110368 220.324 0.275459C221.13 0.53988 221.865 0.986159 222.47 1.57965C223.075 2.17308 223.534 2.89766 223.813 3.69708C224.091 4.49642 224.18 5.34905 224.074 6.18853L224.342 98.7567H236.983C240.328 98.7567 242 100.19 242 104.824V126.957C242 131.491 240.629 133.024 236.85 133.024H183.34C179.761 133.024 178.223 131.29 178.49 127.99L180.597 103.39C181.735 89.6896 183.942 71.2898 187.286 48.1892C170.764 71.1233 157.186 89.523 146.451 103.39L92.6733 172.291H227.92C229.927 172.291 230.228 173.925 228.556 175.958L206.349 202.959L206.148 203.158Z" fill="#F8F8F8"/>
</svg>
