<svg width="187" height="80" viewBox="0 0 187 80" fill="none" xmlns="http://www.w3.org/2000/svg">
<path fill-rule="evenodd" clip-rule="evenodd" d="M181.676 31.4209C181.708 32.1937 181.57 32.9641 181.271 33.6775C180.972 34.3909 180.519 35.0299 179.946 35.5491C178.654 36.6313 177 37.1839 175.317 37.0955C173.963 37.0793 172.622 36.8525 171.339 36.4232C169.932 35.9727 169.234 35.5357 169.234 35.1121V31.4209C169.224 31.3561 169.23 31.2903 169.251 31.2283C169.272 31.1663 169.307 31.11 169.354 31.0637C169.399 31.0175 169.455 30.9825 169.518 30.9617C169.58 30.9409 169.646 30.9347 169.711 30.9436H171.38C171.446 30.9344 171.512 30.9407 171.574 30.9619C171.637 30.9831 171.694 31.0187 171.741 31.0657C171.786 31.1127 171.821 31.17 171.842 31.2328C171.862 31.2956 171.868 31.3624 171.857 31.4277V33.754C172.995 34.2421 174.213 34.5135 175.451 34.554C176.306 34.6028 177.149 34.3184 177.8 33.7607C178.092 33.4952 178.323 33.1684 178.475 32.8035C178.628 32.4385 178.699 32.0445 178.681 31.6496C178.681 30.4595 177.826 29.4712 176.123 28.7047C174.54 28.0444 173.038 27.2028 171.649 26.1969C171.07 25.7621 170.601 25.1971 170.282 24.5475C169.963 23.8979 169.801 23.1823 169.812 22.4587C169.788 21.7127 169.928 20.9707 170.219 20.2835C170.511 19.5964 170.947 18.9805 171.5 18.4785C172.695 17.4155 174.256 16.8584 175.855 16.9253C177.494 16.9251 179.11 17.3193 180.565 18.0751C180.697 18.1316 180.809 18.2253 180.888 18.3448C180.967 18.4643 181.009 18.6043 181.009 18.7475V22.2032C181.017 22.268 181.012 22.334 180.991 22.396C180.971 22.4579 180.935 22.5143 180.889 22.5605C180.842 22.6067 180.786 22.6416 180.725 22.6624C180.662 22.6833 180.597 22.6895 180.531 22.6805H178.863C178.797 22.6909 178.731 22.6857 178.668 22.6655C178.605 22.6452 178.549 22.6103 178.502 22.5637C178.455 22.5171 178.421 22.4601 178.399 22.3975C178.379 22.3348 178.374 22.2683 178.385 22.2032V20.0181C177.586 19.6697 176.726 19.4824 175.855 19.4668C173.835 19.4668 172.853 20.3476 172.853 22.1225C172.841 22.4849 172.907 22.8456 173.043 23.1815C173.181 23.5173 173.386 23.8208 173.647 24.0723C173.943 24.3335 174.268 24.5591 174.617 24.7447C174.98 24.9464 176.023 25.4708 177.766 26.3179C178.946 26.8127 180.001 27.5636 180.854 28.5165C181.455 29.3552 181.761 30.3697 181.723 31.4008L181.676 31.4209ZM83.9879 52.8887C83.9979 52.9617 83.9908 53.036 83.9673 53.1059C83.9438 53.1756 83.9045 53.2391 83.8523 53.2912C83.8002 53.3433 83.7366 53.3827 83.6667 53.4061C83.5969 53.4296 83.5225 53.4367 83.4494 53.4265H82.1037L76.6664 69.1257C76.6163 69.2779 76.5171 69.4091 76.3844 69.4991C76.2518 69.5891 76.093 69.6327 75.933 69.6232H72.7231C72.5613 69.6432 72.3977 69.6037 72.2628 69.5121C72.1279 69.4207 72.0308 69.2833 71.9897 69.1257L66.6063 53.4265H65.3413C65.2682 53.4367 65.1938 53.4296 65.124 53.4061C65.0541 53.3827 64.9905 53.3433 64.9384 53.2912C64.8862 53.2391 64.8469 53.1756 64.8234 53.1059C64.7999 53.036 64.7928 52.9617 64.8028 52.8887V50.3741C64.7918 50.3007 64.7979 50.2256 64.8209 50.1549C64.8439 50.0841 64.883 50.0199 64.9354 49.9669C64.9876 49.914 65.0516 49.874 65.1219 49.8503C65.1925 49.8264 65.2675 49.8193 65.3413 49.8296H70.1325C70.3008 49.8115 70.4699 49.8575 70.6059 49.9584C70.7418 50.0593 70.8347 50.2079 70.8659 50.3741L73.2952 58.9397C73.6518 60.2844 74.0623 62.1199 74.5266 64.5336C75.0717 61.9384 75.5158 60.076 75.8724 58.9397L78.4967 50.3809C78.528 50.2145 78.6208 50.0661 78.7568 49.9651C78.8928 49.8641 79.0619 49.8181 79.2303 49.8363H83.4427C83.5165 49.826 83.5915 49.8331 83.6619 49.8569C83.7325 49.8808 83.7963 49.9208 83.8487 49.9736C83.9009 50.0265 83.9402 50.0909 83.9631 50.1616C83.9861 50.2323 83.9923 50.3073 83.981 50.3809V52.8887H83.9879ZM95.9186 57.0908C95.9928 55.9307 95.7608 54.7715 95.2456 53.7291C95.0086 53.3907 94.6869 53.1201 94.3127 52.9443C93.9385 52.7685 93.5247 52.6937 93.1125 52.7273C92.6049 52.6991 92.1 52.8188 91.6593 53.0719C91.2185 53.3248 90.8608 53.7004 90.6296 54.1527C90.2107 55.0924 89.9602 56.0983 89.8893 57.1244L95.9186 57.0908ZM101.053 59.7801C101.053 60.3987 100.77 60.708 100.205 60.708H89.8556C89.9274 63.9441 91.3518 65.5623 94.1287 65.5623C95.6701 65.5213 97.1767 65.0936 98.5093 64.3184C98.6621 64.2269 98.8359 64.176 99.0141 64.1705C99.1889 64.1705 99.3303 64.2848 99.4379 64.5135L100.414 66.8397C100.481 66.9739 100.52 67.1203 100.528 67.27C100.528 67.5995 100.003 68.0028 98.9468 68.46C97.2638 69.1835 95.4493 69.552 93.6173 69.5425C91.1768 69.5425 89.2612 68.9128 87.8705 67.6532C85.9146 65.8783 84.9366 63.1643 84.9366 59.5112C84.9366 56.4051 85.7105 53.9061 87.2582 52.0147C87.9875 51.0948 88.9228 50.3589 89.9887 49.8661C91.0546 49.3733 92.2213 49.1375 93.3952 49.1775C98.4869 49.1775 101.035 52.7004 101.04 59.7465L101.053 59.7801ZM115.184 43.5432C115.184 43.7449 114.989 43.9264 114.605 44.0811L107.769 46.7704C107.6 46.8525 107.417 46.9048 107.23 46.9251C107.103 46.9251 106.934 46.7368 106.726 46.3468L106.107 45.1501C106.01 44.9847 105.946 44.802 105.918 44.6123C105.918 44.4576 106.086 44.276 106.416 44.0744L112.708 40.3295C112.88 40.2147 113.08 40.1496 113.287 40.1412C113.441 40.1412 113.61 40.316 113.791 40.6791L114.989 42.9919C115.089 43.1592 115.155 43.3441 115.184 43.5365V43.5432ZM114.41 68.3525C114.42 68.4264 114.413 68.5015 114.389 68.5721C114.365 68.6428 114.326 68.7069 114.273 68.7596C114.22 68.8124 114.156 68.8521 114.085 68.876C114.015 68.8999 113.939 68.9071 113.865 68.8971H103.946C103.873 68.9073 103.798 68.9003 103.727 68.8764C103.657 68.8525 103.593 68.8127 103.541 68.7597C103.488 68.7068 103.449 68.6425 103.426 68.5717C103.403 68.5011 103.397 68.426 103.408 68.3525V65.838C103.398 65.7649 103.405 65.6907 103.429 65.6208C103.452 65.5509 103.492 65.4876 103.544 65.4355C103.596 65.3833 103.659 65.344 103.729 65.3205C103.799 65.2971 103.873 65.29 103.946 65.3H106.47V53.4199H104.074C103.982 53.4365 103.888 53.4308 103.798 53.4029C103.709 53.3751 103.628 53.3259 103.562 53.2599C103.495 53.1937 103.446 53.1125 103.418 53.0233C103.391 52.9341 103.385 52.8395 103.402 52.7475V50.4885C103.385 50.3965 103.391 50.3019 103.418 50.2127C103.446 50.1233 103.495 50.0423 103.562 49.9761C103.628 49.91 103.709 49.8609 103.798 49.8331C103.888 49.8052 103.982 49.7995 104.074 49.8161H110.716C110.808 49.8011 110.902 49.808 110.991 49.8364C111.079 49.8648 111.16 49.9139 111.225 49.9796C111.291 50.0453 111.34 50.1259 111.369 50.2143C111.397 50.3028 111.404 50.3968 111.389 50.4885V65.2799H113.872C113.946 65.2687 114.021 65.2748 114.092 65.2979C114.162 65.3208 114.227 65.36 114.28 65.4121C114.333 65.4644 114.373 65.5283 114.396 65.5987C114.42 65.6691 114.427 65.7441 114.417 65.8177V68.3525H114.41ZM129.544 67.9692C129.544 68.3525 128.972 68.7156 127.822 69.0449C126.634 69.3859 125.404 69.5556 124.168 69.5492C121.476 69.5492 119.383 68.6999 117.889 67.0011C116.395 65.3023 115.66 62.8841 115.682 59.7465C115.682 56.4252 116.481 53.8344 118.078 51.9743C119.675 50.1141 121.889 49.1819 124.72 49.1775C125.536 49.1948 126.349 49.2848 127.149 49.4464C127.948 49.5387 128.715 49.8149 129.39 50.2532C129.511 50.4224 129.567 50.6307 129.544 50.8381V56.042C129.555 56.1156 129.548 56.1907 129.524 56.2611C129.5 56.3315 129.46 56.3953 129.407 56.4476C129.354 56.4997 129.29 56.5389 129.219 56.5619C129.148 56.5849 129.073 56.5911 128.999 56.5799H126.146C126.073 56.5913 125.998 56.5853 125.927 56.5624C125.857 56.5395 125.793 56.5001 125.74 56.4477C125.688 56.3952 125.648 56.3312 125.625 56.2607C125.602 56.1901 125.596 56.1152 125.608 56.042V53.1509C125.302 53.0935 124.991 53.0664 124.679 53.0703C122.082 53.0703 120.781 55.2307 120.776 59.5516C120.776 61.6896 121.09 63.2383 121.718 64.1975C122.051 64.6879 122.508 65.0817 123.042 65.3392C123.576 65.5965 124.169 65.7083 124.76 65.6631C125.804 65.6592 126.834 65.4299 127.781 64.9908C127.902 64.9325 128.032 64.894 128.165 64.8765C128.225 64.8741 128.284 64.8921 128.333 64.9275C128.382 64.9628 128.417 65.0136 128.434 65.0715L129.43 67.6129C129.483 67.7383 129.521 67.8691 129.544 68.0028V67.9692ZM151.394 68.3525C151.405 68.426 151.399 68.5011 151.377 68.5717C151.352 68.6425 151.314 68.7068 151.262 68.7597C151.21 68.8127 151.145 68.8525 151.075 68.8764C151.004 68.9003 150.929 68.9073 150.856 68.8971H145.681C145.555 68.9085 145.427 68.8895 145.311 68.8415C145.193 68.7936 145.089 68.718 145.008 68.6215C144.785 68.1716 144.628 67.6913 144.544 67.196C143.784 67.9507 142.901 68.5692 141.933 69.0248C141.039 69.3843 140.082 69.5559 139.12 69.5291C136.469 69.5291 134.768 68.5139 134.019 66.4833C133.66 65.0196 133.516 63.5109 133.595 62.0056V53.4199H131.63C131.557 53.4311 131.482 53.4249 131.411 53.402C131.34 53.3789 131.276 53.3399 131.223 53.2876C131.17 53.2353 131.13 53.1715 131.106 53.1011C131.082 53.0307 131.075 52.9556 131.085 52.882V50.3741C131.075 50.3003 131.082 50.2251 131.106 50.1545C131.13 50.0839 131.17 50.0197 131.223 49.9669C131.276 49.9143 131.34 49.8744 131.411 49.8507C131.481 49.8268 131.556 49.8196 131.63 49.8296H137.882C137.966 49.8185 138.051 49.8269 138.132 49.8541C138.212 49.8813 138.284 49.9265 138.344 49.9864C138.404 50.0461 138.449 50.1189 138.476 50.1989C138.503 50.2791 138.512 50.3643 138.5 50.4481V61.7904C138.429 62.7429 138.546 63.7 138.843 64.6076C139.021 64.9504 139.296 65.2333 139.634 65.4211C139.971 65.6088 140.357 65.6931 140.742 65.6631C141.917 65.5992 143.023 65.0865 143.83 64.2311V53.4199H141.811C141.475 53.4199 141.313 53.2383 141.313 52.882V50.3741C141.313 50.0111 141.475 49.8296 141.811 49.8296H148.104C148.188 49.8171 148.274 49.8245 148.354 49.8512C148.435 49.8779 148.509 49.9231 148.569 49.9832C148.629 50.0433 148.674 50.1167 148.701 50.1975C148.728 50.2781 148.734 50.364 148.722 50.4481V62.0593C148.702 63.152 148.831 64.2423 149.106 65.3H150.882C150.956 65.29 151.031 65.2971 151.1 65.3205C151.169 65.344 151.234 65.3833 151.286 65.4355C151.338 65.4876 151.377 65.5509 151.401 65.6208C151.423 65.6907 151.431 65.7649 151.421 65.838V68.3525H151.394ZM163.789 68.4668C163.789 68.7289 163.365 68.9711 162.531 69.1996C161.683 69.4356 160.807 69.5532 159.926 69.5492C157.787 69.5492 156.371 68.7917 155.68 67.2768C155.317 66.5013 155.135 64.7779 155.135 62.1064V44.8207H153.015C152.942 44.8321 152.867 44.8261 152.796 44.8032C152.727 44.7803 152.661 44.7409 152.609 44.6885C152.557 44.636 152.517 44.572 152.494 44.5015C152.472 44.4309 152.466 44.356 152.477 44.2828V41.7683C152.468 41.6952 152.474 41.6209 152.499 41.5511C152.521 41.4813 152.561 41.4179 152.613 41.3657C152.665 41.3136 152.728 41.2743 152.798 41.2508C152.868 41.2273 152.943 41.2204 153.015 41.2304H159.503C159.575 41.2204 159.65 41.2273 159.719 41.2508C159.79 41.2743 159.853 41.3136 159.905 41.3657C159.957 41.4179 159.997 41.4813 160.02 41.5511C160.044 41.6209 160.051 41.6952 160.041 41.7683V61.7501C160.017 62.5623 160.044 63.3752 160.121 64.184C160.144 64.4211 160.256 64.6408 160.434 64.7983C160.613 64.9557 160.845 65.0391 161.084 65.0311C161.346 65.0167 161.605 64.9715 161.858 64.8967C162.106 64.8187 162.364 64.7735 162.625 64.7621C162.806 64.7621 162.914 64.8361 162.934 64.9908L163.749 68.3121C163.775 68.3573 163.788 68.4081 163.789 68.46V68.4668ZM176.575 59.4036C176.575 57.1625 176.324 55.5423 175.821 54.5427C175.6 54.0783 175.244 53.6907 174.8 53.4296C174.356 53.1684 173.845 53.0456 173.332 53.0769C172.829 53.0541 172.333 53.1839 171.905 53.4492C171.479 53.7144 171.144 54.1028 170.942 54.5628C170.451 55.5512 170.209 57.158 170.209 59.3633C170.209 61.5685 170.451 63.2091 170.942 64.1907C171.153 64.6565 171.502 65.0471 171.94 65.3101C172.379 65.5732 172.888 65.6963 173.398 65.6631C173.906 65.6899 174.411 65.5647 174.846 65.3036C175.283 65.0425 175.632 64.6575 175.848 64.1975C176.354 63.2159 176.605 61.6201 176.601 59.4104L176.575 59.4036ZM181.789 59.3297C181.789 62.4673 181.036 64.9549 179.528 66.7927C178.753 67.6556 177.806 68.3468 176.748 68.8216C175.691 69.2965 174.543 69.5444 173.384 69.5495C172.223 69.5545 171.074 69.3167 170.012 68.8511C168.949 68.3855 167.997 67.7027 167.214 66.8464C165.734 65.0536 164.994 62.5592 164.994 59.3633C164.994 56.1675 165.741 53.7023 167.234 51.9676C168.002 51.0429 168.972 50.3076 170.071 49.8191C171.169 49.3304 172.366 49.1016 173.567 49.1505C174.711 49.106 175.851 49.3304 176.894 49.8056C177.936 50.2808 178.852 50.9937 179.569 51.8869C181.049 53.7157 181.789 56.1809 181.789 59.2827V59.3297ZM77.2182 31.4277C77.2532 32.1972 77.1188 32.9651 76.8247 33.6771C76.5304 34.3892 76.0838 35.0281 75.5158 35.5491C74.2212 36.6311 72.5648 37.1836 70.8794 37.0955C69.529 37.0793 68.1894 36.8525 66.9091 36.4232C65.5028 35.9727 64.8028 35.5357 64.8028 35.1121V31.4209C64.794 31.3561 64.8002 31.2903 64.821 31.2283C64.8419 31.1663 64.8768 31.11 64.9231 31.0637C64.9694 31.0175 65.0258 30.9825 65.0878 30.9617C65.1499 30.9409 65.2159 30.9347 65.2806 30.9436H66.9495C67.0149 30.9344 67.0817 30.9407 67.1444 30.9619C67.207 30.9831 67.2638 31.0187 67.3101 31.0657C67.3566 31.1127 67.3913 31.17 67.4116 31.2328C67.4321 31.2956 67.4374 31.3624 67.4273 31.4277V33.754C68.5645 34.2427 69.7833 34.514 71.0207 34.554C71.8676 34.5957 72.6983 34.3119 73.3422 33.7607C73.6354 33.4952 73.8665 33.1684 74.0189 32.8035C74.1711 32.4385 74.2411 32.0445 74.2238 31.6496C74.2238 30.4595 73.3692 29.4712 71.6667 28.7047C70.0831 28.0444 68.5815 27.2028 67.1918 26.1969C66.6127 25.7621 66.1447 25.1971 65.8255 24.5475C65.5062 23.8979 65.345 23.1823 65.3548 22.4587C65.3317 21.7127 65.4706 20.9707 65.7622 20.2835C66.0537 19.5964 66.4911 18.9805 67.0438 18.4785C68.238 17.4155 69.7995 16.8584 71.3975 16.9253C73.0373 16.9251 74.6529 17.3193 76.1079 18.0751C76.2388 18.1319 76.3501 18.2259 76.428 18.3455C76.5057 18.4651 76.5466 18.6048 76.5454 18.7475V22.2032C76.5557 22.2683 76.5506 22.3348 76.5302 22.3975C76.5099 22.4601 76.475 22.5171 76.4284 22.5637C76.3818 22.6103 76.3247 22.6452 76.2621 22.6655C76.1993 22.6857 76.1326 22.6909 76.0676 22.6805H74.3988C74.3338 22.6895 74.2679 22.6833 74.2059 22.6624C74.1438 22.6416 74.0874 22.6067 74.0412 22.5605C73.9948 22.5143 73.96 22.4579 73.9391 22.396C73.9183 22.334 73.912 22.268 73.921 22.2032V20.0181C73.1245 19.6697 72.2668 19.4824 71.3975 19.4668C69.3787 19.4668 68.3963 20.3476 68.3963 22.1225C68.385 22.4849 68.4498 22.8456 68.5865 23.1815C68.7233 23.5173 68.929 23.8208 69.1903 24.0723C69.486 24.3335 69.8111 24.5591 70.1593 24.7447C70.5182 24.9464 71.568 25.4708 73.3085 26.3179C74.4877 26.8144 75.5425 27.5651 76.3973 28.5165C76.9987 29.3552 77.3041 30.3697 77.2653 31.4008L77.2182 31.4277ZM84.5665 11.8761H82.689C82.6114 11.8874 82.5321 11.8804 82.4575 11.8557C82.383 11.8309 82.3153 11.7891 82.2597 11.7337C82.2041 11.6782 82.1623 11.6105 82.1376 11.536C82.1128 11.4615 82.1058 11.3823 82.117 11.3046V8.68923C82.117 8.27239 82.3122 8.06396 82.6958 8.06396H85.5154C85.8989 8.06396 86.0873 8.27911 86.0873 8.68923V11.3046C86.0983 11.3817 86.0913 11.4602 86.067 11.5341C86.0426 11.608 86.0014 11.6752 85.9467 11.7306C85.8919 11.7859 85.8251 11.8279 85.7514 11.8531C85.6778 11.8784 85.5993 11.8862 85.522 11.8761H84.5665ZM88.7319 36.0803C88.7407 36.1451 88.7346 36.2111 88.7137 36.2729C88.6929 36.3349 88.6579 36.3913 88.6117 36.4375C88.5653 36.4837 88.509 36.5187 88.447 36.5395C88.3849 36.5604 88.3189 36.5665 88.2541 36.5576H80.7847C80.7199 36.5665 80.6539 36.5604 80.5918 36.5395C80.5298 36.5187 80.4734 36.4837 80.4271 36.4375C80.3809 36.3913 80.3459 36.3349 80.3251 36.2729C80.3042 36.2111 80.2981 36.1451 80.3069 36.0803V34.554C80.2977 34.4895 80.3038 34.4237 80.3247 34.362C80.3455 34.3001 80.3806 34.2441 80.4271 34.1984C80.4736 34.1527 80.5301 34.1184 80.5922 34.0984C80.6543 34.0784 80.7203 34.0733 80.7847 34.0835H83.0053V19.9441H79.8628C79.8037 19.9521 79.7437 19.9463 79.6874 19.9271C79.631 19.9077 79.5799 19.8757 79.538 19.8332C79.4962 19.7908 79.465 19.7393 79.4466 19.6827C79.4281 19.6261 79.4232 19.566 79.4321 19.5072V17.9272C79.4321 17.6112 79.5734 17.4497 79.8696 17.4497H85.6095C85.9057 17.4497 86.047 17.6112 86.047 17.9272V34.0632H88.2743C88.3388 34.0532 88.4046 34.0583 88.4668 34.0783C88.5289 34.0983 88.5855 34.1324 88.632 34.1783C88.6783 34.224 88.7135 34.28 88.7343 34.3417C88.7551 34.4036 88.7613 34.4693 88.7521 34.5339V36.0803H88.7319ZM118.582 36.0803C118.591 36.1451 118.585 36.2111 118.564 36.2729C118.543 36.3349 118.509 36.3913 118.462 36.4375C118.416 36.4837 118.36 36.5187 118.298 36.5395C118.236 36.5604 118.17 36.5665 118.105 36.5576H113.394C113.098 36.5576 112.957 36.3963 112.957 36.0803V22.3713C112.957 20.4283 112.109 19.4668 110.413 19.4668C109.269 19.4668 107.93 19.9912 106.376 21.0603V34.0632H108.57C108.633 34.0543 108.699 34.0603 108.76 34.0808C108.821 34.1013 108.877 34.1357 108.922 34.1813C108.968 34.2269 109.002 34.2825 109.023 34.3437C109.043 34.4049 109.049 34.47 109.041 34.5339V36.0803C109.049 36.1451 109.043 36.2111 109.022 36.2729C109.002 36.3349 108.967 36.3913 108.92 36.4375C108.874 36.4837 108.818 36.5187 108.756 36.5395C108.694 36.5604 108.628 36.5665 108.563 36.5576H103.792C103.502 36.5576 103.354 36.3963 103.354 36.0803V22.4116C103.354 20.4417 102.513 19.4668 100.824 19.4668C99.687 19.4668 98.368 20.0316 96.8338 21.1812V34.0632H99.1419C99.2063 34.0532 99.2723 34.0583 99.3344 34.0783C99.3965 34.0983 99.4531 34.1324 99.4995 34.1783C99.546 34.224 99.5811 34.28 99.6019 34.3417C99.6228 34.4036 99.6289 34.4693 99.6197 34.5339V36.0803C99.6287 36.1451 99.6224 36.2111 99.6015 36.2729C99.5807 36.3349 99.5457 36.3913 99.4995 36.4375C99.4531 36.4837 99.3968 36.5187 99.3348 36.5395C99.2727 36.5604 99.2067 36.5665 99.1419 36.5576H91.6658C91.6009 36.5665 91.5349 36.5604 91.4729 36.5395C91.4108 36.5187 91.3544 36.4837 91.3082 36.4375C91.262 36.3913 91.227 36.3349 91.2062 36.2729C91.1853 36.2111 91.1791 36.1451 91.188 36.0803V34.554C91.1752 34.488 91.1785 34.4199 91.1978 34.3555C91.217 34.2909 91.2516 34.2321 91.2985 34.1839C91.3454 34.1356 91.4033 34.0995 91.4673 34.0785C91.5313 34.0575 91.5994 34.0523 91.6658 34.0632H93.8931V21.8065C93.9006 21.1696 93.7935 20.5365 93.5768 19.9375H91.3898C91.3255 19.9476 91.2595 19.9424 91.1974 19.9224C91.1353 19.9025 91.0788 19.8683 91.0323 19.8225C90.9858 19.7767 90.9507 19.7207 90.9298 19.6589C90.909 19.5972 90.903 19.5313 90.9121 19.4668V17.9272C90.9032 17.8624 90.9094 17.7964 90.9302 17.7344C90.9511 17.6724 90.9861 17.6161 91.0323 17.5699C91.0786 17.5236 91.135 17.4888 91.197 17.4679C91.2591 17.4471 91.3251 17.4409 91.3898 17.4497H95.2456C95.6428 17.4497 96.0262 18.0616 96.3964 19.2785C98.3613 17.6919 100.225 16.8985 102.002 16.8985C103.913 16.8985 105.185 17.6784 105.817 19.2383C107.993 17.6784 109.929 16.8985 111.625 16.8985C113.32 16.8985 114.518 17.4879 115.218 18.6667C115.75 19.8804 115.98 21.2041 115.891 22.526V34.0632H118.118C118.183 34.0532 118.249 34.0583 118.311 34.0783C118.373 34.0983 118.429 34.1324 118.476 34.1783C118.522 34.224 118.557 34.28 118.578 34.3417C118.599 34.4036 118.605 34.4693 118.596 34.5339V36.0803H118.582ZM133.925 26.7483C134.002 25.0327 133.8 23.3161 133.326 21.6653C133.159 21.0492 132.786 20.5084 132.27 20.1321C131.754 19.7557 131.125 19.5661 130.486 19.5945C129.322 19.5945 127.795 20.2669 125.89 21.5443V32.7185C127.586 33.828 129.019 34.386 130.211 34.386C130.812 34.4183 131.409 34.2661 131.921 33.9501C132.433 33.6341 132.837 33.1692 133.077 32.6177C133.636 31.4412 133.925 29.4712 133.925 26.7213V26.7483ZM137.142 26.6272C137.142 29.8813 136.554 32.4429 135.379 34.312C134.904 35.1696 134.207 35.8827 133.36 36.3752C132.513 36.8677 131.547 37.1213 130.567 37.1089C128.865 37.0301 127.229 36.4213 125.89 35.3676V42.1313H128.125C128.189 42.1235 128.254 42.1305 128.315 42.1519C128.376 42.1733 128.432 42.2084 128.477 42.2544C128.523 42.3005 128.557 42.3564 128.578 42.4179C128.598 42.4792 128.604 42.5445 128.595 42.6087V44.1147C128.604 44.1795 128.598 44.2455 128.577 44.3075C128.556 44.3695 128.522 44.4257 128.475 44.472C128.429 44.5181 128.373 44.5531 128.311 44.574C128.249 44.5948 128.183 44.6009 128.118 44.592H120.648C120.583 44.6009 120.518 44.5948 120.456 44.574C120.393 44.5531 120.337 44.5181 120.291 44.472C120.244 44.4257 120.21 44.3695 120.189 44.3075C120.168 44.2455 120.162 44.1795 120.171 44.1147V42.5817C120.162 42.5169 120.168 42.4511 120.189 42.3891C120.21 42.3271 120.244 42.2708 120.291 42.2245C120.337 42.1783 120.393 42.1433 120.456 42.1225C120.518 42.1017 120.583 42.0955 120.648 42.1044H122.876V22.9965C122.923 21.9615 122.789 20.9261 122.479 19.9375H120.292C119.996 19.9375 119.854 19.7828 119.854 19.4668V17.9272C119.854 17.6112 119.996 17.4497 120.292 17.4497H123.784C123.935 17.4323 124.089 17.4485 124.233 17.4973C124.377 17.5461 124.509 17.6264 124.619 17.7321C124.924 18.2084 125.158 18.7273 125.312 19.2719C127.295 17.712 129.203 16.9321 131.038 16.9321C133.34 16.9321 134.934 17.8331 135.829 19.6215C136.795 21.8153 137.255 24.1981 137.175 26.5936L137.142 26.6272ZM149.396 35.9457C149.396 36.1609 149.019 36.3761 148.258 36.6181C147.531 36.8371 146.776 36.9503 146.018 36.9543C143.734 36.9543 142.388 36.0265 141.98 34.1708C141.794 32.5509 141.729 30.9193 141.785 29.2896V10.5314H139.388C139.324 10.5406 139.259 10.5346 139.197 10.5137C139.135 10.4929 139.079 10.4578 139.033 10.4114C138.988 10.365 138.953 10.3085 138.933 10.2464C138.913 10.1844 138.908 10.1185 138.918 10.0541V8.51443C138.909 8.44964 138.916 8.38368 138.936 8.32171C138.957 8.25972 138.992 8.20341 139.039 8.15717C139.084 8.11093 139.141 8.07603 139.203 8.05519C139.266 8.03436 139.331 8.02815 139.396 8.03707H144.409C144.671 8.03707 144.806 8.18497 144.806 8.47408V29.3569C144.783 30.5615 144.822 31.7665 144.921 32.9673C145.055 33.9759 145.593 34.4801 146.502 34.4801C147.122 34.4597 147.731 34.2963 148.279 34.0028C148.378 33.9615 148.482 33.9343 148.588 33.922C148.716 33.922 148.811 34.0161 148.864 34.1977L149.334 35.6701C149.369 35.7596 149.397 35.8519 149.416 35.9457H149.396ZM163.069 25.222C162.988 21.3 161.591 19.3413 158.877 19.3457C156.162 19.3503 154.698 21.3091 154.482 25.222H163.069ZM166.292 26.9701C166.292 27.4475 166.144 27.6828 165.854 27.6828H154.482C154.698 32.1651 156.44 34.4061 159.711 34.4061C161.354 34.3412 162.95 33.8449 164.341 32.9673C164.46 32.8916 164.597 32.8497 164.738 32.8463C164.846 32.8463 164.933 32.9136 165.014 33.048L165.727 34.5944C165.774 34.6815 165.802 34.7779 165.808 34.8768C165.808 35.1681 165.331 35.5379 164.374 35.9861C162.848 36.712 161.179 37.0909 159.49 37.0955C158.34 37.1483 157.195 36.9327 156.142 36.4659C155.091 35.9991 154.164 35.2939 153.434 34.4061C151.939 32.6132 151.192 30.1704 151.192 27.0776C151.192 23.9849 151.908 21.5197 153.339 19.682C154 18.7961 154.864 18.0829 155.86 17.6029C156.856 17.1231 157.954 16.8905 159.058 16.9253C162.406 16.9253 164.619 18.5121 165.701 21.6855C166.166 23.4067 166.365 25.1887 166.292 26.9701Z" fill="#EA5050"/>
<path fill-rule="evenodd" clip-rule="evenodd" d="M45.6652 42.7557L17.4026 76.9711C17.1334 77.3412 16.783 77.6452 16.3784 77.8596C15.9737 78.074 15.5254 78.1932 15.0675 78.2081H9.01134C8.84098 78.236 8.66644 78.2236 8.50176 78.1717C8.3371 78.12 8.18687 78.0304 8.06317 77.91C7.93948 77.7897 7.84575 77.6421 7.78955 77.4791C7.73334 77.3159 7.7162 77.142 7.73952 76.9711V58.3003H5.1959C4.52298 58.3003 4.18652 58.0044 4.18652 57.0699V52.6123C4.18652 51.6979 4.46242 51.3885 5.22954 51.3885H15.9963C16.723 51.3885 17.0325 51.7383 16.9787 52.4039L16.5547 57.3925C16.3259 60.1581 15.8639 63.8695 15.1685 68.5265C18.5017 63.8739 21.245 60.1625 23.3983 57.3925L34.2322 43.4752H16.6221H16.3932H8.55376H8.22403H7.02624C6.61575 43.4752 6.56192 43.1391 6.89165 42.7423L10.9695 37.7872L11.2589 37.4376L11.3665 37.3099L39.6224 3.02733C39.8909 2.65637 40.2411 2.35195 40.6459 2.13747C41.0507 1.92299 41.4993 1.8042 41.9573 1.79024H48.0136C48.1827 1.76613 48.3551 1.78135 48.5174 1.83468C48.6796 1.88801 48.8275 1.97803 48.9491 2.09773C49.071 2.21743 49.1634 2.36357 49.2194 2.52481C49.2753 2.68604 49.2934 2.85801 49.272 3.02733L49.3258 21.6981H51.8694C52.5423 21.6981 52.8788 21.9872 52.8788 22.9219V27.3861C52.8788 28.3005 52.603 28.6097 51.8426 28.6097H41.0759C40.3558 28.6097 40.0463 28.2601 40.1002 27.5945L40.5241 22.6327C40.7529 19.8693 41.1971 16.1581 41.8699 11.4988C38.5457 16.1245 35.8136 19.8357 33.6536 22.6327L22.8331 36.5299H50.0459C50.4495 36.5299 50.5102 36.8593 50.1737 37.2695L45.7055 42.7155L45.6652 42.7557Z" fill="#78BCDB"/>
</svg>
