<svg width="43" height="112" viewBox="0 0 43 112" fill="none" xmlns="http://www.w3.org/2000/svg">
<g filter="url(#filter0_d_16_4)">
<path d="M18.7878 87.2389V85.1949C19.2778 85.1669 19.5718 84.8029 19.5718 84.1449C19.5718 83.4729 19.3338 83.1649 18.9698 83.1649C18.7598 83.1649 18.5358 83.2769 18.4238 83.7949L18.1438 85.0829C17.8638 86.3709 17.3038 87.0009 16.0718 87.0009C14.6158 87.0009 13.7758 85.7549 13.7758 84.0749C13.7758 82.4509 14.7278 81.3169 16.1418 81.3169V83.3609C15.6658 83.3609 15.3438 83.6549 15.3438 84.1729C15.3438 84.6629 15.5958 84.9709 15.9738 84.9709C16.2958 84.9709 16.4778 84.7049 16.5898 84.2149L16.8698 82.9129C17.1218 81.7649 17.6538 81.1349 18.7738 81.1349C20.2718 81.1349 21.1818 82.4089 21.1818 84.2289C21.1818 86.0769 20.2018 87.2389 18.7878 87.2389Z" fill="black"/>
<path d="M17.4718 80.3863C15.3158 80.3863 13.7758 78.9023 13.7758 76.8023C13.7758 74.7303 14.9098 73.3583 16.7438 73.2183L16.7438 75.3883C16.0438 75.5423 15.7078 75.9763 15.7078 76.7183C15.7078 77.6283 16.3938 78.2163 17.4718 78.2163C18.5918 78.2163 19.2498 77.6703 19.2498 76.7463C19.2498 75.9903 18.8998 75.5283 18.2138 75.3883V73.2183C19.9778 73.3583 21.1818 74.7863 21.1818 76.7463C21.1818 78.9583 19.7118 80.3863 17.4718 80.3863Z" fill="black"/>
<path d="M13.9998 67.2216H16.0298V67.9076C16.0298 69.1396 16.5758 69.8816 17.9618 69.8816L20.9998 69.8816V72.0376H14.0138V70.0076L15.0498 69.8956C14.3638 69.6016 13.9018 68.9856 13.9018 68.0476C13.9018 67.7956 13.9298 67.5156 13.9998 67.2216Z" fill="black"/>
<path d="M17.4858 66.7144C15.2738 66.7144 13.7898 65.0904 13.7898 62.8504C13.7898 60.6244 15.2738 59.0004 17.4858 59.0004C19.6978 59.0004 21.1678 60.6244 21.1678 62.8504C21.1678 65.0904 19.6978 66.7144 17.4858 66.7144ZM17.4718 64.5444C18.5358 64.5444 19.2358 63.8584 19.2358 62.8504C19.2358 61.8564 18.5358 61.1704 17.4718 61.1704C16.4218 61.1704 15.7218 61.8564 15.7218 62.8504C15.7218 63.8584 16.4218 64.5444 17.4718 64.5444Z" fill="black"/>
<path d="M20.9998 55.5945V57.7505H10.4438L10.4438 55.5945L20.9998 55.5945Z" fill="black"/>
<path d="M20.9998 51.821V53.9771H10.4438L10.4438 51.8211L20.9998 51.821Z" fill="black"/>
<path d="M21.1818 43.5585C21.1818 45.5745 19.7538 46.8765 17.5418 46.8765C15.3158 46.8765 13.7758 45.5465 13.7758 43.4185C13.7758 42.5505 14.1258 41.7245 14.6438 41.3185H10.4438L10.4438 39.1625H20.9998V41.1925L20.1038 41.3045C20.7478 41.6825 21.1818 42.5505 21.1818 43.5585ZM19.2078 43.0405C19.2078 42.0325 18.5078 41.3325 17.4578 41.3325C16.4078 41.3325 15.7078 42.0325 15.7078 43.0405C15.7078 44.0625 16.4218 44.7065 17.4578 44.7065C18.4938 44.7065 19.2078 44.0625 19.2078 43.0405Z" fill="black"/>
<path d="M17.4858 37.9215C15.2738 37.9215 13.7898 36.2975 13.7898 34.0575C13.7898 31.8315 15.2738 30.2075 17.4858 30.2075C19.6978 30.2075 21.1678 31.8315 21.1678 34.0575C21.1678 36.2975 19.6978 37.9215 17.4858 37.9215ZM17.4718 35.7515C18.5358 35.7515 19.2358 35.0655 19.2358 34.0575C19.2358 33.0635 18.5358 32.3775 17.4718 32.3775C16.4218 32.3775 15.7218 33.0635 15.7218 34.0575C15.7218 35.0655 16.4218 35.7515 17.4718 35.7515Z" fill="black"/>
<path d="M20.9998 27.731L13.9998 29.985L13.9998 27.717L16.2818 27.073C16.8838 26.905 17.5698 26.751 18.2698 26.639C17.5278 26.513 17.2618 26.443 16.2818 26.135L13.9998 25.421V23.209L16.2818 22.551C16.5198 22.481 17.8218 22.145 18.2698 22.075C17.7658 21.991 16.5338 21.655 16.2818 21.585L13.9998 20.913V18.631L20.9998 21.081V23.083L18.7738 23.755C17.6258 24.105 16.7998 24.287 16.5058 24.329C16.7998 24.385 17.3458 24.511 18.8158 24.959L20.9998 25.631V27.731Z" fill="black"/>
<path d="M20.9998 15.5222V17.6782L13.9998 17.6782L13.9998 15.6482L14.7278 15.5082C14.1258 15.0742 13.7758 14.2762 13.7758 13.3662C13.7758 11.7002 14.8398 10.7342 16.6738 10.7342L20.9998 10.7342V12.8902L17.1918 12.8902C16.3098 12.8902 15.7358 13.3802 15.7358 14.1222C15.7358 14.9762 16.2958 15.5222 17.1638 15.5222H20.9998Z" fill="black"/>
<path d="M32.7554 97.2555L28.5889 101.422C28.2639 101.748 27.7356 101.748 27.4106 101.422L23.2441 97.2555C22.9183 96.9297 22.9183 96.4022 23.2441 96.0772C23.5699 95.7523 24.0974 95.7514 24.4224 96.0772L27.1665 98.8213V10.8333C27.1665 10.3733 27.5398 10 27.9998 10C28.4597 10 28.8331 10.3733 28.8331 10.8333V98.8213L31.5771 96.0772C31.7396 95.9147 31.9529 95.8331 32.1662 95.8331C32.3796 95.8331 32.5929 95.9147 32.7554 96.0772C33.0812 96.4031 33.0812 96.9305 32.7554 97.2555Z" fill="black"/>
</g>
<defs>
<filter id="filter0_d_16_4" x="0.443848" y="0" width="42.5559" height="111.666" filterUnits="userSpaceOnUse" color-interpolation-filters="sRGB">
<feFlood flood-opacity="0" result="BackgroundImageFix"/>
<feColorMatrix in="SourceAlpha" type="matrix" values="0 0 0 0 0 0 0 0 0 0 0 0 0 0 0 0 0 0 127 0" result="hardAlpha"/>
<feOffset/>
<feGaussianBlur stdDeviation="5"/>
<feComposite in2="hardAlpha" operator="out"/>
<feColorMatrix type="matrix" values="0 0 0 0 0 0 0 0 0 0 0 0 0 0 0 0 0 0 0.15 0"/>
<feBlend mode="normal" in2="BackgroundImageFix" result="effect1_dropShadow_16_4"/>
<feBlend mode="normal" in="SourceGraphic" in2="effect1_dropShadow_16_4" result="shape"/>
</filter>
</defs>
</svg>
